<?xml version="1.0" encoding="UTF-8"?>
<svg width="495px" height="125px" viewBox="0 0 495 125" version="1.1" xmlns="http://www.w3.org/2000/svg" xmlns:xlink="http://www.w3.org/1999/xlink">
    <!-- Generator: Sketch 46.2 (44496) - http://www.bohemiancoding.com/sketch -->
    <title>spaleck_logo_rz_20170904_1</title>
    <desc>Created with Sketch.</desc>
    <defs></defs>
    <g id="Page-1" stroke="none" stroke-width="1" fill="none" fill-rule="evenodd">
        <g id="spaleck_logo_rz_20170904_1" fill="#00A3DA">
            <path d="M66.411,25.424 L66.411,8.361 L23.751,8.361 C11.118,8.576 0.897,18.898 0.897,31.577 C0.897,44.254 11.115,54.478 23.746,54.677 L43.215,54.679 C46.598,54.689 49.348,57.443 49.348,60.828 C49.348,64.217 46.593,66.975 43.205,66.98 L0.897,66.981 L0.897,84.044 L43.558,84.044 C56.192,83.829 66.412,73.507 66.412,60.828 C66.412,48.151 56.195,37.924 43.564,37.725 L24.095,37.726 C20.712,37.716 17.962,34.963 17.962,31.577 C17.962,28.188 20.717,25.43 24.104,25.425 L66.411,25.424 Z" id="Fill-1"></path>
            <path d="M411.983,16.743 C405.113,10.762 396.159,7.115 386.335,7.115 C364.731,7.115 347.218,24.628 347.218,46.232 C347.218,67.836 364.731,85.349 386.335,85.349 C396.147,85.349 405.092,81.71 411.959,75.742 L400.6,59.52 C397.037,63.343 391.973,65.748 386.335,65.748 C375.557,65.748 366.819,57.01 366.819,46.232 C366.819,35.453 375.557,26.716 386.335,26.716 C391.985,26.716 397.058,29.131 400.622,32.968 L411.983,16.743" id="Fill-2"></path>
            <path d="M141,33.551 C141,19.821 131.695,8.361 114.675,8.361 L76.777,8.361 L76.777,84.044 L96.293,84.044 L96.293,58.627 L114.675,58.627 C131.695,58.627 141,47.167 141,33.551 Z M121.143,33.551 C121.143,38.657 117.285,41.607 112.065,41.607 L96.293,41.607 L96.293,25.381 L112.065,25.381 C117.285,25.381 121.143,28.331 121.143,33.551 L121.143,33.551 Z" id="Fill-3"></path>
            <polyline id="Fill-4" points="272.363 84.044 272.363 67.024 241.953 67.024 241.953 8.361 222.437 8.361 222.437 84.044 272.363 84.044"></polyline>
            <polyline id="Fill-5" points="337.87 84.044 337.87 67.024 301.901 67.024 301.901 54.676 337.076 54.676 337.076 37.678 301.901 37.678 301.901 25.381 337.87 25.381 337.87 8.361 282.385 8.361 282.385 84.044 337.87 84.044"></polyline>
            <polyline id="Fill-6" points="436.667 46.203 463.163 8.361 438.475 8.361 411.978 46.203 438.475 84.044 463.163 84.044 436.667 46.203"></polyline>
            <path d="M487.135,16.219 C482.798,16.219 479.277,12.698 479.277,8.361 C479.277,3.988 482.798,0.504 487.135,0.504 C491.508,0.504 494.992,3.988 494.992,8.361 C494.992,12.698 491.508,16.219 487.135,16.219 Z M487.135,1.801 C483.502,1.801 480.574,4.692 480.574,8.361 C480.574,11.956 483.502,14.921 487.135,14.921 C490.767,14.921 493.695,11.956 493.695,8.361 C493.695,4.692 490.767,1.801 487.135,1.801 Z M489.247,12.883 L486.913,9.325 L485.467,9.325 L485.467,12.883 L484.095,12.883 L484.095,3.876 L487.765,3.876 C489.285,3.876 490.804,4.951 490.804,6.619 C490.804,8.621 489.025,9.288 488.506,9.288 L490.915,12.883 L489.247,12.883 Z M487.765,5.025 L485.467,5.025 L485.467,8.139 L487.765,8.139 C488.543,8.139 489.396,7.546 489.396,6.619 C489.396,5.618 488.543,5.025 487.765,5.025 L487.765,5.025 Z" id="Fill-7"></path>
            <path d="M77.062,110.903 L77.062,124.63 L80.126,124.63 L80.126,119.249 L86.174,119.249 L86.174,116.559 L80.126,116.559 L80.126,113.593 L86.489,113.593 L86.489,110.903 L77.062,110.903 Z M100.373,120.81 C99.587,121.668 98.622,122.097 97.476,122.097 C96.33,122.097 95.365,121.668 94.58,120.81 C93.794,119.953 93.401,118.912 93.401,117.688 C93.401,116.464 93.794,115.42 94.58,114.556 C95.365,113.691 96.33,113.259 97.476,113.259 C98.622,113.259 99.587,113.691 100.373,114.556 C101.158,115.42 101.551,116.464 101.551,117.688 C101.551,118.912 101.158,119.953 100.373,120.81 Z M104.674,117.678 C104.674,115.662 103.98,113.976 102.592,112.621 C101.204,111.266 99.496,110.589 97.466,110.589 C95.437,110.589 93.728,111.266 92.341,112.621 C90.953,113.976 90.259,115.662 90.259,117.678 C90.259,119.694 90.953,121.38 92.341,122.735 C93.728,124.09 95.437,124.767 97.466,124.767 C99.496,124.767 101.204,124.09 102.592,122.735 C103.98,121.38 104.674,119.694 104.674,117.678 Z M119,111.983 C118.09,111.263 116.568,110.903 114.434,110.903 L109.23,110.903 L109.23,124.63 L112.293,124.63 L112.293,120.251 L114.414,120.251 L117.458,124.63 L121.229,124.63 L117.753,119.72 C119.494,119.079 120.365,117.658 120.365,115.459 C120.365,113.862 119.909,112.703 119,111.983 Z M114.532,117.599 L112.293,117.599 L112.293,113.534 L114.591,113.534 C115.573,113.534 116.26,113.672 116.653,113.947 C117.046,114.222 117.242,114.729 117.242,115.469 C117.242,116.209 117.052,116.749 116.672,117.089 C116.293,117.43 115.579,117.599 114.532,117.599 Z M126.865,110.903 L123.546,110.903 L128.338,124.63 L130.616,124.63 L133.601,115.086 L136.605,124.63 L138.884,124.63 L143.675,110.903 L140.356,110.903 L137.627,118.797 L135.211,110.903 L132.01,110.903 L129.575,118.797 L126.865,110.903 Z M159.583,124.63 L153.652,110.903 L150.686,110.903 L144.756,124.63 L148.016,124.63 L149.292,121.665 L155.046,121.665 L156.323,124.63 L159.583,124.63 Z M153.887,118.974 L150.451,118.974 L152.179,114.988 L153.887,118.974 Z M172.907,111.983 C171.997,111.263 170.475,110.903 168.341,110.903 L163.137,110.903 L163.137,124.63 L166.201,124.63 L166.201,120.251 L168.322,120.251 L171.365,124.63 L175.136,124.63 L171.66,119.72 C173.401,119.079 174.272,117.658 174.272,115.459 C174.272,113.862 173.817,112.703 172.907,111.983 Z M168.439,117.599 L166.201,117.599 L166.201,113.534 L168.498,113.534 C169.48,113.534 170.167,113.672 170.56,113.947 C170.953,114.222 171.149,114.729 171.149,115.469 C171.149,116.209 170.959,116.749 170.58,117.089 C170.2,117.43 169.487,117.599 168.439,117.599 Z M184.228,110.903 L179.378,110.903 L179.378,124.63 L184.071,124.63 C186.69,124.63 188.637,124.008 189.914,122.764 C191.19,121.521 191.828,119.832 191.828,117.698 C191.828,115.564 191.174,113.898 189.865,112.7 C188.555,111.502 186.676,110.903 184.228,110.903 Z M184.385,121.92 L182.441,121.92 L182.441,113.574 L184.15,113.574 C185.708,113.574 186.863,113.937 187.616,114.664 C188.369,115.39 188.745,116.428 188.745,117.776 C188.745,119.125 188.369,120.152 187.616,120.859 C186.863,121.566 185.786,121.92 184.385,121.92 Z M213.293,113.554 L213.293,110.903 L202.453,110.903 L202.453,113.554 L206.341,113.554 L206.341,124.63 L209.405,124.63 L209.405,113.554 L213.293,113.554 Z M226.018,116.637 L220.559,116.637 L220.559,110.903 L217.495,110.903 L217.495,124.63 L220.559,124.63 L220.559,119.229 L226.018,119.229 L226.018,124.63 L229.082,124.63 L229.082,110.903 L226.018,110.903 L226.018,116.637 Z M234.423,124.63 L237.487,124.63 L237.487,110.903 L234.423,110.903 L234.423,124.63 Z M252.431,119.74 L245.696,110.903 L242.828,110.903 L242.828,124.63 L245.892,124.63 L245.892,116.028 L252.431,124.63 L255.495,124.63 L255.495,110.903 L252.431,110.903 L252.431,119.74 Z M260.836,124.63 L263.9,124.63 L263.9,120.742 L265.275,119.21 L269.301,124.63 L272.875,124.63 C272.246,123.753 271.297,122.421 270.027,120.634 C268.757,118.847 267.887,117.626 267.415,116.971 L272.875,110.903 L269.085,110.903 L263.9,116.539 L263.9,110.903 L260.836,110.903 L260.836,124.63 Z M276.743,124.63 L279.807,124.63 L279.807,110.903 L276.743,110.903 L276.743,124.63 Z M294.751,119.74 L288.016,110.903 L285.148,110.903 L285.148,124.63 L288.212,124.63 L288.212,116.028 L294.751,124.63 L297.815,124.63 L297.815,110.903 L294.751,110.903 L294.751,119.74 Z M312.072,121.409 C311.365,121.815 310.482,122.018 309.421,122.018 C308.361,122.018 307.447,121.629 306.681,120.85 C305.916,120.071 305.533,119.033 305.533,117.737 C305.533,116.441 305.932,115.397 306.731,114.605 C307.529,113.813 308.511,113.417 309.676,113.417 C310.278,113.417 310.838,113.518 311.355,113.721 C311.872,113.924 312.439,114.294 313.054,114.83 L314.645,112.533 C313.192,111.237 311.48,110.589 309.509,110.589 C307.539,110.589 305.857,111.27 304.462,112.631 C303.068,113.993 302.371,115.691 302.371,117.727 C302.371,119.763 303.055,121.449 304.423,122.784 C305.791,124.119 307.483,124.787 309.5,124.787 C311.908,124.787 313.794,124.028 315.155,122.509 L315.155,117.639 L312.072,117.639 L312.072,121.409 Z M320.988,124.787 C321.472,124.787 321.882,124.62 322.215,124.286 C322.549,123.953 322.716,123.543 322.716,123.059 C322.716,122.575 322.549,122.165 322.215,121.832 C321.882,121.498 321.472,121.331 320.988,121.331 C320.503,121.331 320.094,121.498 319.761,121.832 C319.427,122.165 319.26,122.575 319.26,123.059 C319.26,123.543 319.427,123.953 319.761,124.286 C320.094,124.62 320.503,124.787 320.988,124.787 Z M339.035,113.279 C340.305,113.279 341.536,113.731 342.727,114.634 L344.279,112.395 C343.598,111.819 342.799,111.374 341.883,111.06 C340.966,110.746 340.05,110.589 339.134,110.589 C337.733,110.589 336.564,110.942 335.628,111.649 C334.692,112.356 334.224,113.361 334.224,114.664 C334.224,115.966 334.594,116.922 335.334,117.531 C336.073,118.14 337.242,118.634 338.839,119.013 C339.847,119.262 340.521,119.508 340.862,119.75 C341.202,119.992 341.372,120.319 341.372,120.732 C341.372,121.144 341.212,121.472 340.891,121.714 C340.57,121.956 340.128,122.077 339.566,122.077 C338.309,122.077 336.941,121.429 335.461,120.133 L333.635,122.372 C335.376,123.982 337.333,124.787 339.507,124.787 C341.012,124.787 342.227,124.404 343.15,123.638 C344.073,122.872 344.534,121.874 344.534,120.643 C344.534,119.413 344.174,118.477 343.454,117.835 C342.734,117.194 341.722,116.713 340.42,116.392 C339.117,116.071 338.286,115.793 337.926,115.557 C337.566,115.321 337.386,115.004 337.386,114.605 C337.386,114.205 337.533,113.885 337.828,113.642 C338.122,113.4 338.525,113.279 339.035,113.279 Z M349.11,124.63 L352.173,124.63 L352.173,110.903 L349.11,110.903 L349.11,124.63 Z M367.118,119.74 L360.382,110.903 L357.515,110.903 L357.515,124.63 L360.578,124.63 L360.578,116.028 L367.118,124.63 L370.181,124.63 L370.181,110.903 L367.118,110.903 L367.118,119.74 Z M379.018,120.761 C378.246,119.989 377.86,118.964 377.86,117.688 C377.86,116.411 378.269,115.397 379.087,114.644 C379.905,113.891 380.89,113.515 382.043,113.515 C383.483,113.515 384.687,114.117 385.656,115.321 L387.561,113.161 C386.042,111.446 384.157,110.589 381.905,110.589 C379.889,110.589 378.184,111.27 376.789,112.631 C375.395,113.993 374.698,115.691 374.698,117.727 C374.698,119.763 375.382,121.449 376.75,122.784 C378.118,124.119 379.859,124.787 381.974,124.787 C384.088,124.787 385.924,123.91 387.482,122.156 L385.519,120.133 C384.563,121.324 383.332,121.92 381.827,121.92 C380.727,121.92 379.791,121.534 379.018,120.761 Z M391.862,110.903 L391.862,124.63 L401.975,124.63 L401.975,121.92 L394.925,121.92 L394.925,119.072 L401.072,119.072 L401.072,116.46 L394.925,116.46 L394.925,113.633 L401.759,113.633 L401.759,110.903 L391.862,110.903 Z M412.737,113.515 L415.349,113.515 L415.349,124.63 L418.295,124.63 L418.295,110.903 L412.737,110.903 L412.737,113.515 Z M423.538,114.32 C423.538,115.367 423.95,116.277 424.775,117.05 C423.636,117.927 423.067,119.079 423.067,120.506 C423.067,121.711 423.551,122.725 424.52,123.55 C425.489,124.375 426.752,124.787 428.31,124.787 C429.868,124.787 431.131,124.375 432.1,123.55 C433.069,122.725 433.554,121.711 433.554,120.506 C433.554,119.079 432.984,117.927 431.845,117.05 C432.657,116.29 433.063,115.384 433.063,114.33 C433.063,113.276 432.611,112.389 431.708,111.669 C430.804,110.949 429.672,110.589 428.31,110.589 C426.948,110.589 425.813,110.949 424.903,111.669 C423.993,112.389 423.538,113.273 423.538,114.32 Z M426.13,120.427 C426.13,119.838 426.353,119.387 426.798,119.072 C427.243,118.758 427.747,118.601 428.31,118.601 C428.873,118.601 429.377,118.758 429.822,119.072 C430.267,119.387 430.49,119.838 430.49,120.427 C430.49,121.017 430.261,121.465 429.803,121.773 C429.344,122.08 428.847,122.234 428.31,122.234 C427.773,122.234 427.276,122.08 426.818,121.773 C426.359,121.465 426.13,121.017 426.13,120.427 Z M426.444,114.605 C426.444,114.14 426.628,113.75 426.994,113.436 C427.361,113.122 427.799,112.965 428.31,112.965 C428.821,112.965 429.259,113.122 429.626,113.436 C429.992,113.75 430.176,114.14 430.176,114.605 C430.176,115.07 429.989,115.459 429.616,115.773 C429.243,116.087 428.807,116.244 428.31,116.244 C427.812,116.244 427.377,116.087 427.004,115.773 C426.631,115.459 426.444,115.07 426.444,114.605 Z M444.826,113.534 C445.271,113.744 445.569,113.914 445.719,114.045 C445.87,114.176 445.985,114.281 446.063,114.359 L447.516,112.199 C447.136,111.898 446.79,111.649 446.476,111.453 C446.161,111.256 445.713,111.063 445.13,110.873 C444.548,110.684 443.935,110.589 443.294,110.589 C441.749,110.589 440.453,111.138 439.406,112.238 C438.869,112.788 438.447,113.538 438.139,114.487 C437.831,115.436 437.678,116.539 437.678,117.796 C437.678,119.747 438.07,121.37 438.856,122.666 C439.249,123.334 439.802,123.854 440.515,124.227 C441.229,124.601 442.07,124.787 443.039,124.787 C444.44,124.787 445.602,124.368 446.525,123.53 C447.448,122.693 447.909,121.576 447.909,120.182 C447.909,118.788 447.48,117.672 446.623,116.834 C445.765,115.996 444.695,115.577 443.412,115.577 C442.456,115.577 441.553,115.852 440.702,116.402 C440.807,115.42 441.091,114.644 441.556,114.074 C442.021,113.505 442.679,113.22 443.53,113.22 C443.949,113.22 444.381,113.325 444.826,113.534 Z M444.571,118.768 C444.924,119.167 445.101,119.658 445.101,120.241 C445.101,120.824 444.904,121.298 444.512,121.665 C444.119,122.031 443.628,122.215 443.039,122.215 C442.45,122.215 441.959,122.008 441.566,121.596 C441.173,121.184 440.977,120.689 440.977,120.113 C440.977,119.537 441.183,119.069 441.595,118.709 C442.008,118.349 442.518,118.169 443.127,118.169 C443.736,118.169 444.217,118.369 444.571,118.768 Z M455.097,121.841 C454.665,121.632 454.373,121.465 454.223,121.341 C454.072,121.216 453.951,121.115 453.859,121.036 L452.328,123.196 C452.72,123.498 453.067,123.743 453.368,123.933 C453.669,124.123 454.115,124.313 454.704,124.502 C455.293,124.692 455.908,124.787 456.55,124.787 C458.082,124.787 459.384,124.237 460.458,123.138 C460.981,122.588 461.397,121.838 461.705,120.889 C462.012,119.94 462.166,118.837 462.166,117.58 C462.166,115.629 461.78,114.006 461.008,112.71 C460.602,112.042 460.042,111.521 459.329,111.148 C458.615,110.775 457.774,110.589 456.805,110.589 C455.404,110.589 454.242,111.011 453.319,111.855 C452.396,112.7 451.935,113.816 451.935,115.204 C451.935,116.591 452.363,117.707 453.221,118.552 C454.078,119.396 455.149,119.819 456.432,119.819 C457.401,119.819 458.304,119.537 459.142,118.974 C459.037,119.956 458.752,120.732 458.288,121.301 C457.823,121.871 457.165,122.156 456.314,122.156 C455.934,122.156 455.529,122.051 455.097,121.841 Z M455.313,116.608 C454.972,116.209 454.802,115.721 454.802,115.145 C454.802,114.569 454.989,114.094 455.362,113.721 C455.735,113.348 456.216,113.161 456.805,113.161 C457.394,113.161 457.885,113.371 458.278,113.79 C458.671,114.209 458.867,114.706 458.867,115.282 C458.867,115.858 458.664,116.323 458.258,116.676 C457.852,117.03 457.345,117.207 456.736,117.207 C456.128,117.207 455.653,117.007 455.313,116.608 Z M468.058,124.787 C468.542,124.787 468.951,124.62 469.285,124.286 C469.619,123.953 469.786,123.543 469.786,123.059 C469.786,122.575 469.619,122.165 469.285,121.832 C468.951,121.498 468.542,121.331 468.058,121.331 C467.573,121.331 467.164,121.498 466.83,121.832 C466.497,122.165 466.33,122.575 466.33,123.059 C466.33,123.543 466.497,123.953 466.83,124.286 C467.164,124.62 467.573,124.787 468.058,124.787 L468.058,124.787 Z" id="Fill-8"></path>
            <polyline id="Fill-9" points="215.018 84.044 186.424 8.361 167.55 8.361 187.415 67.024 160.936 67.024 170.977 37.653 150.716 37.654 133.435 84.044 215.018 84.044"></polyline>
        </g>
    </g>
</svg>