  0
SECTION
  2
HEADER
  9
$ACADVER
  1
AC1015
  9
$ACADMAINTVER
 70
     6
  9
$DWGCODEPAGE
  3
ANSI_1252
  9
$INSBASE
 10
0.0
 20
0.0
 30
0.0
  9
$EXTMIN
 10
0.0
 20
0.0
 30
0.0
  9
$EXTMAX
 10
297.0
 20
210.0
 30
0.0
  9
$LIMMIN
 10
0.0
 20
0.0
  9
$LIMMAX
 10
297.0
 20
210.0
  9
$ORTHOMODE
 70
     0
  9
$REGENMODE
 70
     1
  9
$FILLMODE
 70
     1
  9
$QTEXTMODE
 70
     0
  9
$MIRRTEXT
 70
     1
  9
$LTSCALE
 40
1.0
  9
$ATTMODE
 70
     1
  9
$TEXTSIZE
 40
3.5
  9
$TRACEWID
 40
1.0
  9
$TEXTSTYLE
  7
Standard
  9
$CLAYER
  8
0
  9
$CELTYPE
  6
ByLayer
  9
$CECOLOR
 62
   256
  9
$CELTSCALE
 40
1.0
  9
$DISPSILH
 70
     0
  9
$DIMSCALE
 40
1.0
  9
$DIMASZ
 40
3.302
  9
$DIMEXO
 40
1.0
  9
$DIMDLI
 40
3.75
  9
$DIMRND
 40
0.0
  9
$DIMDLE
 40
0.0
  9
$DIMEXE
 40
1.0
  9
$DIMTP
 40
0.0
  9
$DIMTM
 40
0.0
  9
$DIMTXT
 40
3.5
  9
$DIMCEN
 40
2.5
  9
$DIMTSZ
 40
0.0
  9
$DIMTOL
 70
     0
  9
$DIMLIM
 70
     0
  9
$DIMTIH
 70
     1
  9
$DIMTOH
 70
     1
  9
$DIMSE1
 70
     0
  9
$DIMSE2
 70
     0
  9
$DIMTAD
 70
     1
  9
$DIMZIN
 70
     0
  9
$DIMBLK
  1

  9
$DIMASO
 70
     1
  9
$DIMSHO
 70
     1
  9
$DIMPOST
  1

  9
$DIMAPOST
  1

  9
$DIMALT
 70
     0
  9
$DIMALTD
 70
     3
  9
$DIMALTF
 40
0.0393700787
  9
$DIMLFAC
 40
1.0
  9
$DIMTOFL
 70
     1
  9
$DIMTVP
 40
0.0
  9
$DIMTIX
 70
     0
  9
$DIMSOXD
 70
     0
  9
$DIMSAH
 70
     0
  9
$DIMBLK1
  1

  9
$DIMBLK2
  1

  9
$DIMSTYLE
  2
ISO-25
  9
$DIMCLRD
 70
     0
  9
$DIMCLRE
 70
     0
  9
$DIMCLRT
 70
     0
  9
$DIMTFAC
 40
1.0
  9
$DIMGAP
 40
1.524
  9
$DIMJUST
 70
     0
  9
$DIMSD1
 70
     0
  9
$DIMSD2
 70
     0
  9
$DIMTOLJ
 70
     0
  9
$DIMTZIN
 70
     0
  9
$DIMALTZ
 70
     0
  9
$DIMALTTZ
 70
     0
  9
$DIMUPT
 70
     0
  9
$DIMDEC
 70
     2
  9
$DIMTDEC
 70
     2
  9
$DIMALTU
 70
     2
  9
$DIMALTTD
 70
     3
  9
$DIMTXSTY
  7
Standard
  9
$DIMAUNIT
 70
     0
  9
$DIMADEC
 70
     2
  9
$DIMALTRND
 40
0.0
  9
$DIMAZIN
 70
     0
  9
$DIMDSEP
 70
    44
  9
$DIMATFIT
 70
     3
  9
$DIMFRAC
 70
     0
  9
$DIMLDRBLK
  1

  9
$DIMLUNIT
 70
     2
  9
$DIMLWD
 70
    -2
  9
$DIMLWE
 70
    -2
  9
$DIMTMOVE
 70
     0
  9
$LUNITS
 70
     2
  9
$LUPREC
 70
     2
  9
$SKETCHINC
 40
1.0
  9
$FILLETRAD
 40
10.0
  9
$AUNITS
 70
     0
  9
$AUPREC
 70
     2
  9
$MENU
  1
.
  9
$ELEVATION
 40
0.0
  9
$PELEVATION
 40
0.0
  9
$THICKNESS
 40
0.0
  9
$LIMCHECK
 70
     0
  9
$CHAMFERA
 40
0.0
  9
$CHAMFERB
 40
0.0
  9
$CHAMFERC
 40
0.0
  9
$CHAMFERD
 40
0.0
  9
$SKPOLY
 70
     0
  9
$TDCREATE
 40
2457497.564205567
  9
$TDUCREATE
 40
2457497.480872234
  9
$TDUPDATE
 40
2457497.564208102
  9
$TDUUPDATE
 40
2457497.480874768
  9
$TDINDWG
 40
0.0000000116
  9
$TDUSRTIMER
 40
0.0000000116
  9
$USRTIMER
 70
     1
  9
$ANGBASE
 50
0.0
  9
$ANGDIR
 70
     0
  9
$PDMODE
 70
     0
  9
$PDSIZE
 40
-1.0
  9
$PLINEWID
 40
0.0
  9
$SPLFRAME
 70
     0
  9
$SPLINETYPE
 70
     6
  9
$SPLINESEGS
 70
     8
  9
$HANDSEED
  5
2D7
  9
$SURFTAB1
 70
     6
  9
$SURFTAB2
 70
     6
  9
$SURFTYPE
 70
     6
  9
$SURFU
 70
     6
  9
$SURFV
 70
     6
  9
$UCSBASE
  2

  9
$UCSNAME
  2

  9
$UCSORG
 10
0.0
 20
0.0
 30
0.0
  9
$UCSXDIR
 10
1.0
 20
0.0
 30
0.0
  9
$UCSYDIR
 10
0.0
 20
1.0
 30
0.0
  9
$UCSORTHOREF
  2

  9
$UCSORTHOVIEW
 70
     0
  9
$UCSORGTOP
 10
0.0
 20
0.0
 30
0.0
  9
$UCSORGBOTTOM
 10
0.0
 20
0.0
 30
0.0
  9
$UCSORGLEFT
 10
0.0
 20
0.0
 30
0.0
  9
$UCSORGRIGHT
 10
0.0
 20
0.0
 30
0.0
  9
$UCSORGFRONT
 10
0.0
 20
0.0
 30
0.0
  9
$UCSORGBACK
 10
0.0
 20
0.0
 30
0.0
  9
$PUCSBASE
  2

  9
$PUCSNAME
  2

  9
$PUCSORG
 10
0.0
 20
0.0
 30
0.0
  9
$PUCSXDIR
 10
1.0
 20
0.0
 30
0.0
  9
$PUCSYDIR
 10
0.0
 20
1.0
 30
0.0
  9
$PUCSORTHOREF
  2

  9
$PUCSORTHOVIEW
 70
     0
  9
$PUCSORGTOP
 10
0.0
 20
0.0
 30
0.0
  9
$PUCSORGBOTTOM
 10
0.0
 20
0.0
 30
0.0
  9
$PUCSORGLEFT
 10
0.0
 20
0.0
 30
0.0
  9
$PUCSORGRIGHT
 10
0.0
 20
0.0
 30
0.0
  9
$PUCSORGFRONT
 10
0.0
 20
0.0
 30
0.0
  9
$PUCSORGBACK
 10
0.0
 20
0.0
 30
0.0
  9
$USERI1
 70
     0
  9
$USERI2
 70
     0
  9
$USERI3
 70
     0
  9
$USERI4
 70
     0
  9
$USERI5
 70
     0
  9
$USERR1
 40
0.0
  9
$USERR2
 40
0.0
  9
$USERR3
 40
0.0
  9
$USERR4
 40
0.0
  9
$USERR5
 40
0.0
  9
$WORLDVIEW
 70
     1
  9
$SHADEDGE
 70
     3
  9
$SHADEDIF
 70
    70
  9
$TILEMODE
 70
     1
  9
$MAXACTVP
 70
    64
  9
$PINSBASE
 10
0.0
 20
0.0
 30
0.0
  9
$PLIMCHECK
 70
     0
  9
$PEXTMIN
 10
1.0000000000E+20
 20
1.0000000000E+20
 30
1.0000000000E+20
  9
$PEXTMAX
 10
-1.0000000000E+20
 20
-1.0000000000E+20
 30
-1.0000000000E+20
  9
$PLIMMIN
 10
0.0
 20
0.0
  9
$PLIMMAX
 10
420.0
 20
297.0
  9
$UNITMODE
 70
     0
  9
$VISRETAIN
 70
     1
  9
$PLINEGEN
 70
     0
  9
$PSLTSCALE
 70
     1
  9
$TREEDEPTH
 70
  3020
  9
$CMLSTYLE
  2
Standard
  9
$CMLJUST
 70
     0
  9
$CMLSCALE
 40
20.0
  9
$PROXYGRAPHICS
 70
     1
  9
$MEASUREMENT
 70
     1
  9
$CELWEIGHT
370
    -1
  9
$ENDCAPS
280
     0
  9
$JOINSTYLE
280
     0
  9
$LWDISPLAY
290
     1
  9
$INSUNITS
 70
     4
  9
$HYPERLINKBASE
  1

  9
$STYLESHEET
  1

  9
$XEDIT
290
     1
  9
$CEPSNTYPE
380
     0
  9
$PSTYLEMODE
290
     1
  9
$FINGERPRINTGUID
  2
{D821E1BB-A522-4E39-BF6E-65B6681BEBC6}
  9
$VERSIONGUID
  2
{FAEB1C32-E019-11D5-929B-00C0DF256EC4}
  9
$EXTNAMES
290
     1
  9
$PSVPSCALE
 40
0.0
  9
$OLESTARTUP
290
     0
  0
ENDSEC
  0
SECTION
  2
CLASSES
  0
CLASS
  1
ACDBDICTIONARYWDFLT
  2
AcDbDictionaryWithDefault
  3
ObjectDBX Classes
 90
        0
280
     0
281
     0
  0
CLASS
  1
VISUALSTYLE
  2
AcDbVisualStyle
  3
ObjectDBX Classes
 90
     4095
280
     0
281
     0
  0
CLASS
  1
MATERIAL
  2
AcDbMaterial
  3
ObjectDBX Classes
 90
     1153
280
     0
281
     0
  0
CLASS
  1
SCALE
  2
AcDbScale
  3
ObjectDBX Classes
 90
     1153
280
     0
281
     0
  0
CLASS
  1
SUN
  2
AcDbSun
  3
SCENEOE
 90
     1153
280
     0
281
     0
  0
CLASS
  1
ACDBPLACEHOLDER
  2
AcDbPlaceHolder
  3
ObjectDBX Classes
 90
        0
280
     0
281
     0
  0
CLASS
  1
LAYOUT
  2
AcDbLayout
  3
ObjectDBX Classes
 90
        0
280
     0
281
     0
  0
ENDSEC
  0
SECTION
  2
TABLES
  0
TABLE
  2
VPORT
  5
8
330
0
100
AcDbSymbolTable
 70
     1
  0
VPORT
  5
29
330
8
100
AcDbSymbolTableRecord
100
AcDbViewportTableRecord
  2
*Active
 70
     0
 10
0.0
 20
0.0
 11
1.0
 21
1.0
 12
148.5
 22
105.0
 13
0.0
 23
0.0
 14
10.0
 24
10.0
 15
10.0
 25
10.0
 16
0.0
 26
0.0
 36
1.0
 17
0.0
 27
0.0
 37
0.0
 40
210.0
 41
1.4142857143
 42
50.0
 43
0.0
 44
0.0
 50
0.0
 51
0.0
 71
     0
 72
  2000
 73
     1
 74
     3
 75
     0
 76
     0
 77
     0
 78
     0
281
     0
 65
     1
110
0.0
120
0.0
130
0.0
111
1.0
121
0.0
131
0.0
112
0.0
122
1.0
132
0.0
 79
     0
146
0.0
  0
ENDTAB
  0
TABLE
  2
LTYPE
  5
5
330
0
100
AcDbSymbolTable
 70
     6
  0
LTYPE
  5
14
330
5
100
AcDbSymbolTableRecord
100
AcDbLinetypeTableRecord
  2
ByBlock
 70
     0
  3

 72
    65
 73
     0
 40
0.0
  0
LTYPE
  5
15
330
5
100
AcDbSymbolTableRecord
100
AcDbLinetypeTableRecord
  2
ByLayer
 70
     0
  3

 72
    65
 73
     0
 40
0.0
  0
LTYPE
  5
16
330
5
100
AcDbSymbolTableRecord
100
AcDbLinetypeTableRecord
  2
Continuous
 70
     0
  3
Solid line
 72
    65
 73
     0
 40
0.0
  0
LTYPE
  5
6A
330
5
100
AcDbSymbolTableRecord
100
AcDbLinetypeTableRecord
  2
HIDDEN
 70
     0
  3
Hidden __ __ __ __ __ __ __ __ __ __ __ __ __ __
 72
    65
 73
     2
 40
1.905
 49
1.27
 74
     0
 49
-0.635
 74
     0
  0
LTYPE
  5
6B
330
5
100
AcDbSymbolTableRecord
100
AcDbLinetypeTableRecord
  2
PHANTOM
 70
     0
  3
Phantom ______  __  __  ______  __  __  ______
 72
    65
 73
     6
 40
12.7
 49
6.35
 74
     0
 49
-1.27
 74
     0
 49
1.27
 74
     0
 49
-1.27
 74
     0
 49
1.27
 74
     0
 49
-1.27
 74
     0
  0
LTYPE
  5
6C
330
5
100
AcDbSymbolTableRecord
100
AcDbLinetypeTableRecord
  2
CENTER
 70
     0
  3
Center ____ _ ____ _ ____ _ ____ _ ____ _ ____
 72
    65
 73
     4
 40
10.16
 49
6.35
 74
     0
 49
-1.27
 74
     0
 49
1.27
 74
     0
 49
-1.27
 74
     0
  0
LTYPE
  5
6D
330
5
100
AcDbSymbolTableRecord
100
AcDbLinetypeTableRecord
  2
CENTERX2
 70
     0
  3
Center (2x) ________  __  ________  __  _____
 72
    65
 73
     4
 40
20.32
 49
12.7
 74
     0
 49
-2.54
 74
     0
 49
2.54
 74
     0
 49
-2.54
 74
     0
  0
LTYPE
  5
6E
330
5
100
AcDbSymbolTableRecord
100
AcDbLinetypeTableRecord
  2
DOT2
 70
     0
  3
Dot (.5x) ........................................
 72
    65
 73
     2
 40
0.635
 49
0.0
 74
     0
 49
-0.635
 74
     0
  0
ENDTAB
  0
TABLE
  2
LAYER
  5
2
330
0
100
AcDbSymbolTable
 70
     5
  0
LAYER
  5
10
330
2
100
AcDbSymbolTableRecord
100
AcDbLayerTableRecord
  2
0
 70
     0
 62
     7
  6
Continuous
370
    -3
390
F
  0
LAYER
  5
6F
330
2
100
AcDbSymbolTableRecord
100
AcDbLayerTableRecord
  2
FORMAT
 70
     0
 62
     7
  6
Continuous
370
    -3
390
F
  0
LAYER
  5
70
330
2
100
AcDbSymbolTableRecord
100
AcDbLayerTableRecord
  2
TEXT
 70
     0
 62
   174
  6
Continuous
370
    -3
390
F
  0
LAYER
  5
71
330
2
100
AcDbSymbolTableRecord
100
AcDbLayerTableRecord
  2
GRAVUR
 70
     0
 62
     6
  6
Continuous
370
    -3
390
F
  0
LAYER
  5
72
330
2
100
AcDbSymbolTableRecord
100
AcDbLayerTableRecord
  2
SP_SPERRLAYER
 70
     0
 62
    -7
  6
Continuous
370
    30
390
F
  0
ENDTAB
  0
TABLE
  2
STYLE
  5
3
330
0
100
AcDbSymbolTable
 70
     3
  0
STYLE
  5
11
330
3
100
AcDbSymbolTableRecord
100
AcDbTextStyleTableRecord
  2
Standard
 70
     0
 40
0.0
 41
1.0
 50
0.0
 71
     0
 42
3.5
  3
txt
  4

  0
STYLE
  5
81
330
3
100
AcDbSymbolTableRecord
100
AcDbTextStyleTableRecord
  2
SLDTEXTSTYLE0
 70
     0
 40
0.0
 41
0.96
 50
0.0
 71
     0
 42
3.5
  3
ISOCP
  4

  0
STYLE
  5
22C
330
3
100
AcDbSymbolTableRecord
100
AcDbTextStyleTableRecord
  2
SLDTEXTSTYLE1
 70
     0
 40
0.0
 41
0.75
 50
0.0
 71
     0
 42
3.5
  3
TXT
  4

  0
ENDTAB
  0
TABLE
  2
VIEW
  5
6
330
0
100
AcDbSymbolTable
 70
     0
  0
ENDTAB
  0
TABLE
  2
UCS
  5
7
330
0
100
AcDbSymbolTable
 70
     0
  0
ENDTAB
  0
TABLE
  2
APPID
  5
9
330
0
100
AcDbSymbolTable
 70
     1
  0
APPID
  5
12
330
9
100
AcDbSymbolTableRecord
100
AcDbRegAppTableRecord
  2
ACAD
 70
     0
  0
ENDTAB
  0
TABLE
  2
DIMSTYLE
  5
A
330
0
100
AcDbSymbolTable
 70
     5
100
AcDbDimStyleTable
  0
DIMSTYLE
105
27
330
A
100
AcDbSymbolTableRecord
100
AcDbDimStyleTableRecord
  2
ISO-25
 70
     0
 41
2.5
 42
0.625
 43
3.75
 44
1.25
 73
     0
 74
     0
 77
     1
 78
     8
140
2.5
141
2.5
143
0.0393700787
147
0.625
171
     3
172
     1
178
     0
271
     2
272
     2
274
     3
278
    44
283
     0
284
     8
340
11
  0
DIMSTYLE
105
25C
102
{ACAD_REACTORS
330
25B
330
27F
330
289
330
293
330
29D
102
}
330
A
100
AcDbSymbolTableRecord
100
AcDbDimStyleTableRecord
  2
SLDDIMSTYLE0
 70
     0
 41
3.302
 44
0.0
 45
0.000000001
 73
     0
 74
     0
 77
     1
 78
    12
 79
     3
140
3.5
147
0.875
173
     1
178
     0
271
     2
272
     2
276
     2
284
    12
340
81
  0
DIMSTYLE
105
267
102
{ACAD_REACTORS
330
266
330
273
330
2CB
102
}
330
A
100
AcDbSymbolTableRecord
100
AcDbDimStyleTableRecord
  2
SLDDIMSTYLE1
 70
     0
 41
3.302
 44
0.0
 45
0.000000001
 73
     0
 74
     0
 77
     1
 78
    12
 79
     3
140
3.5
147
0.875
172
     1
173
     1
178
     0
271
     2
272
     2
276
     2
284
    12
289
     0
340
81
  0
DIMSTYLE
105
2A8
102
{ACAD_REACTORS
330
2A7
102
}
330
A
100
AcDbSymbolTableRecord
100
AcDbDimStyleTableRecord
  2
SLDDIMSTYLE2
 70
     0
 41
3.302
 44
0.0
 45
0.000000001
 73
     0
 74
     0
 77
     1
 78
    12
 79
     3
140
3.5
141
0.0
147
0.875
173
     1
178
     0
271
     2
272
     2
276
     2
279
     1
284
    12
340
81
  0
DIMSTYLE
105
2B0
102
{ACAD_REACTORS
330
2AF
102
}
330
A
100
AcDbSymbolTableRecord
100
AcDbDimStyleTableRecord
  2
SLDDIMSTYLE3
 70
     0
 41
3.302
 44
0.0
 45
0.000000001
 73
     0
 74
     0
 77
     1
 78
    12
 79
     3
140
3.5
141
0.0
147
0.875
173
     1
178
     0
271
     2
272
     2
276
     2
284
    12
340
81
  0
ENDTAB
  0
TABLE
  2
BLOCK_RECORD
  5
1
330
0
100
AcDbSymbolTable
 70
    34
  0
BLOCK_RECORD
  5
1F
330
1
100
AcDbSymbolTableRecord
100
AcDbBlockTableRecord
  2
*Model_Space
340
22
  0
BLOCK_RECORD
  5
1B
330
1
100
AcDbSymbolTableRecord
100
AcDbBlockTableRecord
  2
*Paper_Space
340
1E
  0
BLOCK_RECORD
  5
23
330
1
100
AcDbSymbolTableRecord
100
AcDbBlockTableRecord
  2
*Paper_Space0
340
26
  0
BLOCK_RECORD
  5
73
330
1
100
AcDbSymbolTableRecord
100
AcDbBlockTableRecord
  2
Block_RevTable
340
0
102
{BLKREFS
331
215
102
}
  0
BLOCK_RECORD
  5
7E
330
1
100
AcDbSymbolTableRecord
100
AcDbBlockTableRecord
  2
SW_NOTE_0
340
0
102
{BLKREFS
331
84
102
}
  0
BLOCK_RECORD
  5
85
330
1
100
AcDbSymbolTableRecord
100
AcDbBlockTableRecord
  2
SW_NOTE_1
340
0
102
{BLKREFS
331
8A
102
}
  0
BLOCK_RECORD
  5
8B
330
1
100
AcDbSymbolTableRecord
100
AcDbBlockTableRecord
  2
SW_NOTE_2
340
0
102
{BLKREFS
331
90
102
}
  0
BLOCK_RECORD
  5
91
330
1
100
AcDbSymbolTableRecord
100
AcDbBlockTableRecord
  2
SW_NOTE_3
340
0
102
{BLKREFS
331
96
102
}
  0
BLOCK_RECORD
  5
AC
330
1
100
AcDbSymbolTableRecord
100
AcDbBlockTableRecord
  2
SP_SF_V00
340
0
102
{BLKREFS
331
1F9
102
}
  0
BLOCK_RECORD
  5
157
330
1
100
AcDbSymbolTableRecord
100
AcDbBlockTableRecord
  2
SW_NOTE_4
340
0
102
{BLKREFS
331
15C
102
}
  0
BLOCK_RECORD
  5
15D
330
1
100
AcDbSymbolTableRecord
100
AcDbBlockTableRecord
  2
SW_NOTE_5
340
0
102
{BLKREFS
331
162
102
}
  0
BLOCK_RECORD
  5
164
330
1
100
AcDbSymbolTableRecord
100
AcDbBlockTableRecord
  2
SW_NOTE_6
340
0
102
{BLKREFS
331
169
102
}
  0
BLOCK_RECORD
  5
16A
330
1
100
AcDbSymbolTableRecord
100
AcDbBlockTableRecord
  2
SW_NOTE_7
340
0
102
{BLKREFS
331
16F
102
}
  0
BLOCK_RECORD
  5
171
330
1
100
AcDbSymbolTableRecord
100
AcDbBlockTableRecord
  2
SW_NOTE_8
340
0
102
{BLKREFS
331
176
102
}
  0
BLOCK_RECORD
  5
177
330
1
100
AcDbSymbolTableRecord
100
AcDbBlockTableRecord
  2
SW_NOTE_9
340
0
102
{BLKREFS
331
17C
102
}
  0
BLOCK_RECORD
  5
17D
330
1
100
AcDbSymbolTableRecord
100
AcDbBlockTableRecord
  2
SW_NOTE_10
340
0
102
{BLKREFS
331
186
102
}
  0
BLOCK_RECORD
  5
187
330
1
100
AcDbSymbolTableRecord
100
AcDbBlockTableRecord
  2
SW_NOTE_11
340
0
102
{BLKREFS
331
18C
102
}
  0
BLOCK_RECORD
  5
18E
330
1
100
AcDbSymbolTableRecord
100
AcDbBlockTableRecord
  2
SW_NOTE_12
340
0
102
{BLKREFS
331
193
102
}
  0
BLOCK_RECORD
  5
194
330
1
100
AcDbSymbolTableRecord
100
AcDbBlockTableRecord
  2
SW_NOTE_13
340
0
102
{BLKREFS
331
199
102
}
  0
BLOCK_RECORD
  5
1A3
330
1
100
AcDbSymbolTableRecord
100
AcDbBlockTableRecord
  2
SW_NOTE_14
340
0
102
{BLKREFS
331
1A8
102
}
  0
BLOCK_RECORD
  5
1A9
330
1
100
AcDbSymbolTableRecord
100
AcDbBlockTableRecord
  2
SW_NOTE_15
340
0
102
{BLKREFS
331
1AE
102
}
  0
BLOCK_RECORD
  5
1AF
330
1
100
AcDbSymbolTableRecord
100
AcDbBlockTableRecord
  2
SW_NOTE_16
340
0
102
{BLKREFS
331
1B4
102
}
  0
BLOCK_RECORD
  5
1B5
330
1
100
AcDbSymbolTableRecord
100
AcDbBlockTableRecord
  2
SW_NOTE_17
340
0
102
{BLKREFS
331
1BA
102
}
  0
BLOCK_RECORD
  5
1BB
330
1
100
AcDbSymbolTableRecord
100
AcDbBlockTableRecord
  2
SW_NOTE_18
340
0
102
{BLKREFS
331
1C0
102
}
  0
BLOCK_RECORD
  5
1C1
330
1
100
AcDbSymbolTableRecord
100
AcDbBlockTableRecord
  2
SW_NOTE_19
340
0
102
{BLKREFS
331
1C6
102
}
  0
BLOCK_RECORD
  5
241
330
1
100
AcDbSymbolTableRecord
100
AcDbBlockTableRecord
  2
SW_NOTE_20
340
0
102
{BLKREFS
331
246
102
}
  0
BLOCK_RECORD
  5
25D
330
1
100
AcDbSymbolTableRecord
100
AcDbBlockTableRecord
  2
_D
340
0
  0
BLOCK_RECORD
  5
268
330
1
100
AcDbSymbolTableRecord
100
AcDbBlockTableRecord
  2
_D_1
340
0
  0
BLOCK_RECORD
  5
274
330
1
100
AcDbSymbolTableRecord
100
AcDbBlockTableRecord
  2
_D_2
340
0
  0
BLOCK_RECORD
  5
280
330
1
100
AcDbSymbolTableRecord
100
AcDbBlockTableRecord
  2
_D_3
340
0
  0
BLOCK_RECORD
  5
28A
330
1
100
AcDbSymbolTableRecord
100
AcDbBlockTableRecord
  2
_D_4
340
0
  0
BLOCK_RECORD
  5
294
330
1
100
AcDbSymbolTableRecord
100
AcDbBlockTableRecord
  2
_D_5
340
0
  0
BLOCK_RECORD
  5
29E
330
1
100
AcDbSymbolTableRecord
100
AcDbBlockTableRecord
  2
_D_6
340
0
  0
BLOCK_RECORD
  5
2A9
330
1
100
AcDbSymbolTableRecord
100
AcDbBlockTableRecord
  2
_D_7
340
0
  0
BLOCK_RECORD
  5
2B1
330
1
100
AcDbSymbolTableRecord
100
AcDbBlockTableRecord
  2
_D_8
340
0
  0
BLOCK_RECORD
  5
2CC
330
1
100
AcDbSymbolTableRecord
100
AcDbBlockTableRecord
  2
_D_9
340
0
  0
ENDTAB
  0
ENDSEC
  0
SECTION
  2
BLOCKS
  0
BLOCK
  5
20
330
1F
100
AcDbEntity
  8
0
100
AcDbBlockBegin
  2
*Model_Space
 70
     0
 10
0.0
 20
0.0
 30
0.0
  3
*Model_Space
  1
*Model_Space
  0
ENDBLK
  5
21
330
1F
100
AcDbEntity
  8
0
100
AcDbBlockEnd
  0
BLOCK
  5
1C
330
1B
100
AcDbEntity
 67
     1
  8
0
100
AcDbBlockBegin
  2
*Paper_Space
 70
     0
 10
0.0
 20
0.0
 30
0.0
  3
*Paper_Space
  1
*Paper_Space
  0
ENDBLK
  5
1D
330
1B
100
AcDbEntity
 67
     1
  8
0
100
AcDbBlockEnd
  0
BLOCK
  5
24
330
23
100
AcDbEntity
  8
0
100
AcDbBlockBegin
  2
*Paper_Space0
 70
     0
 10
0.0
 20
0.0
 30
0.0
  3
*Paper_Space0
  1
*Paper_Space0
  0
ENDBLK
  5
25
330
23
100
AcDbEntity
  8
0
100
AcDbBlockEnd
  0
BLOCK
  5
74
330
73
100
AcDbEntity
  8
0
100
AcDbBlockBegin
  2
Block_RevTable
 70
     2
 10
0.0
 20
0.0
 30
0.0
  3
Block_RevTable
  1
Block_RevTable
  0
LINE
  5
76
330
73
100
AcDbEntity
  8
FORMAT
370
     0
100
AcDbLine
 10
1025.9433581803
 20
826.0117076881
 30
0.0
 11
1178.9564546194
 21
826.0117076881
 31
0.0
  0
LINE
  5
77
330
73
100
AcDbEntity
  8
FORMAT
370
     0
100
AcDbLine
 10
1118.0126593279
 20
830.6420825615
 30
0.0
 11
1118.0126593279
 21
812.2442619502
 31
0.0
  0
LINE
  5
78
330
73
100
AcDbEntity
  8
FORMAT
370
     0
100
AcDbLine
 10
1025.9433581803
 20
821.5578293135
 30
0.0
 11
1178.9564546194
 21
821.5578293135
 31
0.0
  0
LINE
  5
79
330
73
100
AcDbEntity
  8
FORMAT
370
     0
100
AcDbLine
 10
1025.9433581803
 20
816.913887058
 30
0.0
 11
1178.9564546194
 21
816.913887058
 31
0.0
  0
LINE
  5
7A
330
73
100
AcDbEntity
  8
FORMAT
370
    30
100
AcDbLine
 10
1025.9433581803
 20
830.8713966768
 30
0.0
 11
1025.9433581803
 21
812.2442619502
 31
0.0
  0
LINE
  5
7B
330
73
100
AcDbEntity
  8
FORMAT
370
    30
100
AcDbLine
 10
1025.9433581803
 20
812.2442619502
 30
0.0
 11
1179.0161042353
 21
812.2442619502
 31
0.0
  0
LINE
  5
7C
330
73
100
AcDbEntity
  8
FORMAT
370
     0
100
AcDbLine
 10
1040.5207618124
 20
830.8713966768
 30
0.0
 11
1040.5207618124
 21
812.2940858374
 31
0.0
  0
LINE
  5
7D
330
73
100
AcDbEntity
  8
FORMAT
370
     0
100
AcDbLine
 10
1145.6815644788
 20
830.8713966768
 30
0.0
 11
1145.6815644788
 21
812.2442619502
 31
0.0
  0
INSERT
  5
84
330
73
100
AcDbEntity
  8
FORMAT
 62
     7
100
AcDbBlockReference
  2
SW_NOTE_0
 10
1029.8959231237
 20
828.3450132174
 30
0.0
  0
INSERT
  5
8A
330
73
100
AcDbEntity
  8
FORMAT
 62
     7
100
AcDbBlockReference
  2
SW_NOTE_1
 10
1128.1604643349
 20
828.2023231679
 30
0.0
  0
INSERT
  5
90
330
73
100
AcDbEntity
  8
FORMAT
 62
     7
100
AcDbBlockReference
  2
SW_NOTE_2
 10
1042.8841724964
 20
828.3450132174
 30
0.0
  0
INSERT
  5
96
330
73
100
AcDbEntity
  8
FORMAT
 62
     7
100
AcDbBlockReference
  2
SW_NOTE_3
 10
1148.671364536
 20
828.2023231679
 30
0.0
  0
ATTDEF
  5
97
330
73
100
AcDbEntity
  8
TEXT
 62
   174
100
AcDbText
 10
1148.671364536
 20
814.3675395126
 30
0.0
 40
2.5
  1
Tetiet
 41
0.96
  7
SLDTEXTSTYLE0
 11
1148.671364536
 21
812.7078421686
 31
0.0
100
AcDbAttributeDefinition
  3

  2
AUTOATTR12
 70
     0
 74
     1
  0
ATTDEF
  5
98
330
73
100
AcDbEntity
  8
TEXT
 62
   174
100
AcDbText
 10
1148.671364536
 20
818.8686921726
 30
0.0
 40
2.5
  1
Tetiet
 41
0.96
  7
SLDTEXTSTYLE0
 11
1148.671364536
 21
817.2089948286
 31
0.0
100
AcDbAttributeDefinition
  3

  2
AUTOATTR11
 70
     0
 74
     1
  0
ATTDEF
  5
99
330
73
100
AcDbEntity
  8
TEXT
 62
   174
100
AcDbText
 10
1148.671364536
 20
823.5920062414
 30
0.0
 40
2.5
  1
Tetiet
 41
0.96
  7
SLDTEXTSTYLE0
 11
1148.671364536
 21
821.9323088973
 31
0.0
100
AcDbAttributeDefinition
  3

  2
AUTOATTR10
 70
     0
 74
     1
  0
ATTDEF
  5
9A
330
73
100
AcDbEntity
  8
TEXT
 62
   174
100
AcDbText
 10
1124.2095185094
 20
814.3675395126
 30
0.0
 40
2.5
  1
14.04.2016
 41
0.96
  7
SLDTEXTSTYLE0
 11
1124.2095185094
 21
812.7078421686
 31
0.0
100
AcDbAttributeDefinition
  3

  2
AUTOATTR9
 70
     0
 74
     1
  0
ATTDEF
  5
9B
330
73
100
AcDbEntity
  8
TEXT
 62
   174
100
AcDbText
 10
1124.2095185094
 20
818.8686921726
 30
0.0
 40
2.5
  1
18.04.2016
 41
0.96
  7
SLDTEXTSTYLE0
 11
1124.2095185094
 21
817.2089948286
 31
0.0
100
AcDbAttributeDefinition
  3

  2
AUTOATTR8
 70
     0
 74
     1
  0
ATTDEF
  5
9C
330
73
100
AcDbEntity
  8
TEXT
 62
   174
100
AcDbText
 10
1124.2095185094
 20
823.5920062414
 30
0.0
 40
2.5
  1
18.04.2016
 41
0.96
  7
SLDTEXTSTYLE0
 11
1124.2095185094
 21
821.9323088973
 31
0.0
100
AcDbAttributeDefinition
  3

  2
AUTOATTR7
 70
     0
 74
     1
  0
ATTDEF
  5
9D
330
73
100
AcDbEntity
  8
TEXT
 62
   174
100
AcDbText
 10
1042.6786422984
 20
823.5719901731
 30
0.0
 40
2.5
  1
Freigabe nach Dü
 41
0.96
  7
SLDTEXTSTYLE0
 11
1042.6786422984
 21
821.9122928291
 31
0.0
100
AcDbAttributeDefinition
  3

  2
AUTOATTR6
 70
     0
 74
     1
  0
ATTDEF
  5
9E
330
73
100
AcDbEntity
  8
TEXT
 62
   174
100
AcDbText
 10
1042.8841724964
 20
814.2314566558
 30
0.0
 40
2.5
  1
dxf überarbeitet
 41
0.96
  7
SLDTEXTSTYLE0
 11
1042.8841724964
 21
812.5717593117
 31
0.0
100
AcDbAttributeDefinition
  3

  2
AUTOATTR5
 70
     0
 74
     1
  0
ATTDEF
  5
9F
330
73
100
AcDbEntity
  8
TEXT
 62
   174
100
AcDbText
 10
1029.8959231237
 20
823.5719901731
 30
0.0
 40
2.5
  1
014
 41
0.96
  7
SLDTEXTSTYLE0
 11
1029.8959231237
 21
821.9122928291
 31
0.0
100
AcDbAttributeDefinition
  3

  2
AUTOATTR1
 70
     0
 74
     1
  0
ATTDEF
  5
A0
330
73
100
AcDbEntity
  8
TEXT
 62
   174
100
AcDbText
 10
1030.0294558957
 20
814.2314566558
 30
0.0
 40
2.5
  1
012
 41
0.96
  7
SLDTEXTSTYLE0
 11
1030.0294558957
 21
812.5717593117
 31
0.0
100
AcDbAttributeDefinition
  3

  2
AUTOATTR2
 70
     0
 74
     1
  0
ATTDEF
  5
A1
330
73
100
AcDbEntity
  8
TEXT
 62
   174
100
AcDbText
 10
1042.8841724964
 20
818.6863199593
 30
0.0
 40
2.5
  1
Freigabe nach Dü
 41
0.96
  7
SLDTEXTSTYLE0
 11
1042.8841724964
 21
817.0266226153
 31
0.0
100
AcDbAttributeDefinition
  3

  2
AUTOATTR4
 70
     0
 74
     1
  0
ATTDEF
  5
A2
330
73
100
AcDbEntity
  8
TEXT
 62
   174
100
AcDbText
 10
1030.0294558957
 20
818.6863199593
 30
0.0
 40
2.5
  1
013
 41
0.96
  7
SLDTEXTSTYLE0
 11
1030.0294558957
 21
817.0266226153
 31
0.0
100
AcDbAttributeDefinition
  3

  2
AUTOATTR3
 70
     0
 74
     1
  0
ATTDEF
  5
A3
330
73
100
AcDbEntity
  8
TEXT
 62
   174
100
AcDbText
 10
0.0
 20
0.0
 30
0.0
 40
1.0
  1

100
AcDbAttributeDefinition
  3

  2
AUTOATTR0
 70
     0
  0
ATTDEF
  5
A4
330
73
100
AcDbEntity
  8
TEXT
 62
   174
100
AcDbText
 10
0.0
 20
0.0
 30
0.0
 40
1.0
  1

100
AcDbAttributeDefinition
  3

  2
AUTOATTR13
 70
     0
  0
ATTDEF
  5
A5
330
73
100
AcDbEntity
  8
TEXT
 62
   174
100
AcDbText
 10
0.0
 20
0.0
 30
0.0
 40
1.0
  1

100
AcDbAttributeDefinition
  3

  2
AUTOATTR14
 70
     0
  0
ATTDEF
  5
A6
330
73
100
AcDbEntity
  8
TEXT
 62
   174
100
AcDbText
 10
0.0
 20
0.0
 30
0.0
 40
1.0
  1

100
AcDbAttributeDefinition
  3

  2
AUTOATTR15
 70
     0
  0
ATTDEF
  5
A7
330
73
100
AcDbEntity
  8
TEXT
 62
   174
100
AcDbText
 10
0.0
 20
0.0
 30
0.0
 40
1.0
  1

100
AcDbAttributeDefinition
  3

  2
AUTOATTR16
 70
     0
  0
ATTDEF
  5
A8
330
73
100
AcDbEntity
  8
TEXT
 62
   174
100
AcDbText
 10
0.0
 20
0.0
 30
0.0
 40
1.0
  1

100
AcDbAttributeDefinition
  3

  2
AUTOATTR17
 70
     0
  0
ATTDEF
  5
A9
330
73
100
AcDbEntity
  8
TEXT
 62
   174
100
AcDbText
 10
0.0
 20
0.0
 30
0.0
 40
1.0
  1

100
AcDbAttributeDefinition
  3

  2
AUTOATTR18
 70
     0
  0
ATTDEF
  5
AA
330
73
100
AcDbEntity
  8
TEXT
 62
   174
100
AcDbText
 10
0.0
 20
0.0
 30
0.0
 40
1.0
  1

100
AcDbAttributeDefinition
  3

  2
AUTOATTR19
 70
     0
  0
ATTDEF
  5
AB
330
73
100
AcDbEntity
  8
TEXT
 62
   174
100
AcDbText
 10
0.0
 20
0.0
 30
0.0
 40
1.0
  1

100
AcDbAttributeDefinition
  3

  2
AUTOATTR20
 70
     0
  0
ENDBLK
  5
75
330
73
100
AcDbEntity
  8
0
100
AcDbBlockEnd
  0
BLOCK
  5
7F
330
7E
100
AcDbEntity
  8
0
100
AcDbBlockBegin
  2
SW_NOTE_0
 70
     0
 10
0.0
 20
0.0
 30
0.0
  3
SW_NOTE_0
  1
SW_NOTE_0
  0
MTEXT
  5
82
330
7E
100
AcDbEntity
  8
FORMAT
 62
     0
100
AcDbMText
 10
0.0
 20
1.9336016097
 30
0.0
 40
1.5
 41
0.0
 71
     1
 72
     1
  1
Version
  7
SLDTEXTSTYLE0
 73
     1
 44
1.0
  0
MTEXT
  5
83
330
7E
100
AcDbEntity
  8
FORMAT
 62
     0
100
AcDbMText
 10
0.0
 20
-0.6531187004
 30
0.0
 40
1.2
 41
0.0
 71
     1
 72
     1
  1
[revision]
  7
SLDTEXTSTYLE0
 73
     1
 44
1.0
  0
ENDBLK
  5
80
330
7E
100
AcDbEntity
  8
0
100
AcDbBlockEnd
  0
BLOCK
  5
86
330
85
100
AcDbEntity
  8
0
100
AcDbBlockBegin
  2
SW_NOTE_1
 70
     0
 10
0.0
 20
0.0
 30
0.0
  3
SW_NOTE_1
  1
SW_NOTE_1
  0
MTEXT
  5
88
330
85
100
AcDbEntity
  8
FORMAT
 62
     0
100
AcDbMText
 10
0.0
 20
1.9336016097
 30
0.0
 40
1.5
 41
0.0
 71
     1
 72
     1
  1
Datum
  7
SLDTEXTSTYLE0
 73
     1
 44
1.0
  0
MTEXT
  5
89
330
85
100
AcDbEntity
  8
FORMAT
 62
     0
100
AcDbMText
 10
0.0
 20
-0.6531187004
 30
0.0
 40
1.2
 41
0.0
 71
     1
 72
     1
  1
[date]
  7
SLDTEXTSTYLE0
 73
     1
 44
1.0
  0
ENDBLK
  5
87
330
85
100
AcDbEntity
  8
0
100
AcDbBlockEnd
  0
BLOCK
  5
8C
330
8B
100
AcDbEntity
  8
0
100
AcDbBlockBegin
  2
SW_NOTE_2
 70
     0
 10
0.0
 20
0.0
 30
0.0
  3
SW_NOTE_2
  1
SW_NOTE_2
  0
MTEXT
  5
8E
330
8B
100
AcDbEntity
  8
FORMAT
 62
     0
100
AcDbMText
 10
0.0
 20
1.9336016097
 30
0.0
 40
1.5
 41
0.0
 71
     1
 72
     1
  1
Beschreibung
  7
SLDTEXTSTYLE0
 73
     1
 44
1.0
  0
MTEXT
  5
8F
330
8B
100
AcDbEntity
  8
FORMAT
 62
     0
100
AcDbMText
 10
0.0
 20
-0.6531187004
 30
0.0
 40
1.2
 41
0.0
 71
     1
 72
     1
  1
[description]
  7
SLDTEXTSTYLE0
 73
     1
 44
1.0
  0
ENDBLK
  5
8D
330
8B
100
AcDbEntity
  8
0
100
AcDbBlockEnd
  0
BLOCK
  5
92
330
91
100
AcDbEntity
  8
0
100
AcDbBlockBegin
  2
SW_NOTE_3
 70
     0
 10
0.0
 20
0.0
 30
0.0
  3
SW_NOTE_3
  1
SW_NOTE_3
  0
MTEXT
  5
94
330
91
100
AcDbEntity
  8
FORMAT
 62
     0
100
AcDbMText
 10
0.0
 20
1.9336016097
 30
0.0
 40
1.5
 41
0.0
 71
     1
 72
     1
  1
Genehmigt
  7
SLDTEXTSTYLE0
 73
     1
 44
1.0
  0
MTEXT
  5
95
330
91
100
AcDbEntity
  8
FORMAT
 62
     0
100
AcDbMText
 10
0.0
 20
-0.6531187004
 30
0.0
 40
1.2
 41
0.0
 71
     1
 72
     1
  1
[approved]
  7
SLDTEXTSTYLE0
 73
     1
 44
1.0
  0
ENDBLK
  5
93
330
91
100
AcDbEntity
  8
0
100
AcDbBlockEnd
  0
BLOCK
  5
AD
330
AC
100
AcDbEntity
  8
0
100
AcDbBlockBegin
  2
SP_SF_V00
 70
     2
 10
0.0
 20
0.0
 30
0.0
  3
SP_SF_V00
  1
SP_SF_V00
  0
ARC
  5
AF
330
AC
100
AcDbEntity
  8
FORMAT
  6
Continuous
 62
     7
370
    30
100
AcDbCircle
 10
260.7093718272
 20
55.6008395284
 30
0.0
 40
1.954253399386628
100
AcDbArc
 50
273.1450361254
 51
86.8549641058
  0
ARC
  5
B0
330
AC
100
AcDbEntity
  8
FORMAT
  6
Continuous
 62
     7
370
    30
100
AcDbCircle
 10
260.3154288045
 20
55.6788917436
 30
0.0
 40
0.5049951669579645
100
AcDbArc
 50
291.9727113345
 51
68.027294768
  0
ARC
  5
B1
330
AC
100
AcDbEntity
  8
FORMAT
  6
Continuous
 62
     7
370
    30
100
AcDbCircle
 10
280.3459109266
 20
54.4300538613
 30
0.0
 40
3.302478486020799
100
AcDbArc
 50
70.9755512003
 51
289.0244479867
  0
ARC
  5
B2
330
AC
100
AcDbEntity
  8
FORMAT
  6
Continuous
 62
     7
370
    30
100
AcDbCircle
 10
280.5883373954
 20
54.4300538644
 30
0.0
 40
1.909007831670256
100
AcDbArc
 50
64.0923373711
 51
295.9076611508
  0
ARC
  5
B3
330
AC
100
AcDbEntity
  8
FORMAT
  6
Continuous
 62
     7
370
    30
100
AcDbCircle
 10
254.7002495107
 20
53.3373204755
 30
0.0
 40
0.4691649555252943
100
AcDbArc
 50
273.4524160671
 51
86.5475839329
  0
ARC
  5
B4
330
AC
100
AcDbEntity
  8
FORMAT
  6
Continuous
 62
     7
370
    30
100
AcDbCircle
 10
254.820994192
 20
53.2592682505
 30
0.0
 40
2.022513478536067
100
AcDbArc
 50
285.2484150965
 51
74.7515849036
  0
LINE
  5
B5
330
AC
100
AcDbEntity
  8
FORMAT
370
     0
100
AcDbLine
 10
203.5
 20
13.0
 30
0.0
 11
203.5
 21
10.0
 31
0.0
  0
LINE
  5
B6
330
AC
100
AcDbEntity
  8
FORMAT
370
     0
100
AcDbLine
 10
83.8941339061
 20
13.0
 30
0.0
 11
287.0
 21
13.0
 31
0.0
  0
LINE
  5
B7
330
AC
100
AcDbEntity
  8
FORMAT
370
    30
100
AcDbLine
 10
249.5
 20
60.0
 30
0.0
 11
249.5
 21
13.0
 31
0.0
  0
LINE
  5
B8
330
AC
100
AcDbEntity
  8
FORMAT
  6
Continuous
 62
     7
370
    30
100
AcDbLine
 10
267.9974114357
 20
57.552149538
 30
0.0
 11
267.9974114357
 21
51.3079581693
 31
0.0
  0
LINE
  5
B9
330
AC
100
AcDbEntity
  8
FORMAT
  6
Continuous
370
    30
100
AcDbLine
 10
83.8941339061
 20
60.0
 30
0.0
 11
287.0
 21
60.0
 31
0.0
  0
LINE
  5
BA
330
AC
100
AcDbEntity
  8
FORMAT
370
    30
100
AcDbLine
 10
287.0
 20
42.5
 30
0.0
 11
144.0
 21
42.5
 31
0.0
  0
LINE
  5
BB
330
AC
100
AcDbEntity
  8
FORMAT
  6
Continuous
370
    30
100
AcDbLine
 10
83.8941339061
 20
60.0
 30
0.0
 11
83.8941339061
 21
10.0
 31
0.0
  0
LINE
  5
BC
330
AC
100
AcDbEntity
  8
FORMAT
370
     0
100
AcDbLine
 10
249.5
 20
33.5
 30
0.0
 11
287.0
 21
33.5
 31
0.0
  0
LINE
  5
BD
330
AC
100
AcDbEntity
  8
FORMAT
370
     0
100
AcDbLine
 10
249.5
 20
24.5
 30
0.0
 11
287.0
 21
24.5
 31
0.0
  0
LINE
  5
BE
330
AC
100
AcDbEntity
  8
FORMAT
  6
Continuous
 62
     7
370
    30
100
AcDbLine
 10
267.9974114357
 20
51.3079581693
 30
0.0
 11
271.9000315982
 21
51.3079581693
 31
0.0
  0
LINE
  5
BF
330
AC
100
AcDbEntity
  8
FORMAT
  6
Continuous
 62
     7
370
    30
100
AcDbLine
 10
271.9000315982
 20
51.3079581693
 30
0.0
 11
271.9000315982
 21
52.7129025318
 31
0.0
  0
LINE
  5
C0
330
AC
100
AcDbEntity
  8
FORMAT
  6
Continuous
 62
     7
370
    30
100
AcDbLine
 10
271.9000315982
 20
52.7129025318
 30
0.0
 11
269.5584602482
 21
52.7129025318
 31
0.0
  0
LINE
  5
C1
330
AC
100
AcDbEntity
  8
FORMAT
  6
Continuous
 62
     7
370
    30
100
AcDbLine
 10
269.5584602482
 20
52.7129025318
 30
0.0
 11
269.5584602482
 21
57.552149538
 31
0.0
  0
LINE
  5
C2
330
AC
100
AcDbEntity
  8
FORMAT
  6
Continuous
 62
     7
370
    30
100
AcDbLine
 10
269.5584602482
 20
57.552149538
 30
0.0
 11
267.9974114357
 21
57.552149538
 31
0.0
  0
LINE
  5
C3
330
AC
100
AcDbEntity
  8
FORMAT
  6
Continuous
 62
     7
370
    30
100
AcDbLine
 10
272.3683449482
 20
57.5983252603
 30
0.0
 11
272.3683449482
 21
51.3541338915
 31
0.0
  0
LINE
  5
C4
330
AC
100
AcDbEntity
  8
FORMAT
  6
Continuous
 62
     7
370
    30
100
AcDbLine
 10
272.3683449482
 20
51.3541338915
 30
0.0
 11
276.5831740107
 21
51.3541338915
 31
0.0
  0
LINE
  5
C5
330
AC
100
AcDbEntity
  8
FORMAT
  6
Continuous
 62
     7
370
    30
100
AcDbLine
 10
276.5831740107
 20
51.3541338915
 30
0.0
 11
276.5831740107
 21
52.759078254
 31
0.0
  0
LINE
  5
C6
330
AC
100
AcDbEntity
  8
FORMAT
  6
Continuous
 62
     7
370
    30
100
AcDbLine
 10
276.5831740107
 20
52.759078254
 30
0.0
 11
274.0854983545
 21
52.759078254
 31
0.0
  0
LINE
  5
C7
330
AC
100
AcDbEntity
  8
FORMAT
  6
Continuous
 62
     7
370
    30
100
AcDbLine
 10
274.0854983545
 20
52.759078254
 30
0.0
 11
274.0854983545
 21
53.8518096915
 31
0.0
  0
LINE
  5
C8
330
AC
100
AcDbEntity
  8
FORMAT
  6
Continuous
 62
     7
370
    30
100
AcDbLine
 10
274.0854983545
 20
53.8518096915
 30
0.0
 11
276.5831740107
 21
53.8518096915
 31
0.0
  0
LINE
  5
C9
330
AC
100
AcDbEntity
  8
FORMAT
  6
Continuous
 62
     7
370
    30
100
AcDbLine
 10
276.5831740107
 20
53.8518096915
 30
0.0
 11
276.5831740107
 21
55.256754054
 31
0.0
  0
LINE
  5
CA
330
AC
100
AcDbEntity
  8
FORMAT
  6
Continuous
 62
     7
370
    30
100
AcDbLine
 10
276.5831740107
 20
55.256754054
 30
0.0
 11
274.0854983545
 21
55.256754054
 31
0.0
  0
LINE
  5
CB
330
AC
100
AcDbEntity
  8
FORMAT
  6
Continuous
 62
     7
370
    30
100
AcDbLine
 10
274.0854983545
 20
55.256754054
 30
0.0
 11
274.0854983545
 21
56.1933808978
 31
0.0
  0
LINE
  5
CC
330
AC
100
AcDbEntity
  8
FORMAT
  6
Continuous
 62
     7
370
    30
100
AcDbLine
 10
274.0854983545
 20
56.1933808978
 30
0.0
 11
276.5831740107
 21
56.1933808978
 31
0.0
  0
LINE
  5
CD
330
AC
100
AcDbEntity
  8
FORMAT
  6
Continuous
 62
     7
370
    30
100
AcDbLine
 10
276.5831740107
 20
56.1933808978
 30
0.0
 11
276.5831740107
 21
57.5983252603
 31
0.0
  0
LINE
  5
CE
330
AC
100
AcDbEntity
  8
FORMAT
  6
Continuous
 62
     7
370
    30
100
AcDbLine
 10
276.5831740107
 20
57.5983252603
 30
0.0
 11
272.3683449482
 21
57.5983252603
 31
0.0
  0
LINE
  5
CF
330
AC
100
AcDbEntity
  8
FORMAT
  6
Continuous
 62
     7
370
    30
100
AcDbLine
 10
252.230826767
 20
57.552149538
 30
0.0
 11
260.816589342
 21
57.552149538
 31
0.0
  0
LINE
  5
D0
330
AC
100
AcDbEntity
  8
FORMAT
  6
Continuous
 62
     7
370
    30
100
AcDbLine
 10
257.3822866982
 20
51.3079581693
 30
0.0
 11
259.0994359357
 21
51.3079581693
 31
0.0
  0
LINE
  5
D1
330
AC
100
AcDbEntity
  8
FORMAT
  6
Continuous
 62
     7
370
    30
100
AcDbLine
 10
259.0994359357
 20
53.6495295193
 30
0.0
 11
259.0994359357
 21
51.3079581693
 31
0.0
  0
LINE
  5
D2
330
AC
100
AcDbEntity
  8
FORMAT
  6
Continuous
 62
     7
370
    30
100
AcDbLine
 10
250.8258824045
 20
52.8690069818
 30
0.0
 11
250.8258824045
 21
51.3079581693
 31
0.0
  0
LINE
  5
D3
330
AC
100
AcDbEntity
  8
FORMAT
  6
Continuous
 62
     7
370
    30
100
AcDbLine
 10
250.8258824045
 20
51.3079581693
 30
0.0
 11
255.352924392
 21
51.3079581693
 31
0.0
  0
LINE
  5
D4
330
AC
100
AcDbEntity
  8
FORMAT
  6
Continuous
 62
     7
370
    30
100
AcDbLine
 10
250.8258824045
 20
52.8690069818
 30
0.0
 11
254.7285024232
 21
52.8690069818
 31
0.0
  0
LINE
  5
D5
330
AC
100
AcDbEntity
  8
FORMAT
  6
Continuous
 62
     7
370
    30
100
AcDbLine
 10
252.230826767
 20
53.8056339693
 30
0.0
 11
254.7285024232
 21
53.8056339693
 31
0.0
  0
LINE
  5
D6
330
AC
100
AcDbEntity
  8
FORMAT
  6
Continuous
 62
     7
370
    30
100
AcDbLine
 10
253.1674536107
 20
55.2105783318
 30
0.0
 11
255.352924392
 21
55.2105783318
 31
0.0
  0
LINE
  5
D7
330
AC
100
AcDbEntity
  8
FORMAT
  6
Continuous
 62
     7
370
    30
100
AcDbLine
 10
253.1674536107
 20
56.1472051755
 30
0.0
 11
257.3822866982
 21
56.1472051755
 31
0.0
  0
LINE
  5
D8
330
AC
100
AcDbEntity
  8
FORMAT
  6
Continuous
 62
     7
370
    30
100
AcDbLine
 10
252.230826767
 20
57.552149538
 30
0.0
 11
252.1160896857
 21
57.5178080943
 31
0.0
  0
LINE
  5
D9
330
AC
100
AcDbEntity
  8
FORMAT
  6
Continuous
 62
     7
370
    30
100
AcDbLine
 10
252.1160896857
 20
57.5178080943
 30
0.0
 11
252.0060355482
 21
57.477217838
 31
0.0
  0
LINE
  5
DA
330
AC
100
AcDbEntity
  8
FORMAT
  6
Continuous
 62
     7
370
    30
100
AcDbLine
 10
252.0060355482
 20
57.477217838
 30
0.0
 11
251.9006639232
 21
57.430386388
 31
0.0
  0
LINE
  5
DB
330
AC
100
AcDbEntity
  8
FORMAT
  6
Continuous
 62
     7
370
    30
100
AcDbLine
 10
251.9006639232
 20
57.430386388
 30
0.0
 11
251.7999791232
 21
57.3773101505
 31
0.0
  0
LINE
  5
DC
330
AC
100
AcDbEntity
  8
FORMAT
  6
Continuous
 62
     7
370
    30
100
AcDbLine
 10
251.7999791232
 20
57.3773101505
 30
0.0
 11
251.7039730982
 21
57.317992863
 31
0.0
  0
LINE
  5
DD
330
AC
100
AcDbEntity
  8
FORMAT
  6
Continuous
 62
     7
370
    30
100
AcDbLine
 10
251.7039730982
 20
57.317992863
 30
0.0
 11
251.6126498732
 21
57.2524264755
 31
0.0
  0
LINE
  5
DE
330
AC
100
AcDbEntity
  8
FORMAT
  6
Continuous
 62
     7
370
    30
100
AcDbLine
 10
251.6126498732
 20
57.2524264755
 30
0.0
 11
251.5260131857
 21
57.1806193255
 31
0.0
  0
LINE
  5
DF
330
AC
100
AcDbEntity
  8
FORMAT
  6
Continuous
 62
     7
370
    30
100
AcDbLine
 10
251.5260131857
 20
57.1806193255
 30
0.0
 11
251.4440592982
 21
57.1025671005
 31
0.0
  0
LINE
  5
E0
330
AC
100
AcDbEntity
  8
FORMAT
  6
Continuous
 62
     7
370
    30
100
AcDbLine
 10
251.4440592982
 20
57.1025671005
 30
0.0
 11
251.3667882107
 21
57.0182698005
 31
0.0
  0
LINE
  5
E1
330
AC
100
AcDbEntity
  8
FORMAT
  6
Continuous
 62
     7
370
    30
100
AcDbLine
 10
251.3667882107
 20
57.0182698005
 30
0.0
 11
251.2941997795
 21
56.9277315943
 31
0.0
  0
LINE
  5
E2
330
AC
100
AcDbEntity
  8
FORMAT
  6
Continuous
 62
     7
370
    30
100
AcDbLine
 10
251.2941997795
 20
56.9277315943
 30
0.0
 11
251.2248865482
 21
56.828137138
 31
0.0
  0
LINE
  5
E3
330
AC
100
AcDbEntity
  8
FORMAT
  6
Continuous
 62
     7
370
    30
100
AcDbLine
 10
251.2248865482
 20
56.828137138
 30
0.0
 11
251.1580752857
 21
56.7179243005
 31
0.0
  0
LINE
  5
E4
330
AC
100
AcDbEntity
  8
FORMAT
  6
Continuous
 62
     7
370
    30
100
AcDbLine
 10
251.1580752857
 20
56.7179243005
 30
0.0
 11
251.0946977795
 21
56.5989724693
 31
0.0
  0
LINE
  5
E5
330
AC
100
AcDbEntity
  8
FORMAT
  6
Continuous
 62
     7
370
    30
100
AcDbLine
 10
251.0946977795
 20
56.5989724693
 30
0.0
 11
251.0356896982
 21
56.4731531255
 31
0.0
  0
LINE
  5
E6
330
AC
100
AcDbEntity
  8
FORMAT
  6
Continuous
 62
     7
370
    30
100
AcDbLine
 10
251.0356896982
 20
56.4731531255
 30
0.0
 11
250.9819868545
 21
56.3423377505
 31
0.0
  0
LINE
  5
E7
330
AC
100
AcDbEntity
  8
FORMAT
  6
Continuous
 62
     7
370
    30
100
AcDbLine
 10
250.9819868545
 20
56.3423377505
 30
0.0
 11
250.934532967
 21
56.2083979693
 31
0.0
  0
LINE
  5
E8
330
AC
100
AcDbEntity
  8
FORMAT
  6
Continuous
 62
     7
370
    30
100
AcDbLine
 10
250.934532967
 20
56.2083979693
 30
0.0
 11
250.894255942
 21
56.0732131693
 31
0.0
  0
LINE
  5
E9
330
AC
100
AcDbEntity
  8
FORMAT
  6
Continuous
 62
     7
370
    30
100
AcDbLine
 10
250.894255942
 20
56.0732131693
 30
0.0
 11
250.8620992107
 21
55.9386508068
 31
0.0
  0
LINE
  5
EA
330
AC
100
AcDbEntity
  8
FORMAT
  6
Continuous
 62
     7
370
    30
100
AcDbLine
 10
250.8620992107
 20
55.9386508068
 30
0.0
 11
250.8389948482
 21
55.8065865318
 31
0.0
  0
LINE
  5
EB
330
AC
100
AcDbEntity
  8
FORMAT
  6
Continuous
 62
     7
370
    30
100
AcDbLine
 10
250.8389948482
 20
55.8065865318
 30
0.0
 11
250.8258824045
 21
55.6788916818
 31
0.0
  0
LINE
  5
EC
330
AC
100
AcDbEntity
  8
FORMAT
  6
Continuous
 62
     7
370
    30
100
AcDbLine
 10
250.8258824045
 20
55.6788916818
 30
0.0
 11
250.821980742
 21
55.5511969755
 31
0.0
  0
LINE
  5
ED
330
AC
100
AcDbEntity
  8
FORMAT
  6
Continuous
 62
     7
370
    30
100
AcDbLine
 10
250.821980742
 20
55.5511969755
 30
0.0
 11
250.8258824045
 21
55.4191325568
 31
0.0
  0
LINE
  5
EE
330
AC
100
AcDbEntity
  8
FORMAT
  6
Continuous
 62
     7
370
    30
100
AcDbLine
 10
250.8258824045
 20
55.4191325568
 30
0.0
 11
250.8375912732
 21
55.284570338
 31
0.0
  0
LINE
  5
EF
330
AC
100
AcDbEntity
  8
FORMAT
  6
Continuous
 62
     7
370
    30
100
AcDbLine
 10
250.8375912732
 20
55.284570338
 30
0.0
 11
250.8571033232
 21
55.149385538
 31
0.0
  0
LINE
  5
F0
330
AC
100
AcDbEntity
  8
FORMAT
  6
Continuous
 62
     7
370
    30
100
AcDbLine
 10
250.8571033232
 20
55.149385538
 30
0.0
 11
250.8844225795
 21
55.0154457568
 31
0.0
  0
LINE
  5
F1
330
AC
100
AcDbEntity
  8
FORMAT
  6
Continuous
 62
     7
370
    30
100
AcDbLine
 10
250.8844225795
 20
55.0154457568
 30
0.0
 11
250.9195451607
 21
54.8846303818
 31
0.0
  0
LINE
  5
F2
330
AC
100
AcDbEntity
  8
FORMAT
  6
Continuous
 62
     7
370
    30
100
AcDbLine
 10
250.9195451607
 20
54.8846303818
 30
0.0
 11
250.9624748045
 21
54.758811038
 31
0.0
  0
LINE
  5
F3
330
AC
100
AcDbEntity
  8
FORMAT
  6
Continuous
 62
     7
370
    30
100
AcDbLine
 10
250.9624748045
 20
54.758811038
 30
0.0
 11
251.0132077732
 21
54.6398592068
 31
0.0
  0
LINE
  5
F4
330
AC
100
AcDbEntity
  8
FORMAT
  6
Continuous
 62
     7
370
    30
100
AcDbLine
 10
251.0132077732
 20
54.6398592068
 30
0.0
 11
251.0717479482
 21
54.5296502505
 31
0.0
  0
LINE
  5
F5
330
AC
100
AcDbEntity
  8
FORMAT
  6
Continuous
 62
     7
370
    30
100
AcDbLine
 10
251.0717479482
 20
54.5296502505
 30
0.0
 11
251.1380913045
 21
54.430051913
 31
0.0
  0
LINE
  5
F6
330
AC
100
AcDbEntity
  8
FORMAT
  6
Continuous
 62
     7
370
    30
100
AcDbLine
 10
251.1380913045
 20
54.430051913
 30
0.0
 11
251.2122420107
 21
54.3395137068
 31
0.0
  0
LINE
  5
F7
330
AC
100
AcDbEntity
  8
FORMAT
  6
Continuous
 62
     7
370
    30
100
AcDbLine
 10
251.2122420107
 20
54.3395137068
 30
0.0
 11
251.2941997795
 21
54.2552164068
 31
0.0
  0
LINE
  5
F8
330
AC
100
AcDbEntity
  8
FORMAT
  6
Continuous
 62
     7
370
    30
100
AcDbLine
 10
251.2941997795
 20
54.2552164068
 30
0.0
 11
251.383956992
 21
54.1771641818
 31
0.0
  0
LINE
  5
F9
330
AC
100
AcDbEntity
  8
FORMAT
  6
Continuous
 62
     7
370
    30
100
AcDbLine
 10
251.383956992
 20
54.1771641818
 30
0.0
 11
251.4815251482
 21
54.105356888
 31
0.0
  0
LINE
  5
FA
330
AC
100
AcDbEntity
  8
FORMAT
  6
Continuous
 62
     7
370
    30
100
AcDbLine
 10
251.4815251482
 20
54.105356888
 30
0.0
 11
251.5868927482
 21
54.0397906443
 31
0.0
  0
LINE
  5
FB
330
AC
100
AcDbEntity
  8
FORMAT
  6
Continuous
 62
     7
370
    30
100
AcDbLine
 10
251.5868927482
 20
54.0397906443
 30
0.0
 11
251.7000714357
 21
53.9804733568
 31
0.0
  0
LINE
  5
FC
330
AC
100
AcDbEntity
  8
FORMAT
  6
Continuous
 62
     7
370
    30
100
AcDbLine
 10
251.7000714357
 20
53.9804733568
 30
0.0
 11
251.8210534482
 21
53.9273969755
 31
0.0
  0
LINE
  5
FD
330
AC
100
AcDbEntity
  8
FORMAT
  6
Continuous
 62
     7
370
    30
100
AcDbLine
 10
251.8210534482
 20
53.9273969755
 30
0.0
 11
251.949838642
 21
53.8805656693
 31
0.0
  0
LINE
  5
FE
330
AC
100
AcDbEntity
  8
FORMAT
  6
Continuous
 62
     7
370
    30
100
AcDbLine
 10
251.949838642
 20
53.8805656693
 30
0.0
 11
252.086431042
 21
53.8399792943
 31
0.0
  0
LINE
  5
FF
330
AC
100
AcDbEntity
  8
FORMAT
  6
Continuous
 62
     7
370
    30
100
AcDbLine
 10
252.086431042
 20
53.8399792943
 30
0.0
 11
252.230826767
 21
53.8056339693
 31
0.0
  0
LINE
  5
100
330
AC
100
AcDbEntity
  8
FORMAT
  6
Continuous
 62
     7
370
    30
100
AcDbLine
 10
253.1674536107
 20
56.1472051755
 30
0.0
 11
253.0995479795
 21
56.152669113
 31
0.0
  0
LINE
  5
101
330
AC
100
AcDbEntity
  8
FORMAT
  6
Continuous
 62
     7
370
    30
100
AcDbLine
 10
253.0995479795
 20
56.152669113
 30
0.0
 11
253.0363290295
 21
56.1534501068
 31
0.0
  0
LINE
  5
102
330
AC
100
AcDbEntity
  8
FORMAT
  6
Continuous
 62
     7
370
    30
100
AcDbLine
 10
253.0363290295
 20
56.1534501068
 30
0.0
 11
252.9777888545
 21
56.149548588
 31
0.0
  0
LINE
  5
103
330
AC
100
AcDbEntity
  8
FORMAT
  6
Continuous
 62
     7
370
    30
100
AcDbLine
 10
252.9777888545
 20
56.149548588
 30
0.0
 11
252.9239314795
 21
56.1409602443
 31
0.0
  0
LINE
  5
104
330
AC
100
AcDbEntity
  8
FORMAT
  6
Continuous
 62
     7
370
    30
100
AcDbLine
 10
252.9239314795
 20
56.1409602443
 30
0.0
 11
252.874760642
 21
56.1276931255
 31
0.0
  0
LINE
  5
105
330
AC
100
AcDbEntity
  8
FORMAT
  6
Continuous
 62
     7
370
    30
100
AcDbLine
 10
252.874760642
 20
56.1276931255
 30
0.0
 11
252.8302687232
 21
56.1097393255
 31
0.0
  0
LINE
  5
106
330
AC
100
AcDbEntity
  8
FORMAT
  6
Continuous
 62
     7
370
    30
100
AcDbLine
 10
252.8302687232
 20
56.1097393255
 30
0.0
 11
252.7904634857
 21
56.0871067505
 31
0.0
  0
LINE
  5
107
330
AC
100
AcDbEntity
  8
FORMAT
  6
Continuous
 62
     7
370
    30
100
AcDbLine
 10
252.7904634857
 20
56.0871067505
 30
0.0
 11
252.7553370232
 21
56.0597874943
 31
0.0
  0
LINE
  5
108
330
AC
100
AcDbEntity
  8
FORMAT
  6
Continuous
 62
     7
370
    30
100
AcDbLine
 10
252.7553370232
 20
56.0597874943
 30
0.0
 11
252.724897242
 21
56.027785438
 31
0.0
  0
LINE
  5
109
330
AC
100
AcDbEntity
  8
FORMAT
  6
Continuous
 62
     7
370
    30
100
AcDbLine
 10
252.724897242
 20
56.027785438
 30
0.0
 11
252.6991402607
 21
55.9911007255
 31
0.0
  0
LINE
  5
10A
330
AC
100
AcDbEntity
  8
FORMAT
  6
Continuous
 62
     7
370
    30
100
AcDbLine
 10
252.6991402607
 20
55.9911007255
 30
0.0
 11
252.6780659357
 21
55.9455183193
 31
0.0
  0
LINE
  5
10B
330
AC
100
AcDbEntity
  8
FORMAT
  6
Continuous
 62
     7
370
    30
100
AcDbLine
 10
252.6780659357
 20
55.9455183193
 30
0.0
 11
252.661674267
 21
55.8886950943
 31
0.0
  0
LINE
  5
10C
330
AC
100
AcDbEntity
  8
FORMAT
  6
Continuous
 62
     7
370
    30
100
AcDbLine
 10
252.661674267
 20
55.8886950943
 30
0.0
 11
252.6499694232
 21
55.823445963
 31
0.0
  0
LINE
  5
10D
330
AC
100
AcDbEntity
  8
FORMAT
  6
Continuous
 62
     7
370
    30
100
AcDbLine
 10
252.6499694232
 20
55.823445963
 30
0.0
 11
252.6429433545
 21
55.7525744818
 31
0.0
  0
LINE
  5
10E
330
AC
100
AcDbEntity
  8
FORMAT
  6
Continuous
 62
     7
370
    30
100
AcDbLine
 10
252.6429433545
 20
55.7525744818
 30
0.0
 11
252.6406000857
 21
55.6788916818
 31
0.0
  0
LINE
  5
10F
330
AC
100
AcDbEntity
  8
FORMAT
  6
Continuous
 62
     7
370
    30
100
AcDbLine
 10
252.6406000857
 20
55.6788916818
 30
0.0
 11
252.6429433545
 21
55.6052090255
 31
0.0
  0
LINE
  5
110
330
AC
100
AcDbEntity
  8
FORMAT
  6
Continuous
 62
     7
370
    30
100
AcDbLine
 10
252.6429433545
 20
55.6052090255
 30
0.0
 11
252.6499694232
 21
55.5343375443
 31
0.0
  0
LINE
  5
111
330
AC
100
AcDbEntity
  8
FORMAT
  6
Continuous
 62
     7
370
    30
100
AcDbLine
 10
252.6499694232
 20
55.5343375443
 30
0.0
 11
252.661674267
 21
55.469088413
 31
0.0
  0
LINE
  5
112
330
AC
100
AcDbEntity
  8
FORMAT
  6
Continuous
 62
     7
370
    30
100
AcDbLine
 10
252.661674267
 20
55.469088413
 30
0.0
 11
252.6780659357
 21
55.412265188
 31
0.0
  0
LINE
  5
113
330
AC
100
AcDbEntity
  8
FORMAT
  6
Continuous
 62
     7
370
    30
100
AcDbLine
 10
252.6780659357
 20
55.412265188
 30
0.0
 11
252.6991402607
 21
55.3666827818
 31
0.0
  0
LINE
  5
114
330
AC
100
AcDbEntity
  8
FORMAT
  6
Continuous
 62
     7
370
    30
100
AcDbLine
 10
252.6991402607
 20
55.3666827818
 30
0.0
 11
252.724897242
 21
55.3299980693
 31
0.0
  0
LINE
  5
115
330
AC
100
AcDbEntity
  8
FORMAT
  6
Continuous
 62
     7
370
    30
100
AcDbLine
 10
252.724897242
 20
55.3299980693
 30
0.0
 11
252.7553370232
 21
55.297996013
 31
0.0
  0
LINE
  5
116
330
AC
100
AcDbEntity
  8
FORMAT
  6
Continuous
 62
     7
370
    30
100
AcDbLine
 10
252.7553370232
 20
55.297996013
 30
0.0
 11
252.7904634857
 21
55.2706767568
 31
0.0
  0
LINE
  5
117
330
AC
100
AcDbEntity
  8
FORMAT
  6
Continuous
 62
     7
370
    30
100
AcDbLine
 10
252.7904634857
 20
55.2706767568
 30
0.0
 11
252.8302687232
 21
55.2480441818
 31
0.0
  0
LINE
  5
118
330
AC
100
AcDbEntity
  8
FORMAT
  6
Continuous
 62
     7
370
    30
100
AcDbLine
 10
252.8302687232
 20
55.2480441818
 30
0.0
 11
252.874760642
 21
55.2300903818
 31
0.0
  0
LINE
  5
119
330
AC
100
AcDbEntity
  8
FORMAT
  6
Continuous
 62
     7
370
    30
100
AcDbLine
 10
252.874760642
 20
55.2300903818
 30
0.0
 11
252.9239314795
 21
55.216823263
 31
0.0
  0
LINE
  5
11A
330
AC
100
AcDbEntity
  8
FORMAT
  6
Continuous
 62
     7
370
    30
100
AcDbLine
 10
252.9239314795
 20
55.216823263
 30
0.0
 11
252.9777888545
 21
55.2082349193
 31
0.0
  0
LINE
  5
11B
330
AC
100
AcDbEntity
  8
FORMAT
  6
Continuous
 62
     7
370
    30
100
AcDbLine
 10
252.9777888545
 20
55.2082349193
 30
0.0
 11
253.0363290295
 21
55.2043332568
 31
0.0
  0
LINE
  5
11C
330
AC
100
AcDbEntity
  8
FORMAT
  6
Continuous
 62
     7
370
    30
100
AcDbLine
 10
253.0363290295
 20
55.2043332568
 30
0.0
 11
253.0995479795
 21
55.2051143943
 31
0.0
  0
LINE
  5
11D
330
AC
100
AcDbEntity
  8
FORMAT
  6
Continuous
 62
     7
370
    30
100
AcDbLine
 10
253.0995479795
 20
55.2051143943
 30
0.0
 11
253.1674536107
 21
55.2105783318
 31
0.0
  0
LINE
  5
11E
330
AC
100
AcDbEntity
  8
FORMAT
  6
Continuous
 62
     7
370
    30
100
AcDbLine
 10
257.3822866982
 20
56.1472051755
 30
0.0
 11
257.3822866982
 21
51.3079581693
 31
0.0
  0
LINE
  5
11F
330
AC
100
AcDbEntity
  8
FORMAT
  6
Continuous
 62
     7
370
    30
100
AcDbLine
 10
259.0994359357
 20
55.2105783318
 30
0.0
 11
259.0994359357
 21
56.1472051755
 31
0.0
  0
LINE
  5
120
330
AC
100
AcDbEntity
  8
FORMAT
  6
Continuous
 62
     7
370
    30
100
AcDbLine
 10
259.0994359357
 20
56.1472051755
 30
0.0
 11
260.5043802483
 21
56.1472051755
 31
0.0
  0
LINE
  5
121
330
AC
100
AcDbEntity
  8
FORMAT
  6
Continuous
 62
     7
370
    30
100
AcDbLine
 10
259.0994359357
 20
55.2105783318
 30
0.0
 11
260.5043802982
 21
55.2105783318
 31
0.0
  0
LINE
  5
122
330
AC
100
AcDbEntity
  8
FORMAT
  6
Continuous
 62
     7
370
    30
100
AcDbLine
 10
259.0994359357
 20
53.6495295193
 30
0.0
 11
260.8165893498
 21
53.6495295193
 31
0.0
  0
LINE
  5
123
330
AC
100
AcDbEntity
  8
FORMAT
  6
Continuous
 62
     7
370
    30
100
AcDbLine
 10
264.5631049107
 20
55.2105783318
 30
0.0
 11
263.1581605482
 21
55.2105783318
 31
0.0
  0
LINE
  5
124
330
AC
100
AcDbEntity
  8
FORMAT
  6
Continuous
 62
     7
370
    30
100
AcDbLine
 10
263.1581605482
 20
55.2105783318
 30
0.0
 11
261.9093246607
 21
51.3079581693
 31
0.0
  0
LINE
  5
125
330
AC
100
AcDbEntity
  8
FORMAT
  6
Continuous
 62
     7
370
    30
100
AcDbLine
 10
261.9093246607
 20
51.3079581693
 30
0.0
 11
267.8413069857
 21
51.3079581693
 31
0.0
  0
LINE
  5
126
330
AC
100
AcDbEntity
  8
FORMAT
  6
Continuous
 62
     7
370
    30
100
AcDbLine
 10
267.8413069857
 20
51.3079581693
 30
0.0
 11
265.6558402295
 21
57.552149538
 31
0.0
  0
LINE
  5
127
330
AC
100
AcDbEntity
  8
FORMAT
  6
Continuous
 62
     7
370
    30
100
AcDbLine
 10
265.6558402295
 20
57.552149538
 30
0.0
 11
263.938686967
 21
57.552149538
 31
0.0
  0
LINE
  5
128
330
AC
100
AcDbEntity
  8
FORMAT
  6
Continuous
 62
     7
370
    30
100
AcDbLine
 10
263.938686967
 20
57.552149538
 30
0.0
 11
265.6558402295
 21
52.7129025318
 31
0.0
  0
LINE
  5
129
330
AC
100
AcDbEntity
  8
FORMAT
  6
Continuous
 62
     7
370
    30
100
AcDbLine
 10
265.6558402295
 20
52.7129025318
 30
0.0
 11
263.938686967
 21
52.7129025318
 31
0.0
  0
LINE
  5
12A
330
AC
100
AcDbEntity
  8
FORMAT
  6
Continuous
 62
     7
370
    30
100
AcDbLine
 10
263.938686967
 20
52.7129025318
 30
0.0
 11
264.5631049107
 21
55.2105783318
 31
0.0
  0
LINE
  5
12B
330
AC
100
AcDbEntity
  8
FORMAT
  6
Continuous
 62
     7
370
    30
100
AcDbLine
 10
281.4224250863
 20
57.552149538
 30
0.0
 11
281.4224250863
 21
56.1472051755
 31
0.0
  0
LINE
  5
12C
330
AC
100
AcDbEntity
  8
FORMAT
  6
Continuous
 62
     7
370
    30
100
AcDbLine
 10
281.422425042
 20
52.7129025318
 30
0.0
 11
281.422425042
 21
51.3079581693
 31
0.0
  0
LINE
  5
12D
330
AC
100
AcDbEntity
  8
FORMAT
  6
Continuous
 62
     7
370
    30
100
AcDbLine
 10
285.6372541045
 20
57.552149538
 30
0.0
 11
283.6078917982
 21
57.552149538
 31
0.0
  0
LINE
  5
12E
330
AC
100
AcDbEntity
  8
FORMAT
  6
Continuous
 62
     7
370
    30
100
AcDbLine
 10
283.6078917982
 20
57.552149538
 30
0.0
 11
281.578529492
 21
55.2105783318
 31
0.0
  0
LINE
  5
12F
330
AC
100
AcDbEntity
  8
FORMAT
  6
Continuous
 62
     7
370
    30
100
AcDbLine
 10
281.578529492
 20
55.2105783318
 30
0.0
 11
281.578529492
 21
53.8056339693
 31
0.0
  0
LINE
  5
130
330
AC
100
AcDbEntity
  8
FORMAT
  6
Continuous
 62
     7
370
    30
100
AcDbLine
 10
281.578529492
 20
53.8056339693
 30
0.0
 11
283.6078917982
 21
51.3079581693
 31
0.0
  0
LINE
  5
131
330
AC
100
AcDbEntity
  8
FORMAT
  6
Continuous
 62
     7
370
    30
100
AcDbLine
 10
283.6078917982
 20
51.3079581693
 30
0.0
 11
285.7933585545
 21
51.3079581693
 31
0.0
  0
LINE
  5
132
330
AC
100
AcDbEntity
  8
FORMAT
  6
Continuous
 62
     7
370
    30
100
AcDbLine
 10
285.7933585545
 20
51.3079581693
 30
0.0
 11
283.1395783045
 21
54.586156363
 31
0.0
  0
LINE
  5
133
330
AC
100
AcDbEntity
  8
FORMAT
  6
Continuous
 62
     7
370
    30
100
AcDbLine
 10
283.1395783045
 20
54.586156363
 30
0.0
 11
285.6372541045
 21
57.552149538
 31
0.0
  0
LINE
  5
134
330
AC
100
AcDbEntity
  8
FORMAT
370
     0
100
AcDbLine
 10
276.5
 20
24.5
 30
0.0
 11
276.5
 21
13.0
 31
0.0
  0
LINE
  5
135
330
AC
100
AcDbEntity
  8
FORMAT
  6
PHANTOM
370
     0
100
AcDbLine
 10
83.8941339061
 20
10.0
 30
0.0
 11
287.0
 21
10.0
 31
0.0
  0
LINE
  5
136
330
AC
100
AcDbEntity
  8
FORMAT
  6
PHANTOM
370
     0
100
AcDbLine
 10
287.0
 20
10.0
 30
0.0
 11
287.0
 21
60.0
 31
0.0
  0
LINE
  5
137
330
AC
100
AcDbEntity
  8
FORMAT
370
     0
100
AcDbLine
 10
249.5
 20
35.7456962484
 30
0.0
 11
144.0
 21
35.7456962484
 31
0.0
  0
LINE
  5
138
330
AC
100
AcDbEntity
  8
FORMAT
370
     0
100
AcDbLine
 10
215.5
 20
60.0
 30
0.0
 11
215.5
 21
42.5
 31
0.0
  0
LINE
  5
139
330
AC
100
AcDbEntity
  8
FORMAT
370
     0
100
AcDbLine
 10
99.0182427852
 20
60.0
 30
0.0
 11
99.0182427852
 21
45.9
 31
0.0
  0
LINE
  5
13A
330
AC
100
AcDbEntity
  8
FORMAT
370
    30
100
AcDbLine
 10
144.0
 20
60.0
 30
0.0
 11
144.0
 21
13.0
 31
0.0
  0
LINE
  5
13B
330
AC
100
AcDbEntity
  8
FORMAT
370
     0
100
AcDbLine
 10
83.8941339061
 20
55.3
 30
0.0
 11
144.0
 21
55.3
 31
0.0
  0
LINE
  5
13C
330
AC
100
AcDbEntity
  8
FORMAT
370
     0
100
AcDbLine
 10
124.0
 20
60.0
 30
0.0
 11
124.0
 21
45.9
 31
0.0
  0
LINE
  5
13D
330
AC
100
AcDbEntity
  8
FORMAT
370
     0
100
AcDbLine
 10
83.8941339061
 20
50.6
 30
0.0
 11
144.0
 21
50.6
 31
0.0
  0
LINE
  5
13E
330
AC
100
AcDbEntity
  8
FORMAT
370
     0
100
AcDbLine
 10
83.8941339061
 20
45.9
 30
0.0
 11
144.0
 21
45.9
 31
0.0
  0
LINE
  5
13F
330
AC
100
AcDbEntity
  8
FORMAT
370
     0
100
AcDbLine
 10
83.8941339061
 20
24.8
 30
0.0
 11
144.0
 21
24.8
 31
0.0
  0
LINE
  5
140
330
AC
100
AcDbEntity
  8
FORMAT
370
     0
100
AcDbLine
 10
186.7225821465
 20
42.5
 30
0.0
 11
186.7225821465
 21
35.7456962484
 31
0.0
  0
LINE
  5
141
330
AC
100
AcDbEntity
  8
FORMAT
370
     0
100
AcDbLine
 10
237.2706288831
 20
42.5
 30
0.0
 11
237.2706288831
 21
35.7456962484
 31
0.0
  0
LINE
  5
142
330
AC
100
AcDbEntity
  8
FORMAT
370
     0
100
AcDbLine
 10
212.6921462062
 20
42.5
 30
0.0
 11
212.6921462062
 21
35.7456962484
 31
0.0
  0
LINE
  5
143
330
AC
100
AcDbEntity
  8
FORMAT
370
     0
100
AcDbLine
 10
161.0
 20
60.0
 30
0.0
 11
161.0
 21
42.5
 31
0.0
  0
LINE
  5
144
330
AC
100
AcDbEntity
  8
FORMAT
100
AcDbLine
 10
83.8941339061
 20
38.9
 30
0.0
 11
144.0
 21
38.9
 31
0.0
  0
LINE
  5
145
330
AC
100
AcDbEntity
  8
FORMAT
100
AcDbLine
 10
83.8941339061
 20
34.2
 30
0.0
 11
144.0
 21
34.2
 31
0.0
  0
LINE
  5
146
330
AC
100
AcDbEntity
  8
FORMAT
100
AcDbLine
 10
83.8941339061
 20
29.5
 30
0.0
 11
144.0
 21
29.5
 31
0.0
  0
LINE
  5
147
330
AC
100
AcDbEntity
  8
FORMAT
100
AcDbLine
 10
83.8941339061
 20
20.1
 30
0.0
 11
144.0
 21
20.1
 31
0.0
  0
LINE
  5
148
330
AC
100
AcDbEntity
  8
FORMAT
370
    30
100
AcDbLine
 10
257.3822866982
 20
56.1472051755
 30
0.0
 11
257.3822866982
 21
57.552149538
 31
0.0
  0
LINE
  5
149
330
AC
100
AcDbEntity
  8
FORMAT
100
AcDbLine
 10
99.0182427852
 20
38.9
 30
0.0
 11
99.0182427852
 21
20.1
 31
0.0
  0
LINE
  5
14A
330
AC
100
AcDbEntity
  8
FORMAT
100
AcDbLine
 10
124.0
 20
38.9
 30
0.0
 11
124.0
 21
20.1
 31
0.0
  0
LINE
  5
14B
330
AC
100
AcDbEntity
  8
FORMAT
370
     0
100
AcDbLine
 10
263.5755688501
 20
24.5
 30
0.0
 11
263.5755688501
 21
13.0
 31
0.0
  0
LINE
  5
14C
330
AC
100
AcDbEntity
  8
0
  6
Continuous
 62
     7
370
     0
100
AcDbLine
 10
144.0
 20
35.7456962484
 30
0.0
 11
147.545987416
 21
35.7456962484
 31
0.0
  0
LINE
  5
14D
330
AC
100
AcDbEntity
  8
0
  6
Continuous
 62
     7
370
     0
100
AcDbLine
 10
144.0
 20
35.7456962484
 30
0.0
 11
144.0
 21
32.5985617745
 31
0.0
  0
LINE
  5
14E
330
AC
100
AcDbEntity
  8
0
  6
Continuous
 62
     7
370
     0
100
AcDbLine
 10
144.0
 20
13.0
 30
0.0
 11
147.545987416
 21
13.0
 31
0.0
  0
LINE
  5
14F
330
AC
100
AcDbEntity
  8
0
  6
Continuous
 62
     7
370
     0
100
AcDbLine
 10
144.0
 20
13.0
 30
0.0
 11
144.0
 21
16.327419165
 31
0.0
  0
HATCH
  5
150
330
AC
100
AcDbEntity
  8
FORMAT
100
AcDbHatch
 10
0.0
 20
0.0
 30
0.0
210
0.0
220
0.0
230
1.0
  2
SOLID
 70
     1
 71
     0
 91
        1
 92
        0
 93
        8
 72
     1
 10
265.6558402294674
 20
52.71290253176934
 11
263.9386869669675
 21
52.71290253176934
 72
     1
 10
263.9386869669675
 20
52.71290253176934
 11
264.5631049107172
 21
55.21057833176938
 72
     1
 10
264.5631049107172
 20
55.21057833176938
 11
263.1581605482173
 21
55.21057833176938
 72
     1
 10
263.1581605482173
 20
55.21057833176938
 11
261.9093246607172
 21
51.3079581692694
 72
     1
 10
261.9093246607172
 20
51.3079581692694
 11
267.8413069857174
 21
51.3079581692694
 72
     1
 10
267.8413069857174
 20
51.3079581692694
 11
265.6558402294674
 21
57.55214953801939
 72
     1
 10
265.6558402294674
 20
57.55214953801939
 11
263.9386869669675
 21
57.55214953801939
 72
     1
 10
263.9386869669675
 20
57.55214953801939
 11
265.6558402294674
 21
52.71290253176934
 97
        0
 75
     0
 76
     1
 98
        1
 10
0.0
 20
0.0
  0
HATCH
  5
151
330
AC
100
AcDbEntity
  8
FORMAT
100
AcDbHatch
 10
0.0
 20
0.0
 30
0.0
210
0.0
220
0.0
230
1.0
  2
SOLID
 70
     1
 71
     0
 91
        1
 92
        0
 93
        6
 72
     1
 10
269.5584602482174
 20
52.71290253176934
 11
269.5584602482174
 21
57.55214953801939
 72
     1
 10
269.5584602482174
 20
57.55214953801939
 11
267.9974114357172
 21
57.55214953801939
 72
     1
 10
267.9974114357172
 20
57.55214953801939
 11
267.9974114357172
 21
51.3079581692694
 72
     1
 10
267.9974114357172
 20
51.3079581692694
 11
271.9000315982173
 21
51.3079581692694
 72
     1
 10
271.9000315982173
 20
51.3079581692694
 11
271.9000315982173
 21
52.71290253176934
 72
     1
 10
271.9000315982173
 20
52.71290253176934
 11
269.5584602482174
 21
52.71290253176934
 97
        0
 75
     0
 76
     1
 98
        1
 10
0.0
 20
0.0
  0
HATCH
  5
152
330
AC
100
AcDbEntity
  8
FORMAT
100
AcDbHatch
 10
0.0
 20
0.0
 30
0.0
210
0.0
220
0.0
230
1.0
  2
SOLID
 70
     1
 71
     0
 91
        1
 92
        0
 93
       12
 72
     1
 10
276.5831740107173
 20
56.19338089776608
 11
276.5831740107173
 21
57.59832526026614
 72
     1
 10
276.5831740107173
 20
57.59832526026614
 11
272.3683449482172
 21
57.59832526026614
 72
     1
 10
272.3683449482172
 20
57.59832526026614
 11
272.3683449482172
 21
51.35413389151615
 72
     1
 10
272.3683449482172
 20
51.35413389151615
 11
276.5831740107173
 21
51.35413389151615
 72
     1
 10
276.5831740107173
 20
51.35413389151615
 11
276.5831740107173
 21
52.75907825401609
 72
     1
 10
276.5831740107173
 20
52.75907825401609
 11
274.0854983544675
 21
52.75907825401609
 72
     1
 10
274.0854983544675
 20
52.75907825401609
 11
274.0854983544675
 21
53.85180969151608
 72
     1
 10
274.0854983544675
 20
53.85180969151608
 11
276.5831740107173
 21
53.85180969151608
 72
     1
 10
276.5831740107173
 20
53.85180969151608
 11
276.5831740107173
 21
55.25675405401613
 72
     1
 10
276.5831740107173
 20
55.25675405401613
 11
274.0854983544675
 21
55.25675405401613
 72
     1
 10
274.0854983544675
 20
55.25675405401613
 11
274.0854983544675
 21
56.19338089776608
 72
     1
 10
274.0854983544675
 20
56.19338089776608
 11
276.5831740107173
 21
56.19338089776608
 97
        0
 75
     0
 76
     1
 98
        1
 10
0.0
 20
0.0
  0
HATCH
  5
153
330
AC
100
AcDbEntity
  8
FORMAT
100
AcDbHatch
 10
0.0
 20
0.0
 30
0.0
210
0.0
220
0.0
230
1.0
  2
SOLID
 70
     1
 71
     0
 91
        1
 92
        0
 93
        4
 72
     2
 10
280.5883373953667
 20
54.43005386440329
 40
1.909007831670189
 50
64.09233884922808
 51
295.9076626288884
 73
     0
 72
     1
 10
281.4224250862663
 20
56.14720517551934
 11
281.4224250862663
 21
57.55214953801939
 72
     2
 10
280.345910926617
 20
54.43005386128168
 40
3.302478486020771
 50
70.97555120033014
 51
289.0244479867085
 73
     1
 72
     1
 10
281.4224250419674
 20
51.3079581692694
 11
281.4224250419674
 21
52.71290253176934
 97
        0
 75
     0
 76
     1
 98
        1
 10
0.0
 20
0.0
  0
HATCH
  5
154
330
AC
100
AcDbEntity
  8
FORMAT
100
AcDbHatch
 10
0.0
 20
0.0
 30
0.0
210
0.0
220
0.0
230
1.0
  2
SOLID
 70
     1
 71
     0
 91
        1
 92
        0
 93
        7
 72
     1
 10
285.7933585544673
 20
51.3079581692694
 11
283.1395783044674
 21
54.58615636301938
 72
     1
 10
283.1395783044674
 20
54.58615636301938
 11
285.6372541044672
 21
57.55214953801939
 72
     1
 10
285.6372541044672
 20
57.55214953801939
 11
283.6078917982173
 21
57.55214953801939
 72
     1
 10
283.6078917982173
 20
57.55214953801939
 11
281.5785294919674
 21
55.21057833176938
 72
     1
 10
281.5785294919674
 20
55.21057833176938
 11
281.5785294919674
 21
53.80563396926934
 72
     1
 10
281.5785294919674
 20
53.80563396926934
 11
283.6078917982173
 21
51.3079581692694
 72
     1
 10
283.6078917982173
 20
51.3079581692694
 11
285.7933585544673
 21
51.3079581692694
 97
        0
 75
     0
 76
     1
 98
        1
 10
0.0
 20
0.0
  0
HATCH
  5
155
330
AC
100
AcDbEntity
  8
FORMAT
100
AcDbHatch
 10
0.0
 20
0.0
 30
0.0
210
0.0
220
0.0
230
1.0
  2
SOLID
 70
     1
 71
     0
 91
        1
 92
        0
 93
       80
 72
     1
 10
250.8258824044673
 20
51.3079581692694
 11
255.3529243919673
 21
51.3079581692694
 72
     2
 10
254.8209941919673
 20
53.25926825051934
 40
2.022513478536017
 50
285.2484150964506
 51
434.7515849035518
 73
     1
 72
     1
 10
255.3529243919673
 20
55.21057833176938
 11
253.1674536107172
 21
55.21057833176938
 72
     1
 10
253.1674536107172
 20
55.21057833176938
 11
253.0995479794674
 21
55.20511439426939
 72
     1
 10
253.0995479794674
 20
55.20511439426939
 11
253.0363290294673
 21
55.20433325676937
 72
     1
 10
253.0363290294673
 20
55.20433325676937
 11
252.9777888544674
 21
55.20823491926934
 72
     1
 10
252.9777888544674
 20
55.20823491926934
 11
252.9239314794675
 21
55.21682326301939
 72
     1
 10
252.9239314794675
 20
55.21682326301939
 11
252.8747606419674
 21
55.23009038176934
 72
     1
 10
252.8747606419674
 20
55.23009038176934
 11
252.8302687232172
 21
55.24804418176938
 72
     1
 10
252.8302687232172
 20
55.24804418176938
 11
252.7904634857171
 21
55.27067675676941
 72
     1
 10
252.7904634857171
 20
55.27067675676941
 11
252.7553370232173
 21
55.29799601301936
 72
     1
 10
252.7553370232173
 20
55.29799601301936
 11
252.7248972419675
 21
55.32999806926934
 72
     1
 10
252.7248972419675
 20
55.32999806926934
 11
252.6991402607172
 21
55.36668278176942
 72
     1
 10
252.6991402607172
 20
55.36668278176942
 11
252.6780659357172
 21
55.41226518801938
 72
     1
 10
252.6780659357172
 20
55.41226518801938
 11
252.6616742669673
 21
55.46908841301939
 72
     1
 10
252.6616742669673
 20
55.46908841301939
 11
252.6499694232175
 21
55.53433754426932
 72
     1
 10
252.6499694232175
 20
55.53433754426932
 11
252.6429433544673
 21
55.6052090255194
 72
     1
 10
252.6429433544673
 20
55.6052090255194
 11
252.6406000857172
 21
55.67889168176936
 72
     1
 10
252.6406000857172
 20
55.67889168176936
 11
252.6429433544673
 21
55.75257448176933
 72
     1
 10
252.6429433544673
 20
55.75257448176933
 11
252.6499694232175
 21
55.8234459630194
 72
     1
 10
252.6499694232175
 20
55.8234459630194
 11
252.6616742669673
 21
55.88869509426934
 72
     1
 10
252.6616742669673
 20
55.88869509426934
 11
252.6780659357172
 21
55.94551831926935
 72
     1
 10
252.6780659357172
 20
55.94551831926935
 11
252.6991402607172
 21
55.99110072551942
 72
     1
 10
252.6991402607172
 20
55.99110072551942
 11
252.7248972419675
 21
56.02778543801938
 72
     1
 10
252.7248972419675
 20
56.02778543801938
 11
252.7553370232173
 21
56.05978749426936
 72
     1
 10
252.7553370232173
 20
56.05978749426936
 11
252.7904634857171
 21
56.08710675051937
 72
     1
 10
252.7904634857171
 20
56.08710675051937
 11
252.8302687232172
 21
56.10973932551939
 72
     1
 10
252.8302687232172
 20
56.10973932551939
 11
252.8747606419674
 21
56.12769312551939
 72
     1
 10
252.8747606419674
 20
56.12769312551939
 11
252.9239314794675
 21
56.14096024426933
 72
     1
 10
252.9239314794675
 20
56.14096024426933
 11
252.9777888544674
 21
56.14954858801939
 72
     1
 10
252.9777888544674
 20
56.14954858801939
 11
253.0363290294674
 21
56.15345010676935
 72
     1
 10
253.0363290294674
 20
56.15345010676935
 11
253.0995479794674
 21
56.15266911301934
 72
     1
 10
253.0995479794674
 20
56.15266911301934
 11
253.1674536107172
 21
56.14720517551934
 72
     1
 10
253.1674536107172
 20
56.14720517551934
 11
257.3822866982173
 21
56.14720517551934
 72
     1
 10
257.3822866982173
 20
56.14720517551934
 11
257.3822866982173
 21
57.55214953801939
 72
     1
 10
257.3822866982173
 20
57.55214953801939
 11
252.2308267669672
 21
57.55214953801939
 72
     1
 10
252.2308267669672
 20
57.55214953801939
 11
252.1160896857172
 21
57.51780809426938
 72
     1
 10
252.1160896857172
 20
57.51780809426938
 11
252.0060355482173
 21
57.47721783801934
 72
     1
 10
252.0060355482173
 20
57.47721783801934
 11
251.9006639232174
 21
57.43038638801939
 72
     1
 10
251.9006639232174
 20
57.43038638801939
 11
251.7999791232172
 21
57.37731015051939
 72
     1
 10
251.7999791232172
 20
57.37731015051939
 11
251.7039730982172
 21
57.31799286301936
 72
     1
 10
251.7039730982172
 20
57.31799286301936
 11
251.6126498732173
 21
57.25242647551939
 72
     1
 10
251.6126498732173
 20
57.25242647551939
 11
251.5260131857172
 21
57.18061932551939
 72
     1
 10
251.5260131857172
 20
57.18061932551939
 11
251.4440592982173
 21
57.10256710051937
 72
     1
 10
251.4440592982173
 20
57.10256710051937
 11
251.3667882107175
 21
57.01826980051931
 72
     1
 10
251.3667882107175
 20
57.01826980051931
 11
251.2941997794672
 21
56.92773159426938
 72
     1
 10
251.2941997794672
 20
56.92773159426938
 11
251.2248865482173
 21
56.82813713801941
 72
     1
 10
251.2248865482173
 20
56.82813713801941
 11
251.1580752857173
 21
56.71792430051929
 72
     1
 10
251.1580752857173
 20
56.71792430051929
 11
251.0946977794674
 21
56.59897246926929
 72
     1
 10
251.0946977794674
 20
56.59897246926929
 11
251.0356896982172
 21
56.47315312551941
 72
     1
 10
251.0356896982172
 20
56.47315312551941
 11
250.9819868544673
 21
56.34233775051938
 72
     1
 10
250.9819868544673
 20
56.34233775051938
 11
250.9345329669671
 21
56.20839796926939
 72
     1
 10
250.9345329669671
 20
56.20839796926939
 11
250.8942559419675
 21
56.07321316926932
 72
     1
 10
250.8942559419675
 20
56.07321316926932
 11
250.8620992107172
 21
55.93865080676933
 72
     1
 10
250.8620992107172
 20
55.93865080676933
 11
250.8389948482174
 21
55.80658653176932
 72
     1
 10
250.8389948482174
 20
55.80658653176932
 11
250.8258824044673
 21
55.67889168176936
 72
     1
 10
250.8258824044673
 20
55.67889168176936
 11
250.8219807419673
 21
55.55119697551939
 72
     1
 10
250.8219807419673
 20
55.55119697551939
 11
250.8258824044673
 21
55.41913255676938
 72
     1
 10
250.8258824044673
 20
55.41913255676938
 11
250.8375912732174
 21
55.2845703380194
 72
     1
 10
250.8375912732174
 20
55.2845703380194
 11
250.8571033232173
 21
55.14938553801932
 72
     1
 10
250.8571033232173
 20
55.14938553801932
 11
250.8844225794672
 21
55.01544575676935
 72
     1
 10
250.8844225794672
 20
55.01544575676935
 11
250.9195451607172
 21
54.88463038176943
 72
     1
 10
250.9195451607172
 20
54.88463038176943
 11
250.9624748044673
 21
54.75881103801932
 72
     1
 10
250.9624748044673
 20
54.75881103801932
 11
251.0132077732173
 21
54.63985920676932
 72
     1
 10
251.0132077732173
 20
54.63985920676932
 11
251.0717479482173
 21
54.52965025051942
 72
     1
 10
251.0717479482173
 20
54.52965025051942
 11
251.1380913044673
 21
54.43005191301935
 72
     1
 10
251.1380913044673
 20
54.43005191301935
 11
251.2122420107171
 21
54.33951370676941
 72
     1
 10
251.2122420107171
 20
54.33951370676941
 11
251.2941997794672
 21
54.25521640676938
 72
     1
 10
251.2941997794672
 20
54.25521640676938
 11
251.3839569919672
 21
54.1771641817694
 72
     1
 10
251.3839569919672
 20
54.1771641817694
 11
251.481525148217
 21
54.10535688801939
 72
     1
 10
251.481525148217
 20
54.10535688801939
 11
251.5868927482173
 21
54.03979064426941
 72
     1
 10
251.5868927482173
 20
54.03979064426941
 11
251.7000714357174
 21
53.98047335676942
 72
     1
 10
251.7000714357174
 20
53.98047335676942
 11
251.8210534482172
 21
53.92739697551934
 72
     1
 10
251.8210534482172
 20
53.92739697551934
 11
251.9498386419672
 21
53.8805656692694
 72
     1
 10
251.9498386419672
 20
53.8805656692694
 11
252.0864310419674
 21
53.83997929426936
 72
     1
 10
252.0864310419674
 20
53.83997929426936
 11
252.2308267669672
 21
53.80563396926934
 72
     1
 10
252.2308267669672
 20
53.80563396926934
 11
254.7285024232172
 21
53.80563396926934
 72
     2
 10
254.7002495107172
 20
53.33732047551936
 40
0.4691649555252893
 50
273.4524160671027
 51
446.547583932899
 73
     0
 72
     1
 10
254.7285024232172
 20
52.86900698176937
 11
250.8258824044673
 21
52.86900698176937
 72
     1
 10
250.8258824044673
 20
52.86900698176937
 11
250.8258824044673
 21
51.3079581692694
 97
        0
 75
     0
 76
     1
 98
        1
 10
0.0
 20
0.0
  0
HATCH
  5
156
330
AC
100
AcDbEntity
  8
FORMAT
100
AcDbHatch
 10
0.0
 20
0.0
 30
0.0
210
0.0
220
0.0
230
1.0
  2
SOLID
 70
     1
 71
     0
 91
        2
 92
        0
 93
        7
 72
     1
 10
259.0994359357174
 20
53.64952951926931
 11
260.8165893498421
 21
53.64952951926931
 72
     2
 10
260.7093718271548
 20
55.60083952842803
 40
1.954253399386604
 50
273.1450361254262
 51
446.8549641058011
 73
     1
 72
     1
 10
260.8165893419673
 20
57.55214953801939
 11
257.3822866982173
 21
57.55214953801939
 72
     1
 10
257.3822866982173
 20
57.55214953801939
 11
257.3822866982173
 21
56.14720517551934
 72
     1
 10
257.3822866982173
 20
56.14720517551934
 11
257.3822866982173
 21
51.3079581692694
 72
     1
 10
257.3822866982173
 20
51.3079581692694
 11
259.0994359357174
 21
51.3079581692694
 72
     1
 10
259.0994359357174
 20
51.3079581692694
 11
259.0994359357174
 21
53.64952951926931
 97
        0
 92
        0
 93
        4
 72
     2
 10
260.3154288045279
 20
55.67889174358191
 40
0.5049951669579607
 50
291.9727052320235
 51
428.0272886655102
 73
     0
 72
     1
 10
260.5043802982171
 20
55.21057833176938
 11
259.0994359357174
 21
55.21057833176938
 72
     1
 10
259.0994359357174
 20
55.21057833176938
 11
259.0994359357174
 21
56.14720517551934
 72
     1
 10
259.0994359357174
 20
56.14720517551934
 11
260.5043802483379
 21
56.14720517551934
 97
        0
 75
     0
 76
     1
 98
        1
 10
0.0
 20
0.0
  0
INSERT
  5
15C
330
AC
100
AcDbEntity
  8
FORMAT
 62
     7
100
AcDbBlockReference
  2
SW_NOTE_4
 10
84.4023435926
 20
48.0045576118
 30
0.0
  0
INSERT
  5
162
330
AC
100
AcDbEntity
  8
FORMAT
 62
     7
100
AcDbBlockReference
  2
SW_NOTE_5
 10
99.731642096
 20
57.4664461877
 30
0.0
  0
MTEXT
  5
163
330
AC
100
AcDbEntity
  8
FORMAT
100
AcDbMText
 10
238.8487034198
 20
42.0504620181
 30
0.0
 40
1.5
 41
0.0
 71
     1
 72
     1
  1
Iso - Meth.
  7
SLDTEXTSTYLE0
 73
     1
 44
1.0
  0
INSERT
  5
169
330
AC
100
AcDbEntity
  8
FORMAT
 62
     7
100
AcDbBlockReference
  2
SW_NOTE_6
 10
84.308808961
 20
52.6573600979
 30
0.0
  0
INSERT
  5
16F
330
AC
100
AcDbEntity
  8
FORMAT
 62
     7
100
AcDbBlockReference
  2
SW_NOTE_7
 10
265.9492345861
 20
22.1125019002
 30
0.0
  0
MTEXT
  5
170
330
AC
100
AcDbEntity
  8
FORMAT
100
AcDbMText
 10
243.5446277756
 20
39.5634575357
 30
0.0
 40
2.1166666667
 41
0.0
 71
     2
 72
     1
  1
E
  7
SLDTEXTSTYLE0
 73
     1
 44
1.0
  0
INSERT
  5
176
330
AC
100
AcDbEntity
  8
FORMAT
 62
     7
100
AcDbBlockReference
  2
SW_NOTE_8
 10
144.5259065258
 20
57.7124270372
 30
0.0
  0
INSERT
  5
17C
330
AC
100
AcDbEntity
  8
FORMAT
 62
     7
100
AcDbBlockReference
  2
SW_NOTE_9
 10
124.6474596599
 20
57.4664461877
 30
0.0
  0
INSERT
  5
186
330
AC
100
AcDbEntity
  8
FORMAT
 62
     7
100
AcDbBlockReference
  2
SW_NOTE_10
 10
218.0073224386
 20
57.1679496311
 30
0.0
  0
INSERT
  5
18C
330
AC
100
AcDbEntity
  8
FORMAT
 62
     7
100
AcDbBlockReference
  2
SW_NOTE_11
 10
250.3510071955
 20
40.0446701898
 30
0.0
  0
MTEXT
  5
18D
330
AC
100
AcDbEntity
  8
FORMAT
100
AcDbMText
 10
250.6782128177
 20
47.2541353704
 30
0.0
 40
3.5
 41
0.0
 71
     1
 72
     1
  1
D-46397 Bocholt
  7
SLDTEXTSTYLE0
 73
     1
 44
1.0
  0
INSERT
  5
193
330
AC
100
AcDbEntity
  8
FORMAT
 62
     7
100
AcDbBlockReference
  2
SW_NOTE_12
 10
85.1134267932
 20
10.1351418887
 30
0.0
  0
INSERT
  5
199
330
AC
100
AcDbEntity
  8
FORMAT
 62
     7
100
AcDbBlockReference
  2
SW_NOTE_13
 10
104.9652183652
 20
36.4419310882
 30
0.0
  0
MTEXT
  5
19A
330
AC
100
AcDbEntity
  8
FORMAT
100
AcDbMText
 10
86.7923681249
 20
23.2613072165
 30
0.0
 40
1.2
 41
0.0
 71
     1
 72
     1
  1
8mm - 20mm
  7
SLDTEXTSTYLE0
 73
     1
 44
1.0
  0
MTEXT
  5
19B
330
AC
100
AcDbEntity
  8
FORMAT
100
AcDbMText
 10
109.2303995128
 20
22.9322425701
 30
0.0
 40
1.2
 41
0.0
 71
     1
 72
     1
  1
R = t
  7
SLDTEXTSTYLE0
 73
     1
 44
1.0
  0
MTEXT
  5
19C
330
AC
100
AcDbEntity
  8
FORMAT
100
AcDbMText
 10
132.7820575602
 20
23.2613072165
 30
0.0
 40
1.2
 41
0.0
 71
     1
 72
     1
  1
0,4
  7
SLDTEXTSTYLE0
 73
     1
 44
1.0
  0
MTEXT
  5
19D
330
AC
100
AcDbEntity
  8
FORMAT
100
AcDbMText
 10
132.4407033894
 20
27.9392957601
 30
0.0
 40
1.2
 41
0.0
 71
     1
 72
     1
  1
0,28
  7
SLDTEXTSTYLE0
 73
     1
 44
1.0
  0
MTEXT
  5
19E
330
AC
100
AcDbEntity
  8
FORMAT
100
AcDbMText
 10
109.2303995128
 20
27.4274174214
 30
0.0
 40
1.2
 41
0.0
 71
     1
 72
     1
  1
R = t
  7
SLDTEXTSTYLE0
 73
     1
 44
1.0
  0
MTEXT
  5
19F
330
AC
100
AcDbEntity
  8
FORMAT
100
AcDbMText
 10
87.5946606134
 20
27.9392957601
 30
0.0
 40
1.2
 41
0.0
 71
     1
 72
     1
  1
5mm - 6mm
  7
SLDTEXTSTYLE0
 73
     1
 44
1.0
  0
MTEXT
  5
1A0
330
AC
100
AcDbEntity
  8
FORMAT
100
AcDbMText
 10
86.2900769894
 20
32.5061080992
 30
0.0
 40
1.2
 41
0.0
 71
     1
 72
     1
  1
0,5mm - 4mm
  7
SLDTEXTSTYLE0
 73
     1
 44
1.0
  0
MTEXT
  5
1A1
330
AC
100
AcDbEntity
  8
FORMAT
100
AcDbMText
 10
109.2303995128
 20
32.5061080992
 30
0.0
 40
1.2
 41
0.0
 71
     1
 72
     1
  1
R = t
  7
SLDTEXTSTYLE0
 73
     1
 44
1.0
  0
MTEXT
  5
1A2
330
AC
100
AcDbEntity
  8
FORMAT
100
AcDbMText
 10
131.6382034487
 20
32.5061080992
 30
0.0
 40
1.2
 41
0.0
 71
     1
 72
     1
  1
0,325
  7
SLDTEXTSTYLE0
 73
     1
 44
1.0
  0
INSERT
  5
1A8
330
AC
100
AcDbEntity
  8
FORMAT
 62
     7
100
AcDbBlockReference
  2
SW_NOTE_14
 10
126.7577870089
 20
36.4419310882
 30
0.0
  0
INSERT
  5
1AE
330
AC
100
AcDbEntity
  8
FORMAT
 62
     7
100
AcDbBlockReference
  2
SW_NOTE_15
 10
86.251275297
 20
36.4419310882
 30
0.0
  0
INSERT
  5
1B4
330
AC
100
AcDbEntity
  8
FORMAT
 62
     7
100
AcDbBlockReference
  2
SW_NOTE_16
 10
90.3675541366
 20
42.4049096548
 30
0.0
  0
INSERT
  5
1BA
330
AC
100
AcDbEntity
  8
FORMAT
 62
     7
100
AcDbBlockReference
  2
SW_NOTE_17
 10
91.2995875107
 20
16.2441989686
 30
0.0
  0
INSERT
  5
1C0
330
AC
100
AcDbEntity
  8
FORMAT
 62
     7
100
AcDbBlockReference
  2
SW_NOTE_18
 10
250.3605515549
 20
31.0218223762
 30
0.0
  0
INSERT
  5
1C6
330
AC
100
AcDbEntity
  8
FORMAT
 62
     7
100
AcDbBlockReference
  2
SW_NOTE_19
 10
250.3282389867
 20
22.1125019002
 30
0.0
  0
ATTDEF
  5
1C7
330
AC
100
AcDbEntity
  8
FORMAT
 62
     7
100
AcDbText
 10
153.9040237826
 20
38.2401414124
 30
0.0
 40
2.1166666667
  1
1.0978 (S355MC)
 41
0.96
  7
SLDTEXTSTYLE0
 11
153.9040237826
 21
36.8349309945
 31
0.0
100
AcDbAttributeDefinition
  3

  2
AUTOATTR150
 70
     0
 74
     1
  0
ATTDEF
  5
1C8
330
AC
100
AcDbEntity
  8
FORMAT
 62
     7
100
AcDbText
 10
250.3605515549
 20
27.5853022667
 30
0.0
 40
3.7041666667
  1
3900575
 41
0.96
  7
SLDTEXTSTYLE0
 11
250.3605515549
 21
25.1261840352
 31
0.0
100
AcDbAttributeDefinition
  3

  2
AUTOATTR102
 70
     0
 74
     1
  0
ATTDEF
  5
1C9
330
AC
100
AcDbEntity
  8
FORMAT
 62
     7
100
AcDbText
 10
146.0827411477
 20
17.3873253806
 30
0.0
 40
3.7041666667
  1
Siebtraverse
 41
0.96
  7
SLDTEXTSTYLE0
 11
146.0827411477
 21
14.9282071491
 31
0.0
100
AcDbAttributeDefinition
  3

  2
AUTOATTR2700
 70
     0
 74
     1
  0
ATTDEF
  5
1CA
330
AC
100
AcDbEntity
  8
FORMAT
 62
     7
100
AcDbText
 10
0.0
 20
0.0
 30
0.0
 40
1.0
  1

100
AcDbAttributeDefinition
  3

  2
AUTOATTR2600
 70
     0
  0
ATTDEF
  5
1CB
330
AC
100
AcDbEntity
  8
FORMAT
 62
     7
100
AcDbText
 10
146.0827411477
 20
30.31415766
 30
0.0
 40
3.7041666667
  1
Endblech
 41
0.96
  7
SLDTEXTSTYLE0
 11
146.0827411477
 21
27.8550394286
 31
0.0
100
AcDbAttributeDefinition
  3

  2
AUTOATTR2500
 70
     0
 74
     1
  0
ATTDEF
  5
1CC
330
AC
100
AcDbEntity
  8
FORMAT
 62
     7
100
AcDbText
 10
144.7991741775
 20
41.1159408002
 30
0.0
 40
1.5
  1
Werkstoff
 41
0.96
  7
SLDTEXTSTYLE0
 11
144.7991741775
 21
40.1201223938
 31
0.0
100
AcDbAttributeDefinition
  3

  2
MATERIAL_0
 70
     0
 74
     1
  0
ATTDEF
  5
1CD
330
AC
100
AcDbEntity
  8
FORMAT
 62
     7
100
AcDbText
 10
144.7991741775
 20
38.7167771308
 30
0.0
 40
1.2
  1
[material]
 41
0.96
  7
SLDTEXTSTYLE0
 11
144.7991741775
 21
37.9201224057
 31
0.0
100
AcDbAttributeDefinition
  3

  2
MATERIAL_1
 70
     0
 74
     1
  0
ATTDEF
  5
1CE
330
AC
100
AcDbEntity
  8
FORMAT
 62
     7
100
AcDbText
 10
170.0442953451
 20
54.3170575002
 30
0.0
 40
2.5
  1
Schweißverfahren nach
 41
0.96
  7
SLDTEXTSTYLE0
 11
170.0442953451
 21
52.6573601561
 31
0.0
100
AcDbAttributeDefinition
  3

  2
AUTOATTR9_0
 70
     0
 74
     1
  0
ATTDEF
  5
1CF
330
AC
100
AcDbEntity
  8
FORMAT
 62
     7
100
AcDbText
 10
179.349634186
 20
51.254014835
 30
0.0
 40
1.2
  1
[welded construction]
 41
0.96
  7
SLDTEXTSTYLE0
 11
179.349634186
 21
50.4573601098
 31
0.0
100
AcDbAttributeDefinition
  3

  2
AUTOATTR9_1
 70
     0
 74
     1
  0
ATTDEF
  5
1D0
330
AC
100
AcDbEntity
  8
FORMAT
 62
     7
100
AcDbText
 10
178.154322174
 20
48.5441409001
 30
0.0
 40
2.5
  1
SPN 6.2-100
 41
0.96
  7
SLDTEXTSTYLE0
 11
178.154322174
 21
46.884443556
 31
0.0
100
AcDbAttributeDefinition
  3

  2
AUTOATTR9_2
 70
     0
 74
     1
  0
ATTDEF
  5
1D1
330
AC
100
AcDbEntity
  8
FORMAT
 62
     7
100
AcDbText
 10
265.9492345861
 20
15.7659041273
 30
0.0
 40
3.5
  1
1 / 1
 41
0.96
  7
SLDTEXTSTYLE0
 11
265.9492345861
 21
13.4423278456
 31
0.0
100
AcDbAttributeDefinition
  3

  2
AUTOATTR10
 70
     0
 74
     1
  0
ATTDEF
  5
1D2
330
AC
100
AcDbEntity
  8
FORMAT
 62
     7
100
AcDbText
 10
194.4455781892
 20
38.2401414124
 30
0.0
 40
2.1166666667
  1
0.1
 41
0.96
  7
SLDTEXTSTYLE0
 11
194.4455781892
 21
36.8349309945
 31
0.0
100
AcDbAttributeDefinition
  3

  2
AUTOATTR99
 70
     0
 74
     1
  0
ATTDEF
  5
1D3
330
AC
100
AcDbEntity
  8
FORMAT
 62
     7
100
AcDbText
 10
149.6087214027
 20
48.573991727
 30
0.0
 40
3.5
  1
1:1
 41
0.96
  7
SLDTEXTSTYLE0
 11
149.6087214027
 21
46.2504154454
 31
0.0
100
AcDbAttributeDefinition
  3

  2
AUTOATTR15
 70
     0
 74
     1
  0
ATTDEF
  5
1D4
330
AC
100
AcDbEntity
  8
FORMAT
 62
     7
100
AcDbText
 10
217.4904462645
 20
11.3924871247
 30
0.0
 40
1.8
  1
1000540
 41
0.96
  7
SLDTEXTSTYLE0
 11
217.4904462645
 21
10.197505037
 31
0.0
100
AcDbAttributeDefinition
  3

  2
AUTOATTR16
 70
     0
 74
     1
  0
ATTDEF
  5
1D5
330
AC
100
AcDbEntity
  8
FORMAT
 62
     7
100
AcDbText
 10
279.7697370617
 20
20.0353473617
 30
0.0
 40
2.5
  1
A4
 41
0.96
  7
SLDTEXTSTYLE0
 11
279.7697370617
 21
18.3756500176
 31
0.0
100
AcDbAttributeDefinition
  3

  2
AUTOATTR20
 70
     0
 74
     1
  0
ATTDEF
  5
1D6
330
AC
100
AcDbEntity
  8
FORMAT
 62
     7
100
AcDbText
 10
187.2764397118
 20
41.0767662758
 30
0.0
 40
1.5
  1
Gewicht
 41
0.96
  7
SLDTEXTSTYLE0
 11
187.2764397118
 21
40.0809478694
 31
0.0
100
AcDbAttributeDefinition
  3

  2
WERKSTOFF99_0
 70
     0
 74
     1
  0
ATTDEF
  5
1D7
330
AC
100
AcDbEntity
  8
FORMAT
 62
     7
100
AcDbText
 10
187.2764397118
 20
38.6776026065
 30
0.0
 40
1.2
  1
[weight]
 41
0.96
  7
SLDTEXTSTYLE0
 11
187.2764397118
 21
37.8809478813
 31
0.0
100
AcDbAttributeDefinition
  3

  2
WERKSTOFF99_1
 70
     0
 74
     1
  0
ATTDEF
  5
1D8
330
AC
100
AcDbEntity
  8
FORMAT
 62
     7
100
AcDbText
 10
224.8730303669
 20
38.2401414124
 30
0.0
 40
2.1166666667
  1
0.0
 41
0.96
  7
SLDTEXTSTYLE0
 11
224.8730303669
 21
36.8349309945
 31
0.0
100
AcDbAttributeDefinition
  3

  2
AUTOATTR13
 70
     0
 74
     1
  0
ATTDEF
  5
1D9
330
AC
100
AcDbEntity
  8
FORMAT
 62
     7
100
AcDbText
 10
213.3621454786
 20
41.046859433
 30
0.0
 40
1.5
  1
Oberfläche
 41
0.96
  7
SLDTEXTSTYLE0
 11
213.3621454786
 21
40.0510410265
 31
0.0
100
AcDbAttributeDefinition
  3

  2
WERKSTOFF_0
 70
     0
 74
     1
  0
ATTDEF
  5
1DA
330
AC
100
AcDbEntity
  8
FORMAT
 62
     7
100
AcDbText
 10
213.3621454786
 20
38.6476957636
 30
0.0
 40
1.2
  1
[surface area]
 41
0.96
  7
SLDTEXTSTYLE0
 11
213.3621454786
 21
37.8510410385
 31
0.0
100
AcDbAttributeDefinition
  3

  2
WERKSTOFF_1
 70
     0
 74
     1
  0
ATTDEF
  5
1DB
330
AC
100
AcDbEntity
  8
FORMAT
 62
     7
100
AcDbText
 10
99.731642096
 20
52.6763333513
 30
0.0
 40
2.1166666667
  1
Cluse
 41
0.96
  7
SLDTEXTSTYLE0
 11
99.731642096
 21
51.2711229333
 31
0.0
100
AcDbAttributeDefinition
  3

  2
AUTOATTR250
 70
     0
 74
     1
  0
ATTDEF
  5
1DC
330
AC
100
AcDbEntity
  8
FORMAT
 62
     7
100
AcDbText
 10
124.5449025633
 20
47.8595883578
 30
0.0
 40
2.1166666667
  1
18.04.2016
 41
0.96
  7
SLDTEXTSTYLE0
 11
124.5449025633
 21
46.4543779398
 31
0.0
100
AcDbAttributeDefinition
  3

  2
AUTOATTR253
 70
     0
 74
     1
  0
ATTDEF
  5
1DD
330
AC
100
AcDbEntity
  8
FORMAT
 62
     7
100
AcDbText
 10
124.4997874202
 20
52.5560138239
 30
0.0
 40
2.1166666667
  1
23.08.2010
 41
0.96
  7
SLDTEXTSTYLE0
 11
124.4997874202
 21
51.1508034059
 31
0.0
100
AcDbAttributeDefinition
  3

  2
AUTOATTR251
 70
     0
 74
     1
  0
ATTDEF
  5
1DE
330
AC
100
AcDbEntity
  8
FORMAT
 62
     7
100
AcDbText
 10
99.6906008108
 20
47.8595883578
 30
0.0
 40
2.1166666667
  1
Tetiet
 41
0.96
  7
SLDTEXTSTYLE0
 11
99.6906008108
 21
46.4543779398
 31
0.0
100
AcDbAttributeDefinition
  3

  2
AUTOATTR252
 70
     0
 74
     1
  0
ATTDEF
  5
1DF
330
AC
100
AcDbEntity
  8
FORMAT
 62
     7
100
AcDbText
 10
252.883020091
 20
15.7659041273
 30
0.0
 40
3.5
  1
014
 41
0.96
  7
SLDTEXTSTYLE0
 11
252.883020091
 21
13.4423278456
 31
0.0
100
AcDbAttributeDefinition
  3

  2
AUTOATTR700
 70
     0
 74
     1
  0
ATTDEF
  5
1E0
330
AC
100
AcDbEntity
  8
FORMAT
 62
     7
100
AcDbText
 10
250.3605515549
 20
36.2364733778
 30
0.0
 40
3.7041666667
  1
1000540
 41
0.96
  7
SLDTEXTSTYLE0
 11
250.3605515549
 21
33.7773551464
 31
0.0
100
AcDbAttributeDefinition
  3

  2
AUTOATTR1250
 70
     0
 74
     1
  0
ENDBLK
  5
AE
330
AC
100
AcDbEntity
  8
0
100
AcDbBlockEnd
  0
BLOCK
  5
158
330
157
100
AcDbEntity
  8
0
100
AcDbBlockBegin
  2
SW_NOTE_4
 70
     0
 10
0.0
 20
0.0
 30
0.0
  3
SW_NOTE_4
  1
SW_NOTE_4
  0
MTEXT
  5
15A
330
157
100
AcDbEntity
  8
FORMAT
 62
     0
100
AcDbMText
 10
0.0
 20
1.9336016097
 30
0.0
 40
1.5
 41
0.0
 71
     1
 72
     1
  1
Geprüft
  7
SLDTEXTSTYLE0
 73
     1
 44
1.0
  0
MTEXT
  5
15B
330
157
100
AcDbEntity
  8
FORMAT
 62
     0
100
AcDbMText
 10
0.0
 20
-0.6531187004
 30
0.0
 40
1.2
 41
0.0
 71
     1
 72
     1
  1
[checked]
  7
SLDTEXTSTYLE0
 73
     1
 44
1.0
  0
ENDBLK
  5
159
330
157
100
AcDbEntity
  8
0
100
AcDbBlockEnd
  0
BLOCK
  5
15E
330
15D
100
AcDbEntity
  8
0
100
AcDbBlockBegin
  2
SW_NOTE_5
 70
     0
 10
0.0
 20
0.0
 30
0.0
  3
SW_NOTE_5
  1
SW_NOTE_5
  0
MTEXT
  5
160
330
15D
100
AcDbEntity
  8
FORMAT
 62
     0
100
AcDbMText
 10
0.0
 20
1.9336016097
 30
0.0
 40
1.5
 41
0.0
 71
     1
 72
     1
  1
Name
  7
SLDTEXTSTYLE0
 73
     1
 44
1.0
  0
MTEXT
  5
161
330
15D
100
AcDbEntity
  8
FORMAT
 62
     0
100
AcDbMText
 10
0.0
 20
-0.6531187004
 30
0.0
 40
1.2
 41
0.0
 71
     1
 72
     1
  1
[name]
  7
SLDTEXTSTYLE0
 73
     1
 44
1.0
  0
ENDBLK
  5
15F
330
15D
100
AcDbEntity
  8
0
100
AcDbBlockEnd
  0
BLOCK
  5
165
330
164
100
AcDbEntity
  8
0
100
AcDbBlockBegin
  2
SW_NOTE_6
 70
     0
 10
0.0
 20
0.0
 30
0.0
  3
SW_NOTE_6
  1
SW_NOTE_6
  0
MTEXT
  5
167
330
164
100
AcDbEntity
  8
FORMAT
 62
     0
100
AcDbMText
 10
0.0
 20
1.9336016097
 30
0.0
 40
1.5
 41
0.0
 71
     1
 72
     1
  1
Gezeichnet
  7
SLDTEXTSTYLE0
 73
     1
 44
1.0
  0
MTEXT
  5
168
330
164
100
AcDbEntity
  8
FORMAT
 62
     0
100
AcDbMText
 10
0.0
 20
-0.6531187004
 30
0.0
 40
1.2
 41
0.0
 71
     1
 72
     1
  1
[drawn]
  7
SLDTEXTSTYLE0
 73
     1
 44
1.0
  0
ENDBLK
  5
166
330
164
100
AcDbEntity
  8
0
100
AcDbBlockEnd
  0
BLOCK
  5
16B
330
16A
100
AcDbEntity
  8
0
100
AcDbBlockBegin
  2
SW_NOTE_7
 70
     0
 10
0.0
 20
0.0
 30
0.0
  3
SW_NOTE_7
  1
SW_NOTE_7
  0
MTEXT
  5
16D
330
16A
100
AcDbEntity
  8
FORMAT
 62
     0
100
AcDbMText
 10
0.0
 20
1.9336016097
 30
0.0
 40
1.5
 41
0.0
 71
     1
 72
     1
  1
Blatt
  7
SLDTEXTSTYLE0
 73
     1
 44
1.0
  0
MTEXT
  5
16E
330
16A
100
AcDbEntity
  8
FORMAT
 62
     0
100
AcDbMText
 10
0.0
 20
-0.6531187004
 30
0.0
 40
1.2
 41
0.0
 71
     1
 72
     1
  1
[page]
  7
SLDTEXTSTYLE0
 73
     1
 44
1.0
  0
ENDBLK
  5
16C
330
16A
100
AcDbEntity
  8
0
100
AcDbBlockEnd
  0
BLOCK
  5
172
330
171
100
AcDbEntity
  8
0
100
AcDbBlockBegin
  2
SW_NOTE_8
 70
     0
 10
0.0
 20
0.0
 30
0.0
  3
SW_NOTE_8
  1
SW_NOTE_8
  0
MTEXT
  5
174
330
171
100
AcDbEntity
  8
FORMAT
 62
     0
100
AcDbMText
 10
0.0
 20
1.9336016097
 30
0.0
 40
1.5
 41
0.0
 71
     1
 72
     1
  1
Maßstab
  7
SLDTEXTSTYLE0
 73
     1
 44
1.0
  0
MTEXT
  5
175
330
171
100
AcDbEntity
  8
FORMAT
 62
     0
100
AcDbMText
 10
0.0
 20
-0.6531187004
 30
0.0
 40
1.2
 41
0.0
 71
     1
 72
     1
  1
[scale]
  7
SLDTEXTSTYLE0
 73
     1
 44
1.0
  0
ENDBLK
  5
173
330
171
100
AcDbEntity
  8
0
100
AcDbBlockEnd
  0
BLOCK
  5
178
330
177
100
AcDbEntity
  8
0
100
AcDbBlockBegin
  2
SW_NOTE_9
 70
     0
 10
0.0
 20
0.0
 30
0.0
  3
SW_NOTE_9
  1
SW_NOTE_9
  0
MTEXT
  5
17A
330
177
100
AcDbEntity
  8
FORMAT
 62
     0
100
AcDbMText
 10
0.0
 20
1.9336016097
 30
0.0
 40
1.5
 41
0.0
 71
     1
 72
     1
  1
Datum
  7
SLDTEXTSTYLE0
 73
     1
 44
1.0
  0
MTEXT
  5
17B
330
177
100
AcDbEntity
  8
FORMAT
 62
     0
100
AcDbMText
 10
0.0
 20
-0.6531187004
 30
0.0
 40
1.2
 41
0.0
 71
     1
 72
     1
  1
[date]
  7
SLDTEXTSTYLE0
 73
     1
 44
1.0
  0
ENDBLK
  5
179
330
177
100
AcDbEntity
  8
0
100
AcDbBlockEnd
  0
BLOCK
  5
17E
330
17D
100
AcDbEntity
  8
0
100
AcDbBlockBegin
  2
SW_NOTE_10
 70
     0
 10
0.0
 20
0.0
 30
0.0
  3
SW_NOTE_10
  1
SW_NOTE_10
  0
MTEXT
  5
180
330
17D
100
AcDbEntity
  8
FORMAT
 62
     0
100
AcDbMText
 10
0.0
 20
2.3203219316
 30
0.0
 40
1.8
 41
0.0
 71
     1
 72
     1
  1
Allgemeintoleranzen nach
  7
SLDTEXTSTYLE0
 73
     1
 44
1.0
  0
MTEXT
  5
181
330
17D
100
AcDbEntity
  8
FORMAT
 62
     0
100
AcDbMText
 10
0.0
 20
-0.9531188892
 30
0.0
 40
1.2
 41
0.0
 71
     1
 72
     1
  1
[general tolerance]
  7
SLDTEXTSTYLE0
 73
     1
 44
1.0
  0
MTEXT
  5
182
330
17D
100
AcDbEntity
  8
FORMAT
 62
     0
100
AcDbMText
 10
0.0
 20
-3.2796781016
 30
0.0
 40
1.8
 41
0.0
 71
     1
 72
     1
  1
DIN ISO 2768 - m - k
  7
SLDTEXTSTYLE0
 73
     1
 44
1.0
  0
MTEXT
  5
183
330
17D
100
AcDbEntity
  8
FORMAT
 62
     0
100
AcDbMText
 10
0.0
 20
-6.3796781906
 30
0.0
 40
1.8
 41
0.0
 71
     1
 72
     1
  1
für Schweißkonstruktionen
  7
SLDTEXTSTYLE0
 73
     1
 44
1.0
  0
MTEXT
  5
184
330
17D
100
AcDbEntity
  8
FORMAT
 62
     0
100
AcDbMText
 10
0.0
 20
-9.6531190114
 30
0.0
 40
1.2
 41
0.0
 71
     1
 72
     1
  1
[welded construction]
  7
SLDTEXTSTYLE0
 73
     1
 44
1.0
  0
MTEXT
  5
185
330
17D
100
AcDbEntity
  8
FORMAT
 62
     0
100
AcDbMText
 10
0.0
 20
-11.9796782238
 30
0.0
 40
1.8
 41
0.0
 71
     1
 72
     1
  1
DIN EN ISO 13920 - B-F
  7
SLDTEXTSTYLE0
 73
     1
 44
1.0
  0
ENDBLK
  5
17F
330
17D
100
AcDbEntity
  8
0
100
AcDbBlockEnd
  0
BLOCK
  5
188
330
187
100
AcDbEntity
  8
0
100
AcDbBlockBegin
  2
SW_NOTE_11
 70
     0
 10
0.0
 20
0.0
 30
0.0
  3
SW_NOTE_11
  1
SW_NOTE_11
  0
MTEXT
  5
18A
330
187
100
AcDbEntity
  8
FORMAT
 62
     0
100
AcDbMText
 10
0.0
 20
1.9336016097
 30
0.0
 40
1.5
 41
0.0
 71
     1
 72
     1
  1
Zeichnungsnummer /
  7
SLDTEXTSTYLE0
 73
     1
 44
1.0
  0
MTEXT
  5
18B
330
187
100
AcDbEntity
  8
FORMAT
 62
     0
100
AcDbMText
 10
18.1546881795
 20
1.6756312786
 30
0.0
 40
1.2
 41
0.0
 71
     1
 72
     1
  1
[Drwg.-No.]
  7
SLDTEXTSTYLE0
 73
     1
 44
1.0
  0
ENDBLK
  5
189
330
187
100
AcDbEntity
  8
0
100
AcDbBlockEnd
  0
BLOCK
  5
18F
330
18E
100
AcDbEntity
  8
0
100
AcDbBlockBegin
  2
SW_NOTE_12
 70
     0
 10
0.0
 20
0.0
 30
0.0
  3
SW_NOTE_12
  1
SW_NOTE_12
  0
MTEXT
  5
191
330
18E
100
AcDbEntity
  8
FORMAT
 62
     0
100
AcDbMText
 10
0.0
 20
1.9336016097
 30
0.0
 40
1.5
 41
0.0
 71
     1
 72
     1
  1
Diese Zeichnung hat gesetzlichen Schutz nach DIN 34 /
  7
SLDTEXTSTYLE0
 73
     1
 44
1.0
  0
MTEXT
  5
192
330
18E
100
AcDbEntity
  8
FORMAT
 62
     0
100
AcDbMText
 10
49.5750010014
 20
1.6756312786
 30
0.0
 40
1.2
 41
0.0
 71
     1
 72
     1
  1
[all rights reserved DIN 34]
  7
SLDTEXTSTYLE0
 73
     1
 44
1.0
  0
ENDBLK
  5
190
330
18E
100
AcDbEntity
  8
0
100
AcDbBlockEnd
  0
BLOCK
  5
195
330
194
100
AcDbEntity
  8
0
100
AcDbBlockBegin
  2
SW_NOTE_13
 70
     0
 10
0.0
 20
0.0
 30
0.0
  3
SW_NOTE_13
  1
SW_NOTE_13
  0
MTEXT
  5
197
330
194
100
AcDbEntity
  8
FORMAT
 62
     0
100
AcDbMText
 10
4.9921875
 20
1.9336016097
 30
0.0
 40
1.5
 41
0.0
 71
     2
 72
     1
  1
Innenradius
  7
SLDTEXTSTYLE0
 73
     1
 44
1.0
  0
MTEXT
  5
198
330
194
100
AcDbEntity
  8
FORMAT
 62
     0
100
AcDbMText
 10
5.0063273415
 20
-0.6531187004
 30
0.0
 40
1.2
 41
0.0
 71
     2
 72
     1
  1
[inside radius]
  7
SLDTEXTSTYLE0
 73
     1
 44
1.0
  0
ENDBLK
  5
196
330
194
100
AcDbEntity
  8
0
100
AcDbBlockEnd
  0
BLOCK
  5
1A4
330
1A3
100
AcDbEntity
  8
0
100
AcDbBlockBegin
  2
SW_NOTE_14
 70
     0
 10
0.0
 20
0.0
 30
0.0
  3
SW_NOTE_14
  1
SW_NOTE_14
  0
MTEXT
  5
1A6
330
1A3
100
AcDbEntity
  8
FORMAT
 62
     0
100
AcDbMText
 10
7.3125
 20
1.9336016097
 30
0.0
 40
1.5
 41
0.0
 71
     2
 72
     1
  1
Korrekturfaktor
  7
SLDTEXTSTYLE0
 73
     1
 44
1.0
  0
MTEXT
  5
1A7
330
1A3
100
AcDbEntity
  8
FORMAT
 62
     0
100
AcDbMText
 10
7.3162483789
 20
-0.6531187004
 30
0.0
 40
1.2
 41
0.0
 71
     2
 72
     1
  1
[correction factor]
  7
SLDTEXTSTYLE0
 73
     1
 44
1.0
  0
ENDBLK
  5
1A5
330
1A3
100
AcDbEntity
  8
0
100
AcDbBlockEnd
  0
BLOCK
  5
1AA
330
1A9
100
AcDbEntity
  8
0
100
AcDbBlockBegin
  2
SW_NOTE_15
 70
     0
 10
0.0
 20
0.0
 30
0.0
  3
SW_NOTE_15
  1
SW_NOTE_15
  0
MTEXT
  5
1AC
330
1A9
100
AcDbEntity
  8
FORMAT
 62
     0
100
AcDbMText
 10
4.5703125
 20
1.9336016097
 30
0.0
 40
1.5
 41
0.0
 71
     2
 72
     1
  1
Blechdicke
  7
SLDTEXTSTYLE0
 73
     1
 44
1.0
  0
MTEXT
  5
1AD
330
1A9
100
AcDbEntity
  8
FORMAT
 62
     0
100
AcDbMText
 10
4.5994006075
 20
-0.6531187004
 30
0.0
 40
1.2
 41
0.0
 71
     2
 72
     1
  1
[thick plate]
  7
SLDTEXTSTYLE0
 73
     1
 44
1.0
  0
ENDBLK
  5
1AB
330
1A9
100
AcDbEntity
  8
0
100
AcDbBlockEnd
  0
BLOCK
  5
1B0
330
1AF
100
AcDbEntity
  8
0
100
AcDbBlockBegin
  2
SW_NOTE_16
 70
     0
 10
0.0
 20
0.0
 30
0.0
  3
SW_NOTE_16
  1
SW_NOTE_16
  0
MTEXT
  5
1B2
330
1AF
100
AcDbEntity
  8
FORMAT
 62
     0
100
AcDbMText
 10
23.9296875
 20
1.9336016097
 30
0.0
 40
1.5
 41
0.0
 71
     2
 72
     1
  1
verwendete Korrekturfaktoren für Blechabwicklungen
  7
SLDTEXTSTYLE0
 73
     1
 44
1.0
  0
MTEXT
  5
1B3
330
1AF
100
AcDbEntity
  8
FORMAT
 62
     0
100
AcDbMText
 10
23.8402089626
 20
-0.6531187004
 30
0.0
 40
1.2
 41
0.0
 71
     2
 72
     1
  1
[correction factors used for sheet metal developments]
  7
SLDTEXTSTYLE0
 73
     1
 44
1.0
  0
ENDBLK
  5
1B1
330
1AF
100
AcDbEntity
  8
0
100
AcDbBlockEnd
  0
BLOCK
  5
1B6
330
1B5
100
AcDbEntity
  8
0
100
AcDbBlockBegin
  2
SW_NOTE_17
 70
     0
 10
0.0
 20
0.0
 30
0.0
  3
SW_NOTE_17
  1
SW_NOTE_17
  0
MTEXT
  5
1B8
330
1B5
100
AcDbEntity
  8
FORMAT
 62
     0
100
AcDbMText
 10
22.875
 20
1.9336016097
 30
0.0
 40
1.5
 41
0.0
 71
     2
 72
     1
  1
CAD-Zeichnung darf manuell nicht geändert werden!
  7
SLDTEXTSTYLE0
 73
     1
 44
1.0
  0
MTEXT
  5
1B9
330
1B5
100
AcDbEntity
  8
FORMAT
 62
     0
100
AcDbMText
 10
23.0097913027
 20
-0.6531187004
 30
0.0
 40
1.2
 41
0.0
 71
     2
 72
     1
  1
[CAD-drawing do not modify manually!]
  7
SLDTEXTSTYLE0
 73
     1
 44
1.0
  0
ENDBLK
  5
1B7
330
1B5
100
AcDbEntity
  8
0
100
AcDbBlockEnd
  0
BLOCK
  5
1BC
330
1BB
100
AcDbEntity
  8
0
100
AcDbBlockBegin
  2
SW_NOTE_18
 70
     0
 10
0.0
 20
0.0
 30
0.0
  3
SW_NOTE_18
  1
SW_NOTE_18
  0
MTEXT
  5
1BE
330
1BB
100
AcDbEntity
  8
FORMAT
 62
     0
100
AcDbMText
 10
0.0
 20
1.9336016097
 30
0.0
 40
1.5
 41
0.0
 71
     1
 72
     1
  1
Artikelnummer /
  7
SLDTEXTSTYLE0
 73
     1
 44
1.0
  0
MTEXT
  5
1BF
330
1BB
100
AcDbEntity
  8
FORMAT
 62
     0
100
AcDbMText
 10
14.6921873093
 20
1.6756312786
 30
0.0
 40
1.2
 41
0.0
 71
     1
 72
     1
  1
[Id.-No.]
  7
SLDTEXTSTYLE0
 73
     1
 44
1.0
  0
ENDBLK
  5
1BD
330
1BB
100
AcDbEntity
  8
0
100
AcDbBlockEnd
  0
BLOCK
  5
1C2
330
1C1
100
AcDbEntity
  8
0
100
AcDbBlockBegin
  2
SW_NOTE_19
 70
     0
 10
0.0
 20
0.0
 30
0.0
  3
SW_NOTE_19
  1
SW_NOTE_19
  0
MTEXT
  5
1C4
330
1C1
100
AcDbEntity
  8
FORMAT
 62
     0
100
AcDbMText
 10
0.0
 20
1.9336016097
 30
0.0
 40
1.5
 41
0.0
 71
     1
 72
     1
  1
Revision
  7
SLDTEXTSTYLE0
 73
     1
 44
1.0
  0
MTEXT
  5
1C5
330
1C1
100
AcDbEntity
  8
FORMAT
 62
     0
100
AcDbMText
 10
0.0
 20
-0.6531187004
 30
0.0
 40
1.2
 41
0.0
 71
     1
 72
     1
  1
[revision]
  7
SLDTEXTSTYLE0
 73
     1
 44
1.0
  0
ENDBLK
  5
1C3
330
1C1
100
AcDbEntity
  8
0
100
AcDbBlockEnd
  0
BLOCK
  5
242
330
241
100
AcDbEntity
  8
0
100
AcDbBlockBegin
  2
SW_NOTE_20
 70
     0
 10
0.0
 20
0.0
 30
0.0
  3
SW_NOTE_20
  1
SW_NOTE_20
  0
MTEXT
  5
244
330
241
100
AcDbEntity
  8
SP_SPERRLAYER
 62
     0
100
AcDbMText
 10
0.0
 20
4.5117370892
 30
0.0
 40
3.5
 41
0.0
 71
     1
 72
     1
  1
Nicht freigegeben!
  7
SLDTEXTSTYLE0
 73
     1
 44
1.0
  0
MTEXT
  5
245
330
241
100
AcDbEntity
  8
SP_SPERRLAYER
 62
     0
100
AcDbMText
 10
0.0
 20
-0.4903461676
 30
0.0
 40
3.5
 41
0.0
 71
     1
 72
     1
  1
Not approved!
  7
SLDTEXTSTYLE0
 73
     1
 44
1.0
  0
ENDBLK
  5
243
330
241
100
AcDbEntity
  8
0
100
AcDbBlockEnd
  0
BLOCK
  5
25E
330
25D
100
AcDbEntity
  8
0
100
AcDbBlockBegin
  2
_D
 70
     0
 10
0.0
 20
0.0
 30
0.0
  3
_D
  1
_D
  0
SOLID
  5
260
330
25D
100
AcDbEntity
  8
TEXT
100
AcDbTrace
 10
97.3643844177
 20
79.6026737281
 30
0.0
 11
100.6663844177
 21
79.0946737281
 31
0.0
 12
100.6663844177
 22
80.1106737281
 32
0.0
 13
100.6663844177
 23
80.1106737281
 33
0.0
  0
SOLID
  5
261
330
25D
100
AcDbEntity
  8
TEXT
100
AcDbTrace
 10
154.3643844177
 20
79.6026737281
 30
0.0
 11
151.0623844177
 21
80.1106737281
 31
0.0
 12
151.0623844177
 22
79.0946737281
 32
0.0
 13
151.0623844177
 23
79.0946737281
 33
0.0
  0
LINE
  5
262
330
25D
100
AcDbEntity
  8
TEXT
100
AcDbLine
 10
97.3643844177
 20
99.6026737281
 30
0.0
 11
97.3643844177
 21
78.6026737281
 31
0.0
  0
LINE
  5
263
330
25D
100
AcDbEntity
  8
TEXT
100
AcDbLine
 10
154.3643844177
 20
99.6026737281
 30
0.0
 11
154.3643844177
 21
78.6026737281
 31
0.0
  0
LINE
  5
264
330
25D
100
AcDbEntity
  8
TEXT
100
AcDbLine
 10
97.3643844177
 20
79.6026737281
 30
0.0
 11
154.3643844177
 21
79.6026737281
 31
0.0
  0
MTEXT
  5
265
330
25D
100
AcDbEntity
  8
TEXT
100
AcDbMText
 10
123.8427694082
 20
84.1144105845
 30
0.0
 40
3.5
 41
0.0
 71
     1
 72
     1
  1
57
  7
SLDTEXTSTYLE0
 73
     1
 44
1.0
  0
ENDBLK
  5
25F
330
25D
100
AcDbEntity
  8
0
100
AcDbBlockEnd
  0
BLOCK
  5
269
330
268
100
AcDbEntity
  8
0
100
AcDbBlockBegin
  2
_D_1
 70
     0
 10
0.0
 20
0.0
 30
0.0
  3
_D_1
  1
_D_1
  0
SOLID
  5
26B
330
268
100
AcDbEntity
  8
TEXT
100
AcDbTrace
 10
102.3643844177
 20
85.6026737281
 30
0.0
 11
105.6663844177
 21
85.0946737281
 31
0.0
 12
105.6663844177
 22
86.1106737281
 32
0.0
 13
105.6663844177
 23
86.1106737281
 33
0.0
  0
SOLID
  5
26C
330
268
100
AcDbEntity
  8
TEXT
100
AcDbTrace
 10
97.3643844177
 20
85.6026737281
 30
0.0
 11
94.0623844177
 21
86.1106737281
 31
0.0
 12
94.0623844177
 22
85.0946737281
 32
0.0
 13
94.0623844177
 23
85.0946737281
 33
0.0
  0
LINE
  5
26D
330
268
100
AcDbEntity
  8
TEXT
100
AcDbLine
 10
102.3643844177
 20
94.6026737281
 30
0.0
 11
102.3643844177
 21
84.6026737281
 31
0.0
  0
LINE
  5
26E
330
268
100
AcDbEntity
  8
TEXT
100
AcDbLine
 10
97.3643844177
 20
99.6026737281
 30
0.0
 11
97.3643844177
 21
84.6026737281
 31
0.0
  0
LINE
  5
26F
330
268
100
AcDbEntity
  8
TEXT
100
AcDbLine
 10
102.3643844177
 20
85.6026737281
 30
0.0
 11
108.7143844177
 21
85.6026737281
 31
0.0
  0
LINE
  5
270
330
268
100
AcDbEntity
  8
TEXT
100
AcDbLine
 10
102.3643844177
 20
85.6026737281
 30
0.0
 11
97.3643844177
 21
85.6026737281
 31
0.0
  0
LINE
  5
271
330
268
100
AcDbEntity
  8
TEXT
100
AcDbLine
 10
97.3643844177
 20
85.6026737281
 30
0.0
 11
91.0143844177
 21
85.6026737281
 31
0.0
  0
MTEXT
  5
272
330
268
100
AcDbEntity
  8
TEXT
100
AcDbMText
 10
98.6418633281
 20
90.1144105845
 30
0.0
 40
3.5
 41
0.0
 71
     1
 72
     1
  1
5
  7
SLDTEXTSTYLE0
 73
     1
 44
1.0
  0
ENDBLK
  5
26A
330
268
100
AcDbEntity
  8
0
100
AcDbBlockEnd
  0
BLOCK
  5
275
330
274
100
AcDbEntity
  8
0
100
AcDbBlockBegin
  2
_D_2
 70
     0
 10
0.0
 20
0.0
 30
0.0
  3
_D_2
  1
_D_2
  0
SOLID
  5
277
330
274
100
AcDbEntity
  8
TEXT
100
AcDbTrace
 10
87.3643844177
 20
95.6026737281
 30
0.0
 11
86.8563844177
 21
92.3006737281
 31
0.0
 12
87.8723844177
 22
92.3006737281
 32
0.0
 13
87.8723844177
 23
92.3006737281
 33
0.0
  0
SOLID
  5
278
330
274
100
AcDbEntity
  8
TEXT
100
AcDbTrace
 10
87.3643844177
 20
100.6026737281
 30
0.0
 11
87.8723844177
 21
103.9046737281
 31
0.0
 12
86.8563844177
 22
103.9046737281
 32
0.0
 13
86.8563844177
 23
103.9046737281
 33
0.0
  0
LINE
  5
279
330
274
100
AcDbEntity
  8
TEXT
100
AcDbLine
 10
101.3643844177
 20
95.6026737281
 30
0.0
 11
86.3643844177
 21
95.6026737281
 31
0.0
  0
LINE
  5
27A
330
274
100
AcDbEntity
  8
TEXT
100
AcDbLine
 10
96.3643844177
 20
100.6026737281
 30
0.0
 11
86.3643844177
 21
100.6026737281
 31
0.0
  0
LINE
  5
27B
330
274
100
AcDbEntity
  8
TEXT
100
AcDbLine
 10
87.3643844177
 20
95.6026737281
 30
0.0
 11
87.3643844177
 21
89.2526737281
 31
0.0
  0
LINE
  5
27C
330
274
100
AcDbEntity
  8
TEXT
100
AcDbLine
 10
87.3643844177
 20
95.6026737281
 30
0.0
 11
87.3643844177
 21
100.6026737281
 31
0.0
  0
LINE
  5
27D
330
274
100
AcDbEntity
  8
TEXT
100
AcDbLine
 10
87.3643844177
 20
100.6026737281
 30
0.0
 11
87.3643844177
 21
106.9526737281
 31
0.0
  0
MTEXT
  5
27E
330
274
100
AcDbEntity
  8
TEXT
100
AcDbMText
 10
82.8526475614
 20
96.8155955689
 30
0.0
 40
3.5
 41
0.0
 71
     1
 72
     1
  1
5
  7
SLDTEXTSTYLE0
 11
6.123233995736766E-17
 21
1.0
 31
0.0
 73
     1
 44
1.0
  0
ENDBLK
  5
276
330
274
100
AcDbEntity
  8
0
100
AcDbBlockEnd
  0
BLOCK
  5
281
330
280
100
AcDbEntity
  8
0
100
AcDbBlockBegin
  2
_D_3
 70
     0
 10
0.0
 20
0.0
 30
0.0
  3
_D_3
  1
_D_3
  0
SOLID
  5
283
330
280
100
AcDbEntity
  8
TEXT
100
AcDbTrace
 10
81.3643844177
 20
115.6026737281
 30
0.0
 11
80.8563844177
 21
112.3006737281
 31
0.0
 12
81.8723844177
 22
112.3006737281
 32
0.0
 13
81.8723844177
 23
112.3006737281
 33
0.0
  0
SOLID
  5
284
330
280
100
AcDbEntity
  8
TEXT
100
AcDbTrace
 10
81.3643844177
 20
95.6026737281
 30
0.0
 11
81.8723844177
 21
98.9046737281
 31
0.0
 12
80.8563844177
 22
98.9046737281
 32
0.0
 13
80.8563844177
 23
98.9046737281
 33
0.0
  0
LINE
  5
285
330
280
100
AcDbEntity
  8
TEXT
100
AcDbLine
 10
101.3643844177
 20
115.6026737281
 30
0.0
 11
80.3643844177
 21
115.6026737281
 31
0.0
  0
LINE
  5
286
330
280
100
AcDbEntity
  8
TEXT
100
AcDbLine
 10
101.3643844177
 20
95.6026737281
 30
0.0
 11
80.3643844177
 21
95.6026737281
 31
0.0
  0
LINE
  5
287
330
280
100
AcDbEntity
  8
TEXT
100
AcDbLine
 10
81.3643844177
 20
115.6026737281
 30
0.0
 11
81.3643844177
 21
95.6026737281
 31
0.0
  0
MTEXT
  5
288
330
280
100
AcDbEntity
  8
TEXT
100
AcDbMText
 10
76.8526475614
 20
103.1575347372
 30
0.0
 40
3.5
 41
0.0
 71
     1
 72
     1
  1
20
  7
SLDTEXTSTYLE0
 11
-7.044195017643634E-15
 21
1.0
 31
0.0
 73
     1
 44
1.0
  0
ENDBLK
  5
282
330
280
100
AcDbEntity
  8
0
100
AcDbBlockEnd
  0
BLOCK
  5
28B
330
28A
100
AcDbEntity
  8
0
100
AcDbBlockBegin
  2
_D_4
 70
     0
 10
0.0
 20
0.0
 30
0.0
  3
_D_4
  1
_D_4
  0
SOLID
  5
28D
330
28A
100
AcDbEntity
  8
TEXT
100
AcDbTrace
 10
69.3643844177
 20
95.6026737281
 30
0.0
 11
69.8723844177
 21
98.9046737281
 31
0.0
 12
68.8563844177
 22
98.9046737281
 32
0.0
 13
68.8563844177
 23
98.9046737281
 33
0.0
  0
SOLID
  5
28E
330
28A
100
AcDbEntity
  8
TEXT
100
AcDbTrace
 10
69.3643844177
 20
139.6026737281
 30
0.0
 11
68.8563844177
 21
136.3006737281
 31
0.0
 12
69.8723844177
 22
136.3006737281
 32
0.0
 13
69.8723844177
 23
136.3006737281
 33
0.0
  0
LINE
  5
28F
330
28A
100
AcDbEntity
  8
TEXT
100
AcDbLine
 10
101.3643844177
 20
95.6026737281
 30
0.0
 11
68.3643844177
 21
95.6026737281
 31
0.0
  0
LINE
  5
290
330
28A
100
AcDbEntity
  8
TEXT
100
AcDbLine
 10
115.8643844177
 20
139.6026737281
 30
0.0
 11
68.3643844177
 21
139.6026737281
 31
0.0
  0
LINE
  5
291
330
28A
100
AcDbEntity
  8
TEXT
100
AcDbLine
 10
69.3643844177
 20
95.6026737281
 30
0.0
 11
69.3643844177
 21
139.6026737281
 31
0.0
  0
MTEXT
  5
292
330
28A
100
AcDbEntity
  8
TEXT
100
AcDbMText
 10
64.8526475614
 20
114.8075348661
 30
0.0
 40
3.5
 41
0.0
 71
     1
 72
     1
  1
44
  7
SLDTEXTSTYLE0
 11
6.123233995736766E-17
 21
1.0
 31
0.0
 73
     1
 44
1.0
  0
ENDBLK
  5
28C
330
28A
100
AcDbEntity
  8
0
100
AcDbBlockEnd
  0
BLOCK
  5
295
330
294
100
AcDbEntity
  8
0
100
AcDbBlockBegin
  2
_D_5
 70
     0
 10
0.0
 20
0.0
 30
0.0
  3
_D_5
  1
_D_5
  0
SOLID
  5
297
330
294
100
AcDbEntity
  8
TEXT
100
AcDbTrace
 10
87.3643844177
 20
110.6026737281
 30
0.0
 11
86.8563844177
 21
107.3006737281
 31
0.0
 12
87.8723844177
 22
107.3006737281
 32
0.0
 13
87.8723844177
 23
107.3006737281
 33
0.0
  0
SOLID
  5
298
330
294
100
AcDbEntity
  8
TEXT
100
AcDbTrace
 10
87.3643844177
 20
100.6026737281
 30
0.0
 11
87.8723844177
 21
103.9046737281
 31
0.0
 12
86.8563844177
 22
103.9046737281
 32
0.0
 13
86.8563844177
 23
103.9046737281
 33
0.0
  0
LINE
  5
299
330
294
100
AcDbEntity
  8
TEXT
100
AcDbLine
 10
96.3643844177
 20
110.6026737281
 30
0.0
 11
86.3643844177
 21
110.6026737281
 31
0.0
  0
LINE
  5
29A
330
294
100
AcDbEntity
  8
TEXT
100
AcDbLine
 10
96.3643844177
 20
100.6026737281
 30
0.0
 11
86.3643844177
 21
100.6026737281
 31
0.0
  0
LINE
  5
29B
330
294
100
AcDbEntity
  8
TEXT
100
AcDbLine
 10
87.3643844177
 20
110.6026737281
 30
0.0
 11
87.3643844177
 21
100.6026737281
 31
0.0
  0
MTEXT
  5
29C
330
294
100
AcDbEntity
  8
TEXT
100
AcDbMText
 10
82.8526475614
 20
103.5075348411
 30
0.0
 40
3.5
 41
0.0
 71
     1
 72
     1
  1
10
  7
SLDTEXTSTYLE0
 11
-7.044195017643634E-15
 21
1.0
 31
0.0
 73
     1
 44
1.0
  0
ENDBLK
  5
296
330
294
100
AcDbEntity
  8
0
100
AcDbBlockEnd
  0
BLOCK
  5
29F
330
29E
100
AcDbEntity
  8
0
100
AcDbBlockBegin
  2
_D_6
 70
     0
 10
0.0
 20
0.0
 30
0.0
  3
_D_6
  1
_D_6
  0
SOLID
  5
2A1
330
29E
100
AcDbEntity
  8
TEXT
100
AcDbTrace
 10
111.8643844177
 20
149.6026737281
 30
0.0
 11
115.1663844177
 21
149.0946737281
 31
0.0
 12
115.1663844177
 22
150.1106737281
 32
0.0
 13
115.1663844177
 23
150.1106737281
 33
0.0
  0
SOLID
  5
2A2
330
29E
100
AcDbEntity
  8
TEXT
100
AcDbTrace
 10
139.8643844177
 20
149.6026737281
 30
0.0
 11
136.5623844177
 21
150.1106737281
 31
0.0
 12
136.5623844177
 22
149.0946737281
 32
0.0
 13
136.5623844177
 23
149.0946737281
 33
0.0
  0
LINE
  5
2A3
330
29E
100
AcDbEntity
  8
TEXT
100
AcDbLine
 10
111.8643844177
 20
135.6026737281
 30
0.0
 11
111.8643844177
 21
150.6026737281
 31
0.0
  0
LINE
  5
2A4
330
29E
100
AcDbEntity
  8
TEXT
100
AcDbLine
 10
139.8643844177
 20
135.6026737281
 30
0.0
 11
139.8643844177
 21
150.6026737281
 31
0.0
  0
LINE
  5
2A5
330
29E
100
AcDbEntity
  8
TEXT
100
AcDbLine
 10
111.8643844177
 20
149.6026737281
 30
0.0
 11
139.8643844177
 21
149.6026737281
 31
0.0
  0
MTEXT
  5
2A6
330
29E
100
AcDbEntity
  8
TEXT
100
AcDbMText
 10
123.4192454269
 20
154.1144105845
 30
0.0
 40
3.5
 41
0.0
 71
     1
 72
     1
  1
28
  7
SLDTEXTSTYLE0
 73
     1
 44
1.0
  0
ENDBLK
  5
2A0
330
29E
100
AcDbEntity
  8
0
100
AcDbBlockEnd
  0
BLOCK
  5
2AA
330
2A9
100
AcDbEntity
  8
0
100
AcDbBlockBegin
  2
_D_7
 70
     0
 10
0.0
 20
0.0
 30
0.0
  3
_D_7
  1
_D_7
  0
SOLID
  5
2AC
330
2A9
100
AcDbEntity
  8
TEXT
100
AcDbTrace
 10
110.3999183237
 20
117.0671398222
 30
0.0
 11
108.3673739802
 21
119.7185604776
 31
0.0
 12
107.6644056604
 22
118.9850132458
 32
0.0
 13
107.6644056604
 23
118.9850132458
 33
0.0
  0
LINE
  5
2AD
330
2A9
100
AcDbEntity
  8
TEXT
100
AcDbLine
 10
110.3999183237
 20
117.0671398222
 30
0.0
 11
101.6199990708
 21
125.4810562246
 31
0.0
  0
MTEXT
  5
2AE
330
2A9
100
AcDbEntity
  8
TEXT
100
AcDbMText
 10
104.8102787969
 20
128.6713359507
 30
0.0
 40
3.5
 41
0.0
 71
     1
 72
     1
  1
R5
  7
SLDTEXTSTYLE0
 11
0.7071067811865426
 21
-0.7071067811865526
 31
0.0
 73
     1
 44
1.0
  0
ENDBLK
  5
2AB
330
2A9
100
AcDbEntity
  8
0
100
AcDbBlockEnd
  0
BLOCK
  5
2B2
330
2B1
100
AcDbEntity
  8
0
100
AcDbBlockBegin
  2
_D_8
 70
     0
 10
0.0
 20
0.0
 30
0.0
  3
_D_8
  1
_D_8
  0
SOLID
  5
2B4
330
2B1
100
AcDbEntity
  8
TEXT
100
AcDbTrace
 10
113.3288505118
 20
138.138207634
 30
0.0
 11
111.3531941652
 21
140.8322844703
 31
0.0
 12
110.6347736755
 22
140.1138639807
 32
0.0
 13
110.6347736755
 23
140.1138639807
 33
0.0
  0
LINE
  5
2B5
330
2B1
100
AcDbEntity
  8
TEXT
100
AcDbLine
 10
113.3288505118
 20
138.138207634
 30
0.0
 11
104.4766239095
 21
146.9904342363
 31
0.0
  0
MTEXT
  5
2B6
330
2B1
100
AcDbEntity
  8
TEXT
100
AcDbMText
 10
107.6431384838
 20
150.1569488106
 30
0.0
 40
3.5
 41
0.0
 71
     1
 72
     1
  1
R5
  7
SLDTEXTSTYLE0
 11
0.70710678118654
 21
-0.707106781186555
 31
0.0
 73
     1
 44
1.0
  0
ENDBLK
  5
2B3
330
2B1
100
AcDbEntity
  8
0
100
AcDbBlockEnd
  0
BLOCK
  5
2CD
330
2CC
100
AcDbEntity
  8
0
100
AcDbBlockBegin
  2
_D_9
 70
     0
 10
0.0
 20
0.0
 30
0.0
  3
_D_9
  1
_D_9
  0
SOLID
  5
2CF
330
2CC
100
AcDbEntity
  8
TEXT
100
AcDbTrace
 10
213.4035165928
 20
85.6026737281
 30
0.0
 11
216.7055165928
 21
85.0946737281
 31
0.0
 12
216.7055165928
 22
86.1106737281
 32
0.0
 13
216.7055165928
 23
86.1106737281
 33
0.0
  0
SOLID
  5
2D0
330
2CC
100
AcDbEntity
  8
TEXT
100
AcDbTrace
 10
208.4035165928
 20
85.6026737281
 30
0.0
 11
205.1015165928
 21
86.1106737281
 31
0.0
 12
205.1015165928
 22
85.0946737281
 32
0.0
 13
205.1015165928
 23
85.0946737281
 33
0.0
  0
LINE
  5
2D1
330
2CC
100
AcDbEntity
  8
TEXT
100
AcDbLine
 10
213.4035165928
 20
94.6026737281
 30
0.0
 11
213.4035165928
 21
84.6026737281
 31
0.0
  0
LINE
  5
2D2
330
2CC
100
AcDbEntity
  8
TEXT
100
AcDbLine
 10
208.4035165928
 20
94.6026737281
 30
0.0
 11
208.4035165928
 21
84.6026737281
 31
0.0
  0
LINE
  5
2D3
330
2CC
100
AcDbEntity
  8
TEXT
100
AcDbLine
 10
213.4035165928
 20
85.6026737281
 30
0.0
 11
219.7535165928
 21
85.6026737281
 31
0.0
  0
LINE
  5
2D4
330
2CC
100
AcDbEntity
  8
TEXT
100
AcDbLine
 10
213.4035165928
 20
85.6026737281
 30
0.0
 11
208.4035165928
 21
85.6026737281
 31
0.0
  0
LINE
  5
2D5
330
2CC
100
AcDbEntity
  8
TEXT
100
AcDbLine
 10
208.4035165928
 20
85.6026737281
 30
0.0
 11
202.0535165928
 21
85.6026737281
 31
0.0
  0
MTEXT
  5
2D6
330
2CC
100
AcDbEntity
  8
TEXT
100
AcDbMText
 10
209.9731267221
 20
90.1144105845
 30
0.0
 40
3.5
 41
0.0
 71
     1
 72
     1
  1
5
  7
SLDTEXTSTYLE0
 73
     1
 44
1.0
  0
ENDBLK
  5
2CE
330
2CC
100
AcDbEntity
  8
0
100
AcDbBlockEnd
  0
ENDSEC
  0
SECTION
  2
ENTITIES
  0
LINE
  5
1E1
330
1F
100
AcDbEntity
  8
FORMAT
370
     0
100
AcDbLine
 10
198.5
 20
10.0
 30
0.0
 11
198.5
 21
5.0
 31
0.0
  0
LINE
  5
1E2
330
1F
100
AcDbEntity
  8
FORMAT
370
     0
100
AcDbLine
 10
248.5
 20
10.0
 30
0.0
 11
248.5
 21
5.0
 31
0.0
  0
LINE
  5
1E3
330
1F
100
AcDbEntity
  8
FORMAT
370
     0
100
AcDbLine
 10
287.0
 20
55.0
 30
0.0
 11
292.0
 21
55.0
 31
0.0
  0
LINE
  5
1E4
330
1F
100
AcDbEntity
  8
FORMAT
370
     0
100
AcDbLine
 10
148.5
 20
5.0
 30
0.0
 11
148.5
 21
10.0
 31
0.0
  0
LINE
  5
1E5
330
1F
100
AcDbEntity
  8
FORMAT
370
    30
100
AcDbLine
 10
287.0
 20
200.0
 30
0.0
 11
10.0
 21
200.0
 31
0.0
  0
LINE
  5
1E6
330
1F
100
AcDbEntity
  8
FORMAT
100
AcDbLine
 10
292.0
 20
205.0
 30
0.0
 11
5.0
 21
205.0
 31
0.0
  0
LINE
  5
1E7
330
1F
100
AcDbEntity
  8
FORMAT
370
    30
100
AcDbLine
 10
10.0
 20
200.0
 30
0.0
 11
10.0
 21
10.0
 31
0.0
  0
LINE
  5
1E8
330
1F
100
AcDbEntity
  8
FORMAT
100
AcDbLine
 10
5.0
 20
205.0
 30
0.0
 11
5.0
 21
5.0
 31
0.0
  0
LINE
  5
1E9
330
1F
100
AcDbEntity
  8
FORMAT
100
AcDbLine
 10
10.0
 20
55.0
 30
0.0
 11
5.0
 21
55.0
 31
0.0
  0
LINE
  5
1EA
330
1F
100
AcDbEntity
  8
FORMAT
100
AcDbLine
 10
5.0
 20
105.0
 30
0.0
 11
15.0
 21
105.0
 31
0.0
  0
LINE
  5
1EB
330
1F
100
AcDbEntity
  8
FORMAT
100
AcDbLine
 10
5.0
 20
5.0
 30
0.0
 11
292.0
 21
5.0
 31
0.0
  0
LINE
  5
1EC
330
1F
100
AcDbEntity
  8
FORMAT
370
    30
100
AcDbLine
 10
10.0
 20
10.0
 30
0.0
 11
287.0
 21
10.0
 31
0.0
  0
LINE
  5
1ED
330
1F
100
AcDbEntity
  8
FORMAT
100
AcDbLine
 10
48.5
 20
5.0
 30
0.0
 11
48.5
 21
10.0
 31
0.0
  0
LINE
  5
1EE
330
1F
100
AcDbEntity
  8
FORMAT
100
AcDbLine
 10
98.5
 20
10.0
 30
0.0
 11
98.5
 21
5.0
 31
0.0
  0
LINE
  5
1EF
330
1F
100
AcDbEntity
  8
FORMAT
100
AcDbLine
 10
10.0
 20
155.0
 30
0.0
 11
5.0
 21
155.0
 31
0.0
  0
LINE
  5
1F0
330
1F
100
AcDbEntity
  8
FORMAT
100
AcDbLine
 10
48.5
 20
200.0
 30
0.0
 11
48.5
 21
205.0
 31
0.0
  0
LINE
  5
1F1
330
1F
100
AcDbEntity
  8
FORMAT
100
AcDbLine
 10
98.5
 20
205.0
 30
0.0
 11
98.5
 21
200.0
 31
0.0
  0
LINE
  5
1F2
330
1F
100
AcDbEntity
  8
FORMAT
100
AcDbLine
 10
148.5
 20
205.0
 30
0.0
 11
148.5
 21
195.0
 31
0.0
  0
LINE
  5
1F3
330
1F
100
AcDbEntity
  8
FORMAT
370
    30
100
AcDbLine
 10
287.0
 20
10.0
 30
0.0
 11
287.0
 21
200.0
 31
0.0
  0
LINE
  5
1F4
330
1F
100
AcDbEntity
  8
FORMAT
100
AcDbLine
 10
292.0
 20
5.0
 30
0.0
 11
292.0
 21
205.0
 31
0.0
  0
LINE
  5
1F5
330
1F
100
AcDbEntity
  8
FORMAT
100
AcDbLine
 10
292.0
 20
105.0
 30
0.0
 11
282.0
 21
105.0
 31
0.0
  0
LINE
  5
1F6
330
1F
100
AcDbEntity
  8
FORMAT
100
AcDbLine
 10
198.5
 20
205.0
 30
0.0
 11
198.5
 21
200.0
 31
0.0
  0
LINE
  5
1F7
330
1F
100
AcDbEntity
  8
FORMAT
100
AcDbLine
 10
248.5
 20
200.0
 30
0.0
 11
248.5
 21
205.0
 31
0.0
  0
LINE
  5
1F8
330
1F
100
AcDbEntity
  8
FORMAT
100
AcDbLine
 10
287.0
 20
155.0
 30
0.0
 11
292.0
 21
155.0
 31
0.0
  0
INSERT
  5
1F9
330
1F
100
AcDbEntity
  8
0
  6
Continuous
 62
     7
100
AcDbBlockReference
 66
     1
  2
SP_SF_V00
 10
0.0
 20
0.0
 30
0.0
  0
ATTRIB
  5
1FA
330
1F9
100
AcDbEntity
  8
FORMAT
 62
     7
100
AcDbText
 10
153.9040237826
 20
38.2401414124
 30
0.0
 40
2.1166666667
  1
1.0978 (S355MC)
 41
0.96
  7
SLDTEXTSTYLE0
 11
153.9040237826
 21
36.8349309945
 31
0.0
100
AcDbAttribute
  2
AUTOATTR150
 70
     0
 74
     1
  0
ATTRIB
  5
1FB
330
1F9
100
AcDbEntity
  8
FORMAT
 62
     7
100
AcDbText
 10
250.3605515549
 20
27.5853022667
 30
0.0
 40
3.7041666667
  1
3900575
 41
0.96
  7
SLDTEXTSTYLE0
 11
250.3605515549
 21
25.1261840352
 31
0.0
100
AcDbAttribute
  2
AUTOATTR102
 70
     0
 74
     1
  0
ATTRIB
  5
1FC
330
1F9
100
AcDbEntity
  8
FORMAT
 62
     7
100
AcDbText
 10
146.0827411477
 20
17.3873253806
 30
0.0
 40
3.7041666667
  1
Siebtraverse
 41
0.96
  7
SLDTEXTSTYLE0
 11
146.0827411477
 21
14.9282071491
 31
0.0
100
AcDbAttribute
  2
AUTOATTR2700
 70
     0
 74
     1
  0
ATTRIB
  5
1FD
330
1F9
100
AcDbEntity
  8
FORMAT
 62
     7
100
AcDbText
 10
146.0827411477
 20
23.6732511527
 30
0.0
 40
3.4548591175
  1

 41
0.96
  7
SLDTEXTSTYLE0
 11
146.0827411477
 21
21.3796429522
 31
0.0
100
AcDbAttribute
  2
AUTOATTR2600
 70
     0
 74
     1
  0
ATTRIB
  5
1FE
330
1F9
100
AcDbEntity
  8
FORMAT
 62
     7
100
AcDbText
 10
146.0827411477
 20
30.31415766
 30
0.0
 40
3.7041666667
  1
Endblech
 41
0.96
  7
SLDTEXTSTYLE0
 11
146.0827411477
 21
27.8550394286
 31
0.0
100
AcDbAttribute
  2
AUTOATTR2500
 70
     0
 74
     1
  0
ATTRIB
  5
1FF
330
1F9
100
AcDbEntity
  8
FORMAT
 62
     7
100
AcDbText
 10
144.7991741775
 20
41.1159408002
 30
0.0
 40
1.5
  1
Werkstoff
 41
0.96
  7
SLDTEXTSTYLE0
 11
144.7991741775
 21
40.1201223938
 31
0.0
100
AcDbAttribute
  2
MATERIAL_0
 70
     0
 74
     1
  0
ATTRIB
  5
200
330
1F9
100
AcDbEntity
  8
FORMAT
 62
     7
100
AcDbText
 10
144.7991741775
 20
38.7167771308
 30
0.0
 40
1.2
  1
[material]
 41
0.96
  7
SLDTEXTSTYLE0
 11
144.7991741775
 21
37.9201224057
 31
0.0
100
AcDbAttribute
  2
MATERIAL_1
 70
     0
 74
     1
  0
ATTRIB
  5
201
330
1F9
100
AcDbEntity
  8
FORMAT
 62
     7
100
AcDbText
 10
170.0442953451
 20
54.3170575002
 30
0.0
 40
2.5
  1
Schweißverfahren nach
 41
0.96
  7
SLDTEXTSTYLE0
 11
170.0442953451
 21
52.6573601561
 31
0.0
100
AcDbAttribute
  2
AUTOATTR9_0
 70
     0
 74
     1
  0
ATTRIB
  5
202
330
1F9
100
AcDbEntity
  8
FORMAT
 62
     7
100
AcDbText
 10
179.349634186
 20
51.254014835
 30
0.0
 40
1.2
  1
[welded construction]
 41
0.96
  7
SLDTEXTSTYLE0
 11
179.349634186
 21
50.4573601098
 31
0.0
100
AcDbAttribute
  2
AUTOATTR9_1
 70
     0
 74
     1
  0
ATTRIB
  5
203
330
1F9
100
AcDbEntity
  8
FORMAT
 62
     7
100
AcDbText
 10
178.154322174
 20
48.5441409001
 30
0.0
 40
2.5
  1
SPN 6.2-100
 41
0.96
  7
SLDTEXTSTYLE0
 11
178.154322174
 21
46.884443556
 31
0.0
100
AcDbAttribute
  2
AUTOATTR9_2
 70
     0
 74
     1
  0
ATTRIB
  5
204
330
1F9
100
AcDbEntity
  8
FORMAT
 62
     7
100
AcDbText
 10
265.9492345861
 20
15.7659041273
 30
0.0
 40
3.5
  1
1 / 1
 41
0.96
  7
SLDTEXTSTYLE0
 11
265.9492345861
 21
13.4423278456
 31
0.0
100
AcDbAttribute
  2
AUTOATTR10
 70
     0
 74
     1
  0
ATTRIB
  5
205
330
1F9
100
AcDbEntity
  8
FORMAT
 62
     7
100
AcDbText
 10
194.4455781892
 20
38.2401414124
 30
0.0
 40
2.1166666667
  1
0.1 kg
 41
0.96
  7
SLDTEXTSTYLE0
 11
194.4455781892
 21
36.8349309945
 31
0.0
100
AcDbAttribute
  2
AUTOATTR99
 70
     0
 74
     1
  0
ATTRIB
  5
206
330
1F9
100
AcDbEntity
  8
FORMAT
 62
     7
100
AcDbText
 10
149.6087214027
 20
48.573991727
 30
0.0
 40
3.5
  1
1:1
 41
0.96
  7
SLDTEXTSTYLE0
 11
149.6087214027
 21
46.2504154454
 31
0.0
100
AcDbAttribute
  2
AUTOATTR15
 70
     0
 74
     1
  0
ATTRIB
  5
207
330
1F9
100
AcDbEntity
  8
FORMAT
 62
     7
100
AcDbText
 10
217.4904462645
 20
11.3924871247
 30
0.0
 40
1.8
  1
1000540
 41
0.96
  7
SLDTEXTSTYLE0
 11
217.4904462645
 21
10.197505037
 31
0.0
100
AcDbAttribute
  2
AUTOATTR16
 70
     0
 74
     1
  0
ATTRIB
  5
208
330
1F9
100
AcDbEntity
  8
FORMAT
 62
     7
100
AcDbText
 10
279.7697370617
 20
20.0353473617
 30
0.0
 40
2.5
  1
A4
 41
0.96
  7
SLDTEXTSTYLE0
 11
279.7697370617
 21
18.3756500176
 31
0.0
100
AcDbAttribute
  2
AUTOATTR20
 70
     0
 74
     1
  0
ATTRIB
  5
209
330
1F9
100
AcDbEntity
  8
FORMAT
 62
     7
100
AcDbText
 10
187.2764397118
 20
41.0767662758
 30
0.0
 40
1.5
  1
Gewicht
 41
0.96
  7
SLDTEXTSTYLE0
 11
187.2764397118
 21
40.0809478694
 31
0.0
100
AcDbAttribute
  2
WERKSTOFF99_0
 70
     0
 74
     1
  0
ATTRIB
  5
20A
330
1F9
100
AcDbEntity
  8
FORMAT
 62
     7
100
AcDbText
 10
187.2764397118
 20
38.6776026065
 30
0.0
 40
1.2
  1
[weight]
 41
0.96
  7
SLDTEXTSTYLE0
 11
187.2764397118
 21
37.8809478813
 31
0.0
100
AcDbAttribute
  2
WERKSTOFF99_1
 70
     0
 74
     1
  0
ATTRIB
  5
20B
330
1F9
100
AcDbEntity
  8
FORMAT
 62
     7
100
AcDbText
 10
224.8730303669
 20
38.2401414124
 30
0.0
 40
2.1166666667
  1
0.0 m²
 41
0.96
  7
SLDTEXTSTYLE0
 11
224.8730303669
 21
36.8349309945
 31
0.0
100
AcDbAttribute
  2
AUTOATTR13
 70
     0
 74
     1
  0
ATTRIB
  5
20C
330
1F9
100
AcDbEntity
  8
FORMAT
 62
     7
100
AcDbText
 10
213.3621454786
 20
41.046859433
 30
0.0
 40
1.5
  1
Oberfläche
 41
0.96
  7
SLDTEXTSTYLE0
 11
213.3621454786
 21
40.0510410265
 31
0.0
100
AcDbAttribute
  2
WERKSTOFF_0
 70
     0
 74
     1
  0
ATTRIB
  5
20D
330
1F9
100
AcDbEntity
  8
FORMAT
 62
     7
100
AcDbText
 10
213.3621454786
 20
38.6476957636
 30
0.0
 40
1.2
  1
[surface area]
 41
0.96
  7
SLDTEXTSTYLE0
 11
213.3621454786
 21
37.8510410385
 31
0.0
100
AcDbAttribute
  2
WERKSTOFF_1
 70
     0
 74
     1
  0
ATTRIB
  5
20E
330
1F9
100
AcDbEntity
  8
FORMAT
 62
     7
100
AcDbText
 10
99.731642096
 20
52.6763333513
 30
0.0
 40
2.1166666667
  1
Cluse
 41
0.96
  7
SLDTEXTSTYLE0
 11
99.731642096
 21
51.2711229333
 31
0.0
100
AcDbAttribute
  2
AUTOATTR250
 70
     0
 74
     1
  0
ATTRIB
  5
20F
330
1F9
100
AcDbEntity
  8
FORMAT
 62
     7
100
AcDbText
 10
124.5449025633
 20
47.8595883578
 30
0.0
 40
2.1166666667
  1
18.04.2016
 41
0.96
  7
SLDTEXTSTYLE0
 11
124.5449025633
 21
46.4543779398
 31
0.0
100
AcDbAttribute
  2
AUTOATTR253
 70
     0
 74
     1
  0
ATTRIB
  5
210
330
1F9
100
AcDbEntity
  8
FORMAT
 62
     7
100
AcDbText
 10
124.4997874202
 20
52.5560138239
 30
0.0
 40
2.1166666667
  1
23.08.2010
 41
0.96
  7
SLDTEXTSTYLE0
 11
124.4997874202
 21
51.1508034059
 31
0.0
100
AcDbAttribute
  2
AUTOATTR251
 70
     0
 74
     1
  0
ATTRIB
  5
211
330
1F9
100
AcDbEntity
  8
FORMAT
 62
     7
100
AcDbText
 10
99.6906008108
 20
47.8595883578
 30
0.0
 40
2.1166666667
  1
Tetiet
 41
0.96
  7
SLDTEXTSTYLE0
 11
99.6906008108
 21
46.4543779398
 31
0.0
100
AcDbAttribute
  2
AUTOATTR252
 70
     0
 74
     1
  0
ATTRIB
  5
212
330
1F9
100
AcDbEntity
  8
FORMAT
 62
     7
100
AcDbText
 10
252.883020091
 20
15.7659041273
 30
0.0
 40
3.5
  1
014
 41
0.96
  7
SLDTEXTSTYLE0
 11
252.883020091
 21
13.4423278456
 31
0.0
100
AcDbAttribute
  2
AUTOATTR700
 70
     0
 74
     1
  0
ATTRIB
  5
213
330
1F9
100
AcDbEntity
  8
FORMAT
 62
     7
100
AcDbText
 10
250.3605515549
 20
36.2364733778
 30
0.0
 40
3.7041666667
  1
1000540
 41
0.96
  7
SLDTEXTSTYLE0
 11
250.3605515549
 21
33.7773551464
 31
0.0
100
AcDbAttribute
  2
AUTOATTR1250
 70
     0
 74
     1
  0
SEQEND
  5
214
330
1F9
100
AcDbEntity
  8
0
  6
Continuous
 62
     7
  0
INSERT
  5
215
330
1F
100
AcDbEntity
  8
0
  6
Continuous
 62
     7
100
AcDbBlockReference
 66
     1
  2
Block_RevTable
 10
-891.9926710333
 20
-631.0486741234
 30
0.0
  0
ATTRIB
  5
216
330
215
100
AcDbEntity
  8
TEXT
 62
   174
100
AcDbText
 10
256.6786935027
 20
183.3188653892
 30
0.0
 40
2.5
  1
Tetiet
 41
0.96
  7
SLDTEXTSTYLE0
 11
256.6786935027
 21
181.6591680452
 31
0.0
100
AcDbAttribute
  2
AUTOATTR12
 70
     0
 74
     1
  0
ATTRIB
  5
217
330
215
100
AcDbEntity
  8
TEXT
 62
   174
100
AcDbText
 10
256.6786935027
 20
187.8200180493
 30
0.0
 40
2.5
  1
Tetiet
 41
0.96
  7
SLDTEXTSTYLE0
 11
256.6786935027
 21
186.1603207052
 31
0.0
100
AcDbAttribute
  2
AUTOATTR11
 70
     0
 74
     1
  0
ATTRIB
  5
218
330
215
100
AcDbEntity
  8
TEXT
 62
   174
100
AcDbText
 10
256.6786935027
 20
192.543332118
 30
0.0
 40
2.5
  1
Tetiet
 41
0.96
  7
SLDTEXTSTYLE0
 11
256.6786935027
 21
190.883634774
 31
0.0
100
AcDbAttribute
  2
AUTOATTR10
 70
     0
 74
     1
  0
ATTRIB
  5
219
330
215
100
AcDbEntity
  8
TEXT
 62
   174
100
AcDbText
 10
232.2168474762
 20
183.3188653892
 30
0.0
 40
2.5
  1
14.04.2016
 41
0.96
  7
SLDTEXTSTYLE0
 11
232.2168474762
 21
181.6591680452
 31
0.0
100
AcDbAttribute
  2
AUTOATTR9
 70
     0
 74
     1
  0
ATTRIB
  5
21A
330
215
100
AcDbEntity
  8
TEXT
 62
   174
100
AcDbText
 10
232.2168474762
 20
187.8200180493
 30
0.0
 40
2.5
  1
18.04.2016
 41
0.96
  7
SLDTEXTSTYLE0
 11
232.2168474762
 21
186.1603207052
 31
0.0
100
AcDbAttribute
  2
AUTOATTR8
 70
     0
 74
     1
  0
ATTRIB
  5
21B
330
215
100
AcDbEntity
  8
TEXT
 62
   174
100
AcDbText
 10
232.2168474762
 20
192.543332118
 30
0.0
 40
2.5
  1
18.04.2016
 41
0.96
  7
SLDTEXTSTYLE0
 11
232.2168474762
 21
190.883634774
 31
0.0
100
AcDbAttribute
  2
AUTOATTR7
 70
     0
 74
     1
  0
ATTRIB
  5
21C
330
215
100
AcDbEntity
  8
TEXT
 62
   174
100
AcDbText
 10
150.6859712651
 20
192.5233160498
 30
0.0
 40
2.5
  1
Freigabe nach Dü
 41
0.96
  7
SLDTEXTSTYLE0
 11
150.6859712651
 21
190.8636187057
 31
0.0
100
AcDbAttribute
  2
AUTOATTR6
 70
     0
 74
     1
  0
ATTRIB
  5
21D
330
215
100
AcDbEntity
  8
TEXT
 62
   174
100
AcDbText
 10
150.8915014631
 20
183.1827825324
 30
0.0
 40
2.5
  1
dxf überarbeitet
 41
0.96
  7
SLDTEXTSTYLE0
 11
150.8915014631
 21
181.5230851884
 31
0.0
100
AcDbAttribute
  2
AUTOATTR5
 70
     0
 74
     1
  0
ATTRIB
  5
21E
330
215
100
AcDbEntity
  8
TEXT
 62
   174
100
AcDbText
 10
137.9032520904
 20
192.5233160498
 30
0.0
 40
2.5
  1
014
 41
0.96
  7
SLDTEXTSTYLE0
 11
137.9032520904
 21
190.8636187057
 31
0.0
100
AcDbAttribute
  2
AUTOATTR1
 70
     0
 74
     1
  0
ATTRIB
  5
21F
330
215
100
AcDbEntity
  8
TEXT
 62
   174
100
AcDbText
 10
138.0367848624
 20
183.1827825324
 30
0.0
 40
2.5
  1
012
 41
0.96
  7
SLDTEXTSTYLE0
 11
138.0367848624
 21
181.5230851884
 31
0.0
100
AcDbAttribute
  2
AUTOATTR2
 70
     0
 74
     1
  0
ATTRIB
  5
220
330
215
100
AcDbEntity
  8
TEXT
 62
   174
100
AcDbText
 10
150.8915014631
 20
187.637645836
 30
0.0
 40
2.5
  1
Freigabe nach Dü
 41
0.96
  7
SLDTEXTSTYLE0
 11
150.8915014631
 21
185.9779484919
 31
0.0
100
AcDbAttribute
  2
AUTOATTR4
 70
     0
 74
     1
  0
ATTRIB
  5
221
330
215
100
AcDbEntity
  8
TEXT
 62
   174
100
AcDbText
 10
138.0367848624
 20
187.637645836
 30
0.0
 40
2.5
  1
013
 41
0.96
  7
SLDTEXTSTYLE0
 11
138.0367848624
 21
185.9779484919
 31
0.0
100
AcDbAttribute
  2
AUTOATTR3
 70
     0
 74
     1
  0
ATTRIB
  5
222
330
215
100
AcDbEntity
  8
TEXT
 62
   174
100
AcDbText
 10
243.4909541566
 20
183.1670024625
 30
0.0
 40
2.5
  1

 41
0.96
  7
SLDTEXTSTYLE0
 11
243.4909541566
 21
181.5073051185
 31
0.0
100
AcDbAttribute
  2
AUTOATTR0
 70
     0
 74
     1
  0
ATTRIB
  5
223
330
215
100
AcDbEntity
  8
TEXT
 62
   174
100
AcDbText
 10
243.5347902499
 20
187.7958778893
 30
0.0
 40
2.5
  1

 41
0.96
  7
SLDTEXTSTYLE0
 11
243.5347902499
 21
186.1361805453
 31
0.0
100
AcDbAttribute
  2
AUTOATTR13
 70
     0
 74
     1
  0
ATTRIB
  5
224
330
215
100
AcDbEntity
  8
TEXT
 62
   174
100
AcDbText
 10
243.5347863986
 20
192.4394581457
 30
0.0
 40
2.5
  1

 41
0.96
  7
SLDTEXTSTYLE0
 11
243.5347863986
 21
190.7797608017
 31
0.0
100
AcDbAttribute
  2
AUTOATTR14
 70
     0
 74
     1
  0
ATTRIB
  5
225
330
215
100
AcDbEntity
  8
TEXT
 62
   174
100
AcDbText
 10
151.3750040273
 20
183.0784254505
 30
0.0
 40
2.5
  1

 41
0.96
  7
SLDTEXTSTYLE0
 11
151.3750040273
 21
181.4187281064
 31
0.0
100
AcDbAttribute
  2
AUTOATTR15
 70
     0
 74
     1
  0
ATTRIB
  5
226
330
215
100
AcDbEntity
  8
TEXT
 62
   174
100
AcDbText
 10
151.3274487608
 20
187.7073008773
 30
0.0
 40
2.5
  1

 41
0.96
  7
SLDTEXTSTYLE0
 11
151.3274487608
 21
186.0476035332
 31
0.0
100
AcDbAttribute
  2
AUTOATTR16
 70
     0
 74
     1
  0
ATTRIB
  5
227
330
215
100
AcDbEntity
  8
TEXT
 62
   174
100
AcDbText
 10
151.3274487608
 20
192.3508811337
 30
0.0
 40
2.5
  1

 41
0.96
  7
SLDTEXTSTYLE0
 11
151.3274487608
 21
190.6911837896
 31
0.0
100
AcDbAttribute
  2
AUTOATTR17
 70
     0
 74
     1
  0
ATTRIB
  5
228
330
215
100
AcDbEntity
  8
TEXT
 62
   174
100
AcDbText
 10
141.3295229713
 20
184.909698767
 30
0.0
 40
2.5
  1

 41
0.96
  7
SLDTEXTSTYLE0
 11
141.3295229713
 21
183.2500014229
 31
0.0
100
AcDbAttribute
  2
AUTOATTR18
 70
     0
 74
     1
  0
ATTRIB
  5
229
330
215
100
AcDbEntity
  8
TEXT
 62
   174
100
AcDbText
 10
141.3299387295
 20
189.5385481511
 30
0.0
 40
2.5
  1

 41
0.96
  7
SLDTEXTSTYLE0
 11
141.3299387295
 21
187.8788508071
 31
0.0
100
AcDbAttribute
  2
AUTOATTR19
 70
     0
 74
     1
  0
ATTRIB
  5
22A
330
215
100
AcDbEntity
  8
TEXT
 62
   174
100
AcDbText
 10
141.9058790932
 20
194.0571423306
 30
0.0
 40
2.5
  1

 41
0.96
  7
SLDTEXTSTYLE0
 11
141.9058790932
 21
192.3974449866
 31
0.0
100
AcDbAttribute
  2
AUTOATTR20
 70
     0
 74
     1
  0
SEQEND
  5
22B
330
215
100
AcDbEntity
  8
0
  6
Continuous
 62
     7
  0
MTEXT
  5
22D
330
1F
100
AcDbEntity
  8
FORMAT
100
AcDbMText
 10
6.6666666667
 20
131.1680164036
 30
0.0
 40
1.8520833333
 41
0.0
 71
     1
 72
     1
  1
B
  7
SLDTEXTSTYLE1
 73
     1
 44
1.0
  0
MTEXT
  5
22E
330
1F
100
AcDbEntity
  8
FORMAT
100
AcDbMText
 10
6.6666666667
 20
81.1680164036
 30
0.0
 40
1.8520833333
 41
0.0
 71
     1
 72
     1
  1
C
  7
SLDTEXTSTYLE1
 73
     1
 44
1.0
  0
MTEXT
  5
22F
330
1F
100
AcDbEntity
  8
FORMAT
100
AcDbMText
 10
6.6666666667
 20
31.1680164036
 30
0.0
 40
1.8520833333
 41
0.0
 71
     1
 72
     1
  1
D
  7
SLDTEXTSTYLE1
 73
     1
 44
1.0
  0
MTEXT
  5
230
330
1F
100
AcDbEntity
  8
FORMAT
100
AcDbMText
 10
23.0833373333
 20
8.6680164036
 30
0.0
 40
1.8520833333
 41
0.0
 71
     1
 72
     1
  1
1
  7
SLDTEXTSTYLE1
 73
     1
 44
1.0
  0
MTEXT
  5
231
330
1F
100
AcDbEntity
  8
FORMAT
100
AcDbMText
 10
72.6666706667
 20
8.6680164036
 30
0.0
 40
1.8520833333
 41
0.0
 71
     1
 72
     1
  1
2
  7
SLDTEXTSTYLE1
 73
     1
 44
1.0
  0
MTEXT
  5
232
330
1F
100
AcDbEntity
  8
FORMAT
100
AcDbMText
 10
6.6666666667
 20
181.1680164036
 30
0.0
 40
1.8520833333
 41
0.0
 71
     1
 72
     1
  1
A
  7
SLDTEXTSTYLE1
 73
     1
 44
1.0
  0
MTEXT
  5
233
330
1F
100
AcDbEntity
  8
FORMAT
100
AcDbMText
 10
122.6666706667
 20
203.6680164036
 30
0.0
 40
1.8520833333
 41
0.0
 71
     1
 72
     1
  1
3
  7
SLDTEXTSTYLE1
 73
     1
 44
1.0
  0
MTEXT
  5
234
330
1F
100
AcDbEntity
  8
FORMAT
100
AcDbMText
 10
72.6666706667
 20
203.6680164036
 30
0.0
 40
1.8520833333
 41
0.0
 71
     1
 72
     1
  1
2
  7
SLDTEXTSTYLE1
 73
     1
 44
1.0
  0
MTEXT
  5
235
330
1F
100
AcDbEntity
  8
FORMAT
100
AcDbMText
 10
23.0833373333
 20
203.6680164036
 30
0.0
 40
1.8520833333
 41
0.0
 71
     1
 72
     1
  1
1
  7
SLDTEXTSTYLE1
 73
     1
 44
1.0
  0
MTEXT
  5
236
330
1F
100
AcDbEntity
  8
FORMAT
100
AcDbMText
 10
172.6666706667
 20
203.6680164036
 30
0.0
 40
1.8520833333
 41
0.0
 71
     1
 72
     1
  1
4
  7
SLDTEXTSTYLE1
 73
     1
 44
1.0
  0
MTEXT
  5
237
330
1F
100
AcDbEntity
  8
FORMAT
100
AcDbMText
 10
288.6666746667
 20
131.1680164036
 30
0.0
 40
1.8520833333
 41
0.0
 71
     1
 72
     1
  1
B
  7
SLDTEXTSTYLE1
 73
     1
 44
1.0
  0
MTEXT
  5
238
330
1F
100
AcDbEntity
  8
FORMAT
100
AcDbMText
 10
288.6666746667
 20
181.1680164036
 30
0.0
 40
1.8520833333
 41
0.0
 71
     1
 72
     1
  1
A
  7
SLDTEXTSTYLE1
 73
     1
 44
1.0
  0
MTEXT
  5
239
330
1F
100
AcDbEntity
  8
FORMAT
100
AcDbMText
 10
222.6666706667
 20
203.6680164036
 30
0.0
 40
1.8520833333
 41
0.0
 71
     1
 72
     1
  1
5
  7
SLDTEXTSTYLE1
 73
     1
 44
1.0
  0
MTEXT
  5
23A
330
1F
100
AcDbEntity
  8
FORMAT
100
AcDbMText
 10
272.6666706667
 20
203.6680164036
 30
0.0
 40
1.8520833333
 41
0.0
 71
     1
 72
     1
  1
6
  7
SLDTEXTSTYLE1
 73
     1
 44
1.0
  0
MTEXT
  5
23B
330
1F
100
AcDbEntity
  8
FORMAT
100
AcDbMText
 10
288.6926520658
 20
82.1496220514
 30
0.0
 40
1.8520833333
 41
0.0
 71
     1
 72
     1
  1
C
  7
SLDTEXTSTYLE1
 73
     1
 44
1.0
  0
MTEXT
  5
23C
330
1F
100
AcDbEntity
  8
FORMAT
100
AcDbMText
 10
122.6666706667
 20
8.6680164036
 30
0.0
 40
1.8520833333
 41
0.0
 71
     1
 72
     1
  1
3
  7
SLDTEXTSTYLE1
 73
     1
 44
1.0
  0
MTEXT
  5
23D
330
1F
100
AcDbEntity
  8
FORMAT
100
AcDbMText
 10
172.6666706667
 20
8.6680164036
 30
0.0
 40
1.8520833333
 41
0.0
 71
     1
 72
     1
  1
4
  7
SLDTEXTSTYLE1
 73
     1
 44
1.0
  0
MTEXT
  5
23E
330
1F
100
AcDbEntity
  8
FORMAT
100
AcDbMText
 10
272.6666706667
 20
8.6680164036
 30
0.0
 40
1.8520833333
 41
0.0
 71
     1
 72
     1
  1
6
  7
SLDTEXTSTYLE1
 73
     1
 44
1.0
  0
MTEXT
  5
23F
330
1F
100
AcDbEntity
  8
FORMAT
100
AcDbMText
 10
222.6666706667
 20
8.6680164036
 30
0.0
 40
1.8520833333
 41
0.0
 71
     1
 72
     1
  1
5
  7
SLDTEXTSTYLE1
 73
     1
 44
1.0
  0
MTEXT
  5
240
330
1F
100
AcDbEntity
  8
FORMAT
100
AcDbMText
 10
289.000415571
 20
31.9249068629
 30
0.0
 40
1.8520833333
 41
0.0
 71
     1
 72
     1
  1
D
  7
SLDTEXTSTYLE1
 73
     1
 44
1.0
  0
INSERT
  5
246
330
1F
100
AcDbEntity
  8
SP_SPERRLAYER
100
AcDbBlockReference
  2
SW_NOTE_20
 10
24.608317219
 20
28.5378925689
 30
0.0
  0
LINE
  5
247
330
1F
100
AcDbEntity
  8
0
  6
Continuous
 62
     7
370
    15
100
AcDbLine
 10
149.3643836131
 20
110.6026736163
 30
0.0
 11
149.3643836131
 21
115.6026735046
 31
0.0
  0
LINE
  5
248
330
1F
100
AcDbEntity
  8
0
  6
Continuous
 62
     7
370
    15
100
AcDbLine
 10
154.3643844326
 20
110.6026736163
 30
0.0
 11
149.3643836131
 21
110.6026736163
 31
0.0
  0
LINE
  5
249
330
1F
100
AcDbEntity
  8
0
  6
Continuous
 62
     7
370
    15
100
AcDbLine
 10
154.3643844326
 20
100.6026738398
 30
0.0
 11
154.3643844326
 21
110.6026736163
 31
0.0
  0
LINE
  5
24A
330
1F
100
AcDbEntity
  8
0
  6
Continuous
 62
     7
370
    15
100
AcDbLine
 10
149.3643836131
 20
100.6026738398
 30
0.0
 11
154.3643844326
 21
100.6026738398
 31
0.0
  0
LINE
  5
24B
330
1F
100
AcDbEntity
  8
0
  6
Continuous
 62
     7
370
    15
100
AcDbLine
 10
149.3643836131
 20
95.6026739516
 30
0.0
 11
149.3643836131
 21
100.6026738398
 31
0.0
  0
LINE
  5
24C
330
1F
100
AcDbEntity
  8
0
  6
Continuous
 62
     7
370
    15
100
AcDbLine
 10
102.3643852224
 20
95.6026739516
 30
0.0
 11
149.3643836131
 21
95.6026739516
 31
0.0
  0
LINE
  5
24D
330
1F
100
AcDbEntity
  8
0
  6
Continuous
 62
     7
370
    15
100
AcDbLine
 10
102.3643852224
 20
100.6026738398
 30
0.0
 11
102.3643852224
 21
95.6026739516
 31
0.0
  0
LINE
  5
24E
330
1F
100
AcDbEntity
  8
0
  6
Continuous
 62
     7
370
    15
100
AcDbLine
 10
97.3643844028
 20
100.6026738398
 30
0.0
 11
102.3643852224
 21
100.6026738398
 31
0.0
  0
LINE
  5
24F
330
1F
100
AcDbEntity
  8
0
  6
Continuous
 62
     7
370
    15
100
AcDbLine
 10
97.3643844028
 20
110.6026736163
 30
0.0
 11
97.3643844028
 21
100.6026738398
 31
0.0
  0
LINE
  5
250
330
1F
100
AcDbEntity
  8
0
  6
Continuous
 62
     7
370
    15
100
AcDbLine
 10
102.3643852224
 20
110.6026736163
 30
0.0
 11
97.3643844028
 21
110.6026736163
 31
0.0
  0
LINE
  5
251
330
1F
100
AcDbEntity
  8
0
  6
Continuous
 62
     7
370
    15
100
AcDbLine
 10
102.3643852224
 20
115.6026735046
 30
0.0
 11
102.3643852224
 21
110.6026736163
 31
0.0
  0
LINE
  5
252
330
1F
100
AcDbEntity
  8
0
  6
Continuous
 62
     7
370
    15
100
AcDbLine
 10
106.8643850287
 20
115.6026735046
 30
0.0
 11
102.3643852224
 21
115.6026735046
 31
0.0
  0
ARC
  5
253
330
1F
100
AcDbEntity
  8
0
  6
Continuous
 62
     7
370
    15
100
AcDbCircle
 10
106.8643844177
 20
120.6026737281
 30
0.0
 40
5.000000000000014
100
AcDbArc
 50
270.0
 51
0.0
  0
LINE
  5
254
330
1F
100
AcDbEntity
  8
0
  6
Continuous
 62
     7
370
    15
100
AcDbLine
 10
111.8643839856
 20
134.6026728936
 30
0.0
 11
111.8643839856
 21
120.6026733928
 31
0.0
  0
ARC
  5
255
330
1F
100
AcDbEntity
  8
0
  6
Continuous
 62
     7
370
    15
100
AcDbCircle
 10
116.8643844177
 20
134.6026737281
 30
0.0
 40
5.0
100
AcDbArc
 50
90.0
 51
180.0
  0
LINE
  5
256
330
1F
100
AcDbEntity
  8
0
  6
Continuous
 62
     7
370
    15
100
AcDbLine
 10
134.8643840303
 20
139.6026755758
 30
0.0
 11
116.8643848052
 21
139.6026755758
 31
0.0
  0
ARC
  5
257
330
1F
100
AcDbEntity
  8
0
  6
Continuous
 62
     7
370
    15
100
AcDbCircle
 10
134.8643844177
 20
134.6026737281
 30
0.0
 40
5.0
100
AcDbArc
 50
0.0
 51
90.0
  0
ARC
  5
258
330
1F
100
AcDbEntity
  8
0
  6
Continuous
 62
     7
370
    15
100
AcDbCircle
 10
144.8643844177
 20
120.6026737281
 30
0.0
 40
5.0
100
AcDbArc
 50
180.0
 51
270.0
  0
LINE
  5
259
330
1F
100
AcDbEntity
  8
0
  6
Continuous
 62
     7
370
    15
100
AcDbLine
 10
149.3643836131
 20
115.6026735046
 30
0.0
 11
144.8643838068
 21
115.6026735046
 31
0.0
  0
LINE
  5
25A
330
1F
100
AcDbEntity
  8
0
  6
Continuous
 62
     7
370
    15
100
AcDbLine
 10
139.8643848499
 20
120.6026733928
 30
0.0
 11
139.8643848499
 21
134.6026728936
 31
0.0
  0
DIMENSION
  5
25B
330
1F
100
AcDbEntity
  8
TEXT
100
AcDbDimension
  2
_D
 10
154.3643844177
 20
79.6026737281
 30
0.0
 11
126.2878115874
 21
79.6026737281
 31
0.0
 70
   160
  1
<>
 71
     2
 42
-1.0
  3
SLDDIMSTYLE0
100
AcDbAlignedDimension
 13
97.3643844177
 23
100.6026737281
 33
0.0
 14
154.3643844177
 24
100.6026737281
 34
0.0
100
AcDbRotatedDimension
  0
DIMENSION
  5
266
330
1F
100
AcDbEntity
  8
TEXT
100
AcDbDimension
  2
_D_1
 10
97.3643844177
 20
85.6026737281
 30
0.0
 11
99.8643844177
 21
85.6026737281
 31
0.0
 70
   160
  1
<>
 71
     2
 42
-1.0
  3
SLDDIMSTYLE1
100
AcDbAlignedDimension
 13
102.3643844177
 23
95.6026737281
 33
0.0
 14
97.3643844177
 24
100.6026737281
 34
0.0
100
AcDbRotatedDimension
  0
DIMENSION
  5
273
330
1F
100
AcDbEntity
  8
TEXT
100
AcDbDimension
  2
_D_2
 10
87.3643844177
 20
100.6026737281
 30
0.0
 11
87.3643844177
 21
98.0381650644
 31
0.0
 70
   160
  1
<>
 71
     2
 42
-1.0
  3
SLDDIMSTYLE1
100
AcDbAlignedDimension
 13
102.3643844177
 23
95.6026737281
 33
0.0
 14
97.3643844177
 24
100.6026737281
 34
0.0
 50
90.0
100
AcDbRotatedDimension
  0
DIMENSION
  5
27F
330
1F
100
AcDbEntity
  8
TEXT
100
AcDbDimension
  2
_D_3
 10
81.3643844177
 20
95.6026737281
 30
0.0
 11
81.3643844177
 21
105.6026737281
 31
0.0
 70
   160
  1
<>
 71
     2
 42
-1.0
  3
SLDDIMSTYLE0
100
AcDbAlignedDimension
 13
102.3643844177
 23
115.6026737281
 33
0.0
 14
102.3643844177
 24
95.6026737281
 34
0.0
 50
90.0
100
AcDbRotatedDimension
  0
DIMENSION
  5
289
330
1F
100
AcDbEntity
  8
TEXT
100
AcDbDimension
  2
_D_4
 10
69.3643844177
 20
139.6026737281
 30
0.0
 11
69.3643844177
 21
117.6026737281
 31
0.0
 70
   160
  1
<>
 71
     2
 42
-1.0
  3
SLDDIMSTYLE0
100
AcDbAlignedDimension
 13
102.3643844177
 23
95.6026737281
 33
0.0
 14
116.8643844177
 24
139.6026737281
 34
0.0
 50
90.0
100
AcDbRotatedDimension
  0
DIMENSION
  5
293
330
1F
100
AcDbEntity
  8
TEXT
100
AcDbDimension
  2
_D_5
 10
87.3643844177
 20
100.6026737281
 30
0.0
 11
87.3643844177
 21
105.6026737281
 31
0.0
 70
   160
  1
<>
 71
     2
 42
-1.0
  3
SLDDIMSTYLE0
100
AcDbAlignedDimension
 13
97.3643844177
 23
110.6026737281
 33
0.0
 14
97.3643844177
 24
100.6026737281
 34
0.0
 50
90.0
100
AcDbRotatedDimension
  0
DIMENSION
  5
29D
330
1F
100
AcDbEntity
  8
TEXT
100
AcDbDimension
  2
_D_6
 10
139.8643844177
 20
149.6026737281
 30
0.0
 11
125.8643844177
 21
149.6026737281
 31
0.0
 70
   160
  1
<>
 71
     2
 42
-1.0
  3
SLDDIMSTYLE0
100
AcDbAlignedDimension
 13
111.8643844177
 23
134.6026737281
 33
0.0
 14
139.8643844177
 24
134.6026737281
 34
0.0
100
AcDbRotatedDimension
  0
DIMENSION
  5
2A7
330
1F
100
AcDbEntity
  8
TEXT
100
AcDbDimension
  2
_D_7
 10
106.8643844177
 20
120.6026737281
 30
0.0
 11
103.2853786597
 21
124.1816994861
 31
0.0
 70
   164
  1
<>
 71
     1
 42
-1.0
  3
SLDDIMSTYLE2
100
AcDbRadialDimension
 15
110.3999183237
 25
117.0671398222
 35
0.0
 40
0.0
  0
DIMENSION
  5
2AF
330
1F
100
AcDbEntity
  8
TEXT
100
AcDbDimension
  2
_D_8
 10
116.8643844177
 20
134.6026737281
 30
0.0
 11
106.1858536708
 21
145.2812244751
 31
0.0
 70
   164
  1
<>
 71
     1
 42
-1.0
  3
SLDDIMSTYLE3
100
AcDbRadialDimension
 15
113.3288505118
 25
138.138207634
 35
0.0
 40
0.0
  0
LINE
  5
2B7
330
1F
100
AcDbEntity
  8
TEXT
  6
CENTERX2
370
     0
100
AcDbLine
 10
125.8643844177
 20
143.6008320448
 30
0.0
 11
125.8643844177
 21
93.5195467381
 31
0.0
  0
LINE
  5
2B8
330
1F
100
AcDbEntity
  8
0
  6
Continuous
 62
     7
370
    15
100
AcDbLine
 10
213.4035164811
 20
110.6026736163
 30
0.0
 11
213.4035164811
 21
100.6026738398
 31
0.0
  0
LINE
  5
2B9
330
1F
100
AcDbEntity
  8
0
  6
Continuous
 62
     7
370
    15
100
AcDbLine
 10
208.4035165928
 20
110.6026736163
 30
0.0
 11
208.4035165928
 21
100.6026738398
 31
0.0
  0
LINE
  5
2BA
330
1F
100
AcDbEntity
  8
0
  6
Continuous
 62
     7
370
    15
100
AcDbLine
 10
213.4035164811
 20
110.6026736163
 30
0.0
 11
208.4035165928
 21
110.6026736163
 31
0.0
  0
LINE
  5
2BB
330
1F
100
AcDbEntity
  8
0
  6
Continuous
 62
     7
370
    15
100
AcDbLine
 10
213.4035164811
 20
100.6026738398
 30
0.0
 11
208.4035165928
 21
100.6026738398
 31
0.0
  0
LINE
  5
2BC
330
1F
100
AcDbEntity
  8
0
  6
Continuous
 62
     7
370
    15
100
AcDbLine
 10
213.4035164811
 20
95.6026739516
 30
0.0
 11
208.4035165928
 21
95.6026739516
 31
0.0
  0
LINE
  5
2BD
330
1F
100
AcDbEntity
  8
0
  6
Continuous
 62
     7
370
    15
100
AcDbLine
 10
213.4035164811
 20
100.6026738398
 30
0.0
 11
213.4035164811
 21
95.6026739516
 31
0.0
  0
LINE
  5
2BE
330
1F
100
AcDbEntity
  8
0
  6
Continuous
 62
     7
370
    15
100
AcDbLine
 10
208.4035165928
 20
100.6026738398
 30
0.0
 11
208.4035165928
 21
95.6026739516
 31
0.0
  0
LINE
  5
2BF
330
1F
100
AcDbEntity
  8
0
  6
Continuous
 62
     7
370
    15
100
AcDbLine
 10
213.4035164811
 20
115.6026735046
 30
0.0
 11
208.4035165928
 21
115.6026735046
 31
0.0
  0
LINE
  5
2C0
330
1F
100
AcDbEntity
  8
0
  6
Continuous
 62
     7
370
    15
100
AcDbLine
 10
213.4035164811
 20
115.6026735046
 30
0.0
 11
213.4035164811
 21
110.6026736163
 31
0.0
  0
LINE
  5
2C1
330
1F
100
AcDbEntity
  8
0
  6
Continuous
 62
     7
370
    15
100
AcDbLine
 10
208.4035165928
 20
115.6026735046
 30
0.0
 11
208.4035165928
 21
110.6026736163
 31
0.0
  0
LINE
  5
2C2
330
1F
100
AcDbEntity
  8
0
  6
Continuous
 62
     7
370
    15
100
AcDbLine
 10
213.4035164811
 20
120.6026733928
 30
0.0
 11
208.4035165928
 21
120.6026733928
 31
0.0
  0
LINE
  5
2C3
330
1F
100
AcDbEntity
  8
0
  6
Continuous
 62
     7
370
    15
100
AcDbLine
 10
213.4035164811
 20
120.6026733928
 30
0.0
 11
213.4035164811
 21
115.6026735046
 31
0.0
  0
LINE
  5
2C4
330
1F
100
AcDbEntity
  8
0
  6
Continuous
 62
     7
370
    15
100
AcDbLine
 10
208.4035165928
 20
115.6026735046
 30
0.0
 11
208.4035165928
 21
120.6026733928
 31
0.0
  0
LINE
  5
2C5
330
1F
100
AcDbEntity
  8
0
  6
Continuous
 62
     7
370
    15
100
AcDbLine
 10
213.4035164811
 20
134.6026728936
 30
0.0
 11
208.4035165928
 21
134.6026728936
 31
0.0
  0
LINE
  5
2C6
330
1F
100
AcDbEntity
  8
0
  6
Continuous
 62
     7
370
    15
100
AcDbLine
 10
213.4035164811
 20
139.6026755758
 30
0.0
 11
208.4035165928
 21
139.6026755758
 31
0.0
  0
LINE
  5
2C7
330
1F
100
AcDbEntity
  8
0
  6
Continuous
 62
     7
370
    15
100
AcDbLine
 10
213.4035164811
 20
139.6026755758
 30
0.0
 11
213.4035164811
 21
134.6026728936
 31
0.0
  0
LINE
  5
2C8
330
1F
100
AcDbEntity
  8
0
  6
Continuous
 62
     7
370
    15
100
AcDbLine
 10
208.4035165928
 20
134.6026728936
 30
0.0
 11
208.4035165928
 21
139.6026755758
 31
0.0
  0
LINE
  5
2C9
330
1F
100
AcDbEntity
  8
0
  6
Continuous
 62
     7
370
    15
100
AcDbLine
 10
213.4035164811
 20
134.6026728936
 30
0.0
 11
213.4035164811
 21
120.6026733928
 31
0.0
  0
LINE
  5
2CA
330
1F
100
AcDbEntity
  8
0
  6
Continuous
 62
     7
370
    15
100
AcDbLine
 10
208.4035165928
 20
120.6026733928
 30
0.0
 11
208.4035165928
 21
134.6026728936
 31
0.0
  0
DIMENSION
  5
2CB
330
1F
100
AcDbEntity
  8
TEXT
100
AcDbDimension
  2
_D_9
 10
208.4035165928
 20
85.6026737281
 30
0.0
 11
211.1956478117
 21
85.6026737281
 31
0.0
 70
   160
  1
<>
 71
     2
 42
-1.0
  3
SLDDIMSTYLE1
100
AcDbAlignedDimension
 13
213.4035165928
 23
95.6026737281
 33
0.0
 14
208.4035165928
 24
95.6026737281
 34
0.0
100
AcDbRotatedDimension
  0
ENDSEC
  0
SECTION
  2
OBJECTS
  0
DICTIONARY
  5
C
330
0
100
AcDbDictionary
281
     1
  3
ACAD_GROUP
350
D
  3
ACAD_LAYOUT
350
1A
  3
ACAD_MLINESTYLE
350
17
  3
ACAD_PLOTSETTINGS
350
19
  3
ACAD_PLOTSTYLENAME
350
E
  3
ACAD_SCALELIST
350
47
  0
DICTIONARY
  5
D
102
{ACAD_REACTORS
330
C
102
}
330
C
100
AcDbDictionary
281
     1
  0
DICTIONARY
  5
1A
102
{ACAD_REACTORS
330
C
102
}
330
C
100
AcDbDictionary
281
     1
  3
Layout1
350
1E
  3
Layout2
350
26
  3
Model
350
22
  0
DICTIONARY
  5
17
102
{ACAD_REACTORS
330
C
102
}
330
C
100
AcDbDictionary
281
     1
  3
Standard
350
18
  0
DICTIONARY
  5
19
102
{ACAD_REACTORS
330
C
102
}
330
C
100
AcDbDictionary
281
     1
  0
ACDBDICTIONARYWDFLT
  5
E
102
{ACAD_REACTORS
330
C
102
}
330
C
100
AcDbDictionary
281
     1
  3
Normal
350
F
100
AcDbDictionaryWithDefault
340
F
  0
DICTIONARY
  5
47
102
{ACAD_REACTORS
330
C
102
}
330
C
100
AcDbDictionary
281
     1
  3
A0
350
48
  3
A1
350
49
  3
A2
350
4A
  3
A3
350
4B
  3
A4
350
4C
  3
A5
350
4D
  3
A6
350
4E
  3
A7
350
4F
  3
A8
350
50
  3
A9
350
51
  3
B0
350
52
  3
B1
350
53
  3
B2
350
54
  3
B3
350
55
  3
B4
350
56
  3
B5
350
57
  3
B6
350
58
  3
B7
350
59
  3
B8
350
5A
  3
B9
350
5B
  3
C0
350
5C
  3
C1
350
5D
  3
C2
350
5E
  3
C3
350
5F
  3
C4
350
60
  3
C5
350
61
  3
C6
350
62
  3
C7
350
63
  3
C8
350
64
  3
C9
350
65
  3
D0
350
66
  3
D1
350
67
  3
D2
350
68
  0
LAYOUT
  5
1E
102
{ACAD_REACTORS
330
1A
102
}
330
1A
100
AcDbPlotSettings
  1

  2
none_device
  4

  6

 40
0.0
 41
0.0
 42
0.0
 43
0.0
 44
0.0
 45
0.0
 46
0.0
 47
0.0
 48
0.0
 49
0.0
140
0.0
141
0.0
142
1.0
143
1.0
 70
   688
 72
     1
 73
     0
 74
     5
  7

 75
    16
147
1.0
148
0.0
149
0.0
100
AcDbLayout
  1
Layout1
 70
     1
 71
     1
 10
0.0
 20
0.0
 11
420.0
 21
297.0
 12
0.0
 22
0.0
 32
0.0
 14
1.0000000000E+20
 24
1.0000000000E+20
 34
1.0000000000E+20
 15
-1.0000000000E+20
 25
-1.0000000000E+20
 35
-1.0000000000E+20
146
0.0
 13
0.0
 23
0.0
 33
0.0
 16
1.0
 26
0.0
 36
0.0
 17
0.0
 27
1.0
 37
0.0
 76
     0
330
1B
  0
LAYOUT
  5
26
102
{ACAD_REACTORS
330
1A
102
}
330
1A
100
AcDbPlotSettings
  1

  2
none_device
  4

  6

 40
0.0
 41
0.0
 42
0.0
 43
0.0
 44
0.0
 45
0.0
 46
0.0
 47
0.0
 48
0.0
 49
0.0
140
0.0
141
0.0
142
1.0
143
1.0
 70
   688
 72
     1
 73
     0
 74
     5
  7

 75
    16
147
1.0
148
0.0
149
0.0
100
AcDbLayout
  1
Layout2
 70
     1
 71
     2
 10
0.0
 20
0.0
 11
0.0
 21
0.0
 12
0.0
 22
0.0
 32
0.0
 14
0.0
 24
0.0
 34
0.0
 15
0.0
 25
0.0
 35
0.0
146
0.0
 13
0.0
 23
0.0
 33
0.0
 16
1.0
 26
0.0
 36
0.0
 17
0.0
 27
1.0
 37
0.0
 76
     0
330
23
  0
LAYOUT
  5
22
102
{ACAD_REACTORS
330
1A
102
}
330
1A
100
AcDbPlotSettings
  1

  2
none_device
  4
Letter_(8.50_x_11.00_Inches)
  6

 40
6.35
 41
6.35
 42
6.35000508
 43
6.35000508
 44
215.9
 45
279.4
 46
0.0
 47
0.0
 48
0.0
 49
0.0
140
0.0
141
0.0
142
1.0
143
1.0
 70
  1712
 72
     1
 73
     0
 74
     0
  7

 75
     0
147
1.0
148
0.0
149
0.0
100
AcDbLayout
  1
Model
 70
     1
 71
     0
 10
0.0
 20
0.0
 11
297.0
 21
210.0
 12
0.0
 22
0.0
 32
0.0
 14
0.0
 24
0.0
 34
0.0
 15
297.0
 25
210.0
 35
0.0
146
0.0
 13
0.0
 23
0.0
 33
0.0
 16
1.0
 26
0.0
 36
0.0
 17
0.0
 27
1.0
 37
0.0
 76
     0
330
1F
331
29
  0
MLINESTYLE
  5
18
102
{ACAD_REACTORS
330
17
102
}
330
17
100
AcDbMlineStyle
  2
Standard
 70
     0
  3

 62
   256
 51
90.0
 52
90.0
 71
     2
 49
0.5
 62
   256
  6
BYLAYER
 49
-0.5
 62
   256
  6
BYLAYER
  0
ACDBPLACEHOLDER
  5
F
102
{ACAD_REACTORS
330
E
102
}
330
E
  0
SCALE
  5
48
102
{ACAD_REACTORS
330
47
102
}
330
47
100
AcDbScale
 70
     0
300
1:1
140
1.0
141
1.0
290
     1
  0
SCALE
  5
49
102
{ACAD_REACTORS
330
47
102
}
330
47
100
AcDbScale
 70
     0
300
1:2
140
1.0
141
2.0
290
     0
  0
SCALE
  5
4A
102
{ACAD_REACTORS
330
47
102
}
330
47
100
AcDbScale
 70
     0
300
1:4
140
1.0
141
4.0
290
     0
  0
SCALE
  5
4B
102
{ACAD_REACTORS
330
47
102
}
330
47
100
AcDbScale
 70
     0
300
1:5
140
1.0
141
5.0
290
     0
  0
SCALE
  5
4C
102
{ACAD_REACTORS
330
47
102
}
330
47
100
AcDbScale
 70
     0
300
1:8
140
1.0
141
8.0
290
     0
  0
SCALE
  5
4D
102
{ACAD_REACTORS
330
47
102
}
330
47
100
AcDbScale
 70
     0
300
1:10
140
1.0
141
10.0
290
     0
  0
SCALE
  5
4E
102
{ACAD_REACTORS
330
47
102
}
330
47
100
AcDbScale
 70
     0
300
1:16
140
1.0
141
16.0
290
     0
  0
SCALE
  5
4F
102
{ACAD_REACTORS
330
47
102
}
330
47
100
AcDbScale
 70
     0
300
1:20
140
1.0
141
20.0
290
     0
  0
SCALE
  5
50
102
{ACAD_REACTORS
330
47
102
}
330
47
100
AcDbScale
 70
     0
300
1:30
140
1.0
141
30.0
290
     0
  0
SCALE
  5
51
102
{ACAD_REACTORS
330
47
102
}
330
47
100
AcDbScale
 70
     0
300
1:40
140
1.0
141
40.0
290
     0
  0
SCALE
  5
52
102
{ACAD_REACTORS
330
47
102
}
330
47
100
AcDbScale
 70
     0
300
1:50
140
1.0
141
50.0
290
     0
  0
SCALE
  5
53
102
{ACAD_REACTORS
330
47
102
}
330
47
100
AcDbScale
 70
     0
300
1:100
140
1.0
141
100.0
290
     0
  0
SCALE
  5
54
102
{ACAD_REACTORS
330
47
102
}
330
47
100
AcDbScale
 70
     0
300
2:1
140
2.0
141
1.0
290
     0
  0
SCALE
  5
55
102
{ACAD_REACTORS
330
47
102
}
330
47
100
AcDbScale
 70
     0
300
4:1
140
4.0
141
1.0
290
     0
  0
SCALE
  5
56
102
{ACAD_REACTORS
330
47
102
}
330
47
100
AcDbScale
 70
     0
300
8:1
140
8.0
141
1.0
290
     0
  0
SCALE
  5
57
102
{ACAD_REACTORS
330
47
102
}
330
47
100
AcDbScale
 70
     0
300
10:1
140
10.0
141
1.0
290
     0
  0
SCALE
  5
58
102
{ACAD_REACTORS
330
47
102
}
330
47
100
AcDbScale
 70
     0
300
100:1
140
100.0
141
1.0
290
     0
  0
SCALE
  5
59
102
{ACAD_REACTORS
330
47
102
}
330
47
100
AcDbScale
 70
     0
300
1/128" = 1'-0"
140
0.0078125
141
12.0
290
     0
  0
SCALE
  5
5A
102
{ACAD_REACTORS
330
47
102
}
330
47
100
AcDbScale
 70
     0
300
1/64" = 1'-0"
140
0.015625
141
12.0
290
     0
  0
SCALE
  5
5B
102
{ACAD_REACTORS
330
47
102
}
330
47
100
AcDbScale
 70
     0
300
1/32" = 1'-0"
140
0.03125
141
12.0
290
     0
  0
SCALE
  5
5C
102
{ACAD_REACTORS
330
47
102
}
330
47
100
AcDbScale
 70
     0
300
1/16" = 1'-0"
140
0.0625
141
12.0
290
     0
  0
SCALE
  5
5D
102
{ACAD_REACTORS
330
47
102
}
330
47
100
AcDbScale
 70
     0
300
3/32" = 1'-0"
140
0.09375
141
12.0
290
     0
  0
SCALE
  5
5E
102
{ACAD_REACTORS
330
47
102
}
330
47
100
AcDbScale
 70
     0
300
1/8" = 1'-0"
140
0.125
141
12.0
290
     0
  0
SCALE
  5
5F
102
{ACAD_REACTORS
330
47
102
}
330
47
100
AcDbScale
 70
     0
300
3/16" = 1'-0"
140
0.1875
141
12.0
290
     0
  0
SCALE
  5
60
102
{ACAD_REACTORS
330
47
102
}
330
47
100
AcDbScale
 70
     0
300
1/4" = 1'-0"
140
0.25
141
12.0
290
     0
  0
SCALE
  5
61
102
{ACAD_REACTORS
330
47
102
}
330
47
100
AcDbScale
 70
     0
300
3/8" = 1'-0"
140
0.375
141
12.0
290
     0
  0
SCALE
  5
62
102
{ACAD_REACTORS
330
47
102
}
330
47
100
AcDbScale
 70
     0
300
1/2" = 1'-0"
140
0.5
141
12.0
290
     0
  0
SCALE
  5
63
102
{ACAD_REACTORS
330
47
102
}
330
47
100
AcDbScale
 70
     0
300
3/4" = 1'-0"
140
0.75
141
12.0
290
     0
  0
SCALE
  5
64
102
{ACAD_REACTORS
330
47
102
}
330
47
100
AcDbScale
 70
     0
300
1" = 1'-0"
140
1.0
141
12.0
290
     0
  0
SCALE
  5
65
102
{ACAD_REACTORS
330
47
102
}
330
47
100
AcDbScale
 70
     0
300
1-1/2" = 1'-0"
140
1.5
141
12.0
290
     0
  0
SCALE
  5
66
102
{ACAD_REACTORS
330
47
102
}
330
47
100
AcDbScale
 70
     0
300
3" = 1'-0"
140
3.0
141
12.0
290
     0
  0
SCALE
  5
67
102
{ACAD_REACTORS
330
47
102
}
330
47
100
AcDbScale
 70
     0
300
6" = 1'-0"
140
6.0
141
12.0
290
     0
  0
SCALE
  5
68
102
{ACAD_REACTORS
330
47
102
}
330
47
100
AcDbScale
 70
     0
300
1'-0" = 1'-0"
140
12.0
141
12.0
290
     0
  0
ENDSEC
  0
EOF
